# Blender 5.2.1 LTS
# www.blender.org
mtllib Frog.mtl
o Frog
v -1.800000 0.800000 2.300000
v -1.800000 1.000000 2.500000
v -2.000000 1.000000 2.300000
v -1.800000 3.400000 2.500000
v -1.800000 3.600000 2.300000
v -2.000000 3.400000 2.300000
v -1.800000 0.800000 -1.500000
v -2.000000 1.000000 -1.500000
v -1.800000 1.000000 -1.700000
v -1.800000 3.600000 -1.500000
v -1.800000 3.400000 -1.700000
v -2.000000 3.400000 -1.500000
v 1.800000 0.800000 2.300000
v 2.000000 1.000000 2.300000
v 1.800000 1.000000 2.500000
v 1.800000 3.600000 2.300000
v 1.800000 3.400000 2.500000
v 2.000000 3.400000 2.300000
v 1.800000 0.800000 -1.500000
v 1.800000 1.000000 -1.700000
v 2.000000 1.000000 -1.500000
v 1.800000 3.600000 -1.500000
v 2.000000 3.400000 -1.500000
v 1.800000 3.400000 -1.700000
v -1.580000 0.700000 1.680000
v -1.580000 0.820000 1.800000
v -1.700000 0.820000 1.680000
v -1.580000 1.180000 1.800000
v -1.580000 1.300000 1.680000
v -1.700000 1.180000 1.680000
v -1.580000 0.700000 -1.680000
v -1.700000 0.820000 -1.680000
v -1.580000 0.820000 -1.800000
v -1.580000 1.300000 -1.680000
v -1.580000 1.180000 -1.800000
v -1.700000 1.180000 -1.680000
v 1.580000 0.700000 1.680000
v 1.700000 0.820000 1.680000
v 1.580000 0.820000 1.800000
v 1.580000 1.300000 1.680000
v 1.580000 1.180000 1.800000
v 1.700000 1.180000 1.680000
v 1.580000 0.700000 -1.680000
v 1.580000 0.820000 -1.800000
v 1.700000 0.820000 -1.680000
v 1.580000 1.300000 -1.680000
v 1.700000 1.180000 -1.680000
v 1.580000 1.180000 -1.800000
v -2.000000 1.400000 -0.700000
v -2.000000 1.600000 -0.500000
v -2.200000 1.600000 -0.700000
v -2.000000 3.200000 -0.500000
v -2.000000 3.400000 -0.700000
v -2.200000 3.200000 -0.700000
v -2.000000 1.400000 -3.100000
v -2.200000 1.600000 -3.100000
v -2.000000 1.600000 -3.300000
v -2.000000 3.400000 -3.100000
v -2.000000 3.200000 -3.300000
v -2.200000 3.200000 -3.100000
v 2.000000 1.400000 -0.700000
v 2.200000 1.600000 -0.700000
v 2.000000 1.600000 -0.500000
v 2.000000 3.400000 -0.700000
v 2.000000 3.200000 -0.500000
v 2.200000 3.200000 -0.700000
v 2.000000 1.400000 -3.100000
v 2.000000 1.600000 -3.300000
v 2.200000 1.600000 -3.100000
v 2.000000 3.400000 -3.100000
v 2.200000 3.200000 -3.100000
v 2.000000 3.200000 -3.300000
v -1.200000 1.000000 -1.400000
v -1.200000 1.100000 -1.300000
v -1.300000 1.100000 -1.400000
v -1.200000 1.500000 -1.300000
v -1.200000 1.600000 -1.400000
v -1.300000 1.500000 -1.400000
v -1.200000 1.000000 -3.000000
v -1.300000 1.100000 -3.000000
v -1.200000 1.100000 -3.100000
v -1.200000 1.600000 -3.000000
v -1.200000 1.500000 -3.100000
v -1.300000 1.500000 -3.000000
v 1.200000 1.000000 -1.400000
v 1.300000 1.100000 -1.400000
v 1.200000 1.100000 -1.300000
v 1.200000 1.600000 -1.400000
v 1.200000 1.500000 -1.300000
v 1.300000 1.500000 -1.400000
v 1.200000 1.000000 -3.000000
v 1.200000 1.100000 -3.100000
v 1.300000 1.100000 -3.000000
v 1.200000 1.600000 -3.000000
v 1.300000 1.500000 -3.000000
v 1.200000 1.500000 -3.100000
v -1.800000 1.900000 -3.250000
v -1.800000 2.100000 -3.250000
v -1.800000 1.900000 -3.390000
v -1.800000 2.100000 -3.390000
v 1.800000 1.900000 -3.250000
v 1.800000 2.100000 -3.250000
v 1.800000 1.900000 -3.390000
v 1.800000 2.100000 -3.390000
v -1.360000 1.680000 -3.260000
v -1.360000 2.000000 -3.260000
v -1.360000 1.680000 -3.400000
v -1.360000 2.000000 -3.400000
v -1.040000 1.680000 -3.260000
v -1.040000 2.000000 -3.260000
v -1.040000 1.680000 -3.400000
v -1.040000 2.000000 -3.400000
v -0.610000 2.670000 -3.250000
v -0.610000 2.890000 -3.250000
v -0.610000 2.670000 -3.390000
v -0.610000 2.890000 -3.390000
v -0.390000 2.670000 -3.250000
v -0.390000 2.890000 -3.250000
v -0.390000 2.670000 -3.390000
v -0.390000 2.890000 -3.390000
v -2.110000 2.090000 -3.290000
v -2.110000 2.130000 -3.250000
v -2.150000 2.130000 -3.290000
v -2.110000 2.470000 -3.250000
v -2.110000 2.510000 -3.290000
v -2.150000 2.470000 -3.290000
v -2.110000 2.090000 -3.350000
v -2.150000 2.130000 -3.350000
v -2.110000 2.130000 -3.390000
v -2.110000 2.510000 -3.350000
v -2.110000 2.470000 -3.390000
v -2.150000 2.470000 -3.350000
v -1.590000 2.090000 -3.290000
v -1.550000 2.130000 -3.290000
v -1.590000 2.130000 -3.250000
v -1.590000 2.510000 -3.290000
v -1.590000 2.470000 -3.250000
v -1.550000 2.470000 -3.290000
v -1.590000 2.090000 -3.350000
v -1.590000 2.130000 -3.390000
v -1.550000 2.130000 -3.350000
v -1.590000 2.510000 -3.350000
v -1.550000 2.470000 -3.350000
v -1.590000 2.470000 -3.390000
v -1.950000 3.150000 -0.900000
v -1.950000 3.300000 -0.750000
v -2.100000 3.300000 -0.900000
v -1.950000 4.200000 -0.750000
v -1.950000 4.350000 -0.900000
v -2.100000 4.200000 -0.900000
v -1.950000 3.150000 -2.100000
v -2.100000 3.300000 -2.100000
v -1.950000 3.300000 -2.250000
v -1.950000 4.350000 -2.100000
v -1.950000 4.200000 -2.250000
v -2.100000 4.200000 -2.100000
v -0.750000 3.150000 -0.900000
v -0.600000 3.300000 -0.900000
v -0.750000 3.300000 -0.750000
v -0.750000 4.350000 -0.900000
v -0.750000 4.200000 -0.750000
v -0.600000 4.200000 -0.900000
v -0.750000 3.150000 -2.100000
v -0.750000 3.300000 -2.250000
v -0.600000 3.300000 -2.100000
v -0.750000 4.350000 -2.100000
v -0.600000 4.200000 -2.100000
v -0.750000 4.200000 -2.250000
v -2.645635 0.550000 2.573539
v -2.620584 0.730000 2.751787
v -2.823883 0.730000 2.598590
v -2.620584 2.670000 2.751787
v -2.645635 2.850000 2.573539
v -2.823883 2.670000 2.598590
v -2.985217 0.550000 0.157284
v -3.163465 0.730000 0.182335
v -3.010268 0.730000 -0.020964
v -2.985217 2.850000 0.157284
v -3.010268 2.670000 -0.020964
v -3.163465 2.670000 0.182335
v -1.714783 0.550000 2.442716
v -1.536535 0.730000 2.417665
v -1.689732 0.730000 2.620964
v -1.714783 2.850000 2.442716
v -1.689732 2.670000 2.620964
v -1.536535 2.670000 2.417665
v -2.054365 0.550000 0.026461
v -2.079416 0.730000 -0.151787
v -1.876117 0.730000 0.001410
v -2.054365 2.850000 0.026461
v -1.876117 2.670000 0.001410
v -2.079416 2.670000 -0.151787
v -3.100000 0.300000 0.550000
v -3.100000 0.450000 0.700000
v -3.250000 0.450000 0.550000
v -3.100000 1.150000 0.700000
v -3.100000 1.300000 0.550000
v -3.250000 1.150000 0.550000
v -3.100000 0.300000 -1.550000
v -3.250000 0.450000 -1.550000
v -3.100000 0.450000 -1.700000
v -3.100000 1.300000 -1.550000
v -3.100000 1.150000 -1.700000
v -3.250000 1.150000 -1.550000
v -2.300000 0.300000 0.550000
v -2.150000 0.450000 0.550000
v -2.300000 0.450000 0.700000
v -2.300000 1.300000 0.550000
v -2.300000 1.150000 0.700000
v -2.150000 1.150000 0.550000
v -2.300000 0.300000 -1.550000
v -2.300000 0.450000 -1.700000
v -2.150000 0.450000 -1.550000
v -2.300000 1.300000 -1.550000
v -2.150000 1.150000 -1.550000
v -2.300000 1.150000 -1.700000
v -3.480000 0.000000 -0.520000
v -3.480000 0.120000 -0.400000
v -3.600000 0.120000 -0.520000
v -3.480000 0.440000 -0.400000
v -3.480000 0.560000 -0.520000
v -3.600000 0.440000 -0.520000
v -3.480000 0.000000 -2.480000
v -3.600000 0.120000 -2.480000
v -3.480000 0.120000 -2.600000
v -3.480000 0.560000 -2.480000
v -3.480000 0.440000 -2.600000
v -3.600000 0.440000 -2.480000
v -2.120000 0.000000 -0.520000
v -2.000000 0.120000 -0.520000
v -2.120000 0.120000 -0.400000
v -2.120000 0.560000 -0.520000
v -2.120000 0.440000 -0.400000
v -2.000000 0.440000 -0.520000
v -2.120000 0.000000 -2.480000
v -2.120000 0.120000 -2.600000
v -2.000000 0.120000 -2.480000
v -2.120000 0.560000 -2.480000
v -2.000000 0.440000 -2.480000
v -2.120000 0.440000 -2.600000
v -3.495000 0.000000 -2.430000
v -3.495000 0.080000 -2.350000
v -3.575000 0.080000 -2.430000
v -3.495000 0.360000 -2.350000
v -3.495000 0.440000 -2.430000
v -3.575000 0.360000 -2.430000
v -3.495000 0.000000 -3.170000
v -3.575000 0.080000 -3.170000
v -3.495000 0.080000 -3.250000
v -3.495000 0.440000 -3.170000
v -3.495000 0.360000 -3.250000
v -3.575000 0.360000 -3.170000
v -3.205000 0.000000 -2.430000
v -3.125000 0.080000 -2.430000
v -3.205000 0.080000 -2.350000
v -3.205000 0.440000 -2.430000
v -3.205000 0.360000 -2.350000
v -3.125000 0.360000 -2.430000
v -3.205000 0.000000 -3.170000
v -3.205000 0.080000 -3.250000
v -3.125000 0.080000 -3.170000
v -3.205000 0.440000 -3.170000
v -3.125000 0.360000 -3.170000
v -3.205000 0.360000 -3.250000
v -2.945000 0.000000 -2.430000
v -2.945000 0.080000 -2.350000
v -3.025000 0.080000 -2.430000
v -2.945000 0.360000 -2.350000
v -2.945000 0.440000 -2.430000
v -3.025000 0.360000 -2.430000
v -2.945000 0.000000 -3.170000
v -3.025000 0.080000 -3.170000
v -2.945000 0.080000 -3.250000
v -2.945000 0.440000 -3.170000
v -2.945000 0.360000 -3.250000
v -3.025000 0.360000 -3.170000
v -2.655000 0.000000 -2.430000
v -2.575000 0.080000 -2.430000
v -2.655000 0.080000 -2.350000
v -2.655000 0.440000 -2.430000
v -2.655000 0.360000 -2.350000
v -2.575000 0.360000 -2.430000
v -2.655000 0.000000 -3.170000
v -2.655000 0.080000 -3.250000
v -2.575000 0.080000 -3.170000
v -2.655000 0.440000 -3.170000
v -2.575000 0.360000 -3.170000
v -2.655000 0.360000 -3.250000
v -2.395000 0.000000 -2.430000
v -2.395000 0.080000 -2.350000
v -2.475000 0.080000 -2.430000
v -2.395000 0.360000 -2.350000
v -2.395000 0.440000 -2.430000
v -2.475000 0.360000 -2.430000
v -2.395000 0.000000 -3.170000
v -2.475000 0.080000 -3.170000
v -2.395000 0.080000 -3.250000
v -2.395000 0.440000 -3.170000
v -2.395000 0.360000 -3.250000
v -2.475000 0.360000 -3.170000
v -2.105000 0.000000 -2.430000
v -2.025000 0.080000 -2.430000
v -2.105000 0.080000 -2.350000
v -2.105000 0.440000 -2.430000
v -2.105000 0.360000 -2.350000
v -2.025000 0.360000 -2.430000
v -2.105000 0.000000 -3.170000
v -2.105000 0.080000 -3.250000
v -2.025000 0.080000 -3.170000
v -2.105000 0.440000 -3.170000
v -2.025000 0.360000 -3.170000
v -2.105000 0.360000 -3.250000
v -2.035000 0.050000 -0.840000
v -2.035000 0.190000 -0.700000
v -2.175000 0.190000 -0.840000
v -2.035000 1.810000 -0.700000
v -2.035000 1.950000 -0.840000
v -2.175000 1.810000 -0.840000
v -2.035000 0.050000 -1.560000
v -2.175000 0.190000 -1.560000
v -2.035000 0.190000 -1.700000
v -2.035000 1.950000 -1.560000
v -2.035000 1.810000 -1.700000
v -2.175000 1.810000 -1.560000
v -1.365000 0.050000 -0.840000
v -1.225000 0.190000 -0.840000
v -1.365000 0.190000 -0.700000
v -1.365000 1.950000 -0.840000
v -1.365000 1.810000 -0.700000
v -1.225000 1.810000 -0.840000
v -1.365000 0.050000 -1.560000
v -1.365000 0.190000 -1.700000
v -1.225000 0.190000 -1.560000
v -1.365000 1.950000 -1.560000
v -1.225000 1.810000 -1.560000
v -1.365000 1.810000 -1.700000
v -2.350000 0.000000 -1.350000
v -2.350000 0.100000 -1.250000
v -2.450000 0.100000 -1.350000
v -2.350000 0.400000 -1.250000
v -2.350000 0.500000 -1.350000
v -2.450000 0.400000 -1.350000
v -2.350000 0.000000 -2.850000
v -2.450000 0.100000 -2.850000
v -2.350000 0.100000 -2.950000
v -2.350000 0.500000 -2.850000
v -2.350000 0.400000 -2.950000
v -2.450000 0.400000 -2.850000
v -1.150000 0.000000 -1.350000
v -1.050000 0.100000 -1.350000
v -1.150000 0.100000 -1.250000
v -1.150000 0.500000 -1.350000
v -1.150000 0.400000 -1.250000
v -1.050000 0.400000 -1.350000
v -1.150000 0.000000 -2.850000
v -1.150000 0.100000 -2.950000
v -1.050000 0.100000 -2.850000
v -1.150000 0.500000 -2.850000
v -1.050000 0.400000 -2.850000
v -1.150000 0.400000 -2.950000
v -2.260000 0.000000 -2.760000
v -2.260000 0.060000 -2.700000
v -2.320000 0.060000 -2.760000
v -2.260000 0.340000 -2.700000
v -2.260000 0.400000 -2.760000
v -2.320000 0.340000 -2.760000
v -2.260000 0.000000 -3.340000
v -2.320000 0.060000 -3.340000
v -2.260000 0.060000 -3.400000
v -2.260000 0.400000 -3.340000
v -2.260000 0.340000 -3.400000
v -2.320000 0.340000 -3.340000
v -2.040000 0.000000 -2.760000
v -1.980000 0.060000 -2.760000
v -2.040000 0.060000 -2.700000
v -2.040000 0.400000 -2.760000
v -2.040000 0.340000 -2.700000
v -1.980000 0.340000 -2.760000
v -2.040000 0.000000 -3.340000
v -2.040000 0.060000 -3.400000
v -1.980000 0.060000 -3.340000
v -2.040000 0.400000 -3.340000
v -1.980000 0.340000 -3.340000
v -2.040000 0.340000 -3.400000
v -1.860000 0.000000 -2.760000
v -1.860000 0.060000 -2.700000
v -1.920000 0.060000 -2.760000
v -1.860000 0.340000 -2.700000
v -1.860000 0.400000 -2.760000
v -1.920000 0.340000 -2.760000
v -1.860000 0.000000 -3.340000
v -1.920000 0.060000 -3.340000
v -1.860000 0.060000 -3.400000
v -1.860000 0.400000 -3.340000
v -1.860000 0.340000 -3.400000
v -1.920000 0.340000 -3.340000
v -1.640000 0.000000 -2.760000
v -1.580000 0.060000 -2.760000
v -1.640000 0.060000 -2.700000
v -1.640000 0.400000 -2.760000
v -1.640000 0.340000 -2.700000
v -1.580000 0.340000 -2.760000
v -1.640000 0.000000 -3.340000
v -1.640000 0.060000 -3.400000
v -1.580000 0.060000 -3.340000
v -1.640000 0.400000 -3.340000
v -1.580000 0.340000 -3.340000
v -1.640000 0.340000 -3.400000
v -1.460000 0.000000 -2.760000
v -1.460000 0.060000 -2.700000
v -1.520000 0.060000 -2.760000
v -1.460000 0.340000 -2.700000
v -1.460000 0.400000 -2.760000
v -1.520000 0.340000 -2.760000
v -1.460000 0.000000 -3.340000
v -1.520000 0.060000 -3.340000
v -1.460000 0.060000 -3.400000
v -1.460000 0.400000 -3.340000
v -1.460000 0.340000 -3.400000
v -1.520000 0.340000 -3.340000
v -1.240000 0.000000 -2.760000
v -1.180000 0.060000 -2.760000
v -1.240000 0.060000 -2.700000
v -1.240000 0.400000 -2.760000
v -1.240000 0.340000 -2.700000
v -1.180000 0.340000 -2.760000
v -1.240000 0.000000 -3.340000
v -1.240000 0.060000 -3.400000
v -1.180000 0.060000 -3.340000
v -1.240000 0.400000 -3.340000
v -1.180000 0.340000 -3.340000
v -1.240000 0.340000 -3.400000
v 1.040000 1.680000 -3.260000
v 1.040000 2.000000 -3.260000
v 1.040000 1.680000 -3.400000
v 1.040000 2.000000 -3.400000
v 1.360000 1.680000 -3.260000
v 1.360000 2.000000 -3.260000
v 1.360000 1.680000 -3.400000
v 1.360000 2.000000 -3.400000
v 0.390000 2.670000 -3.250000
v 0.390000 2.890000 -3.250000
v 0.390000 2.670000 -3.390000
v 0.390000 2.890000 -3.390000
v 0.610000 2.670000 -3.250000
v 0.610000 2.890000 -3.250000
v 0.610000 2.670000 -3.390000
v 0.610000 2.890000 -3.390000
v 1.590000 2.090000 -3.290000
v 1.590000 2.130000 -3.250000
v 1.550000 2.130000 -3.290000
v 1.590000 2.470000 -3.250000
v 1.590000 2.510000 -3.290000
v 1.550000 2.470000 -3.290000
v 1.590000 2.090000 -3.350000
v 1.550000 2.130000 -3.350000
v 1.590000 2.130000 -3.390000
v 1.590000 2.510000 -3.350000
v 1.590000 2.470000 -3.390000
v 1.550000 2.470000 -3.350000
v 2.110000 2.090000 -3.290000
v 2.150000 2.130000 -3.290000
v 2.110000 2.130000 -3.250000
v 2.110000 2.510000 -3.290000
v 2.110000 2.470000 -3.250000
v 2.150000 2.470000 -3.290000
v 2.110000 2.090000 -3.350000
v 2.110000 2.130000 -3.390000
v 2.150000 2.130000 -3.350000
v 2.110000 2.510000 -3.350000
v 2.150000 2.470000 -3.350000
v 2.110000 2.470000 -3.390000
v 0.750000 3.150000 -0.900000
v 0.750000 3.300000 -0.750000
v 0.600000 3.300000 -0.900000
v 0.750000 4.200000 -0.750000
v 0.750000 4.350000 -0.900000
v 0.600000 4.200000 -0.900000
v 0.750000 3.150000 -2.100000
v 0.600000 3.300000 -2.100000
v 0.750000 3.300000 -2.250000
v 0.750000 4.350000 -2.100000
v 0.750000 4.200000 -2.250000
v 0.600000 4.200000 -2.100000
v 1.950000 3.150000 -0.900000
v 2.100000 3.300000 -0.900000
v 1.950000 3.300000 -0.750000
v 1.950000 4.350000 -0.900000
v 1.950000 4.200000 -0.750000
v 2.100000 4.200000 -0.900000
v 1.950000 3.150000 -2.100000
v 1.950000 3.300000 -2.250000
v 2.100000 3.300000 -2.100000
v 1.950000 4.350000 -2.100000
v 2.100000 4.200000 -2.100000
v 1.950000 4.200000 -2.250000
v 1.714783 0.550000 2.442716
v 1.689732 0.730000 2.620964
v 1.536535 0.730000 2.417665
v 1.689732 2.670000 2.620964
v 1.714783 2.850000 2.442716
v 1.536535 2.670000 2.417665
v 2.054365 0.550000 0.026461
v 1.876117 0.730000 0.001410
v 2.079416 0.730000 -0.151787
v 2.054365 2.850000 0.026461
v 2.079416 2.670000 -0.151787
v 1.876117 2.670000 0.001410
v 2.645635 0.550000 2.573539
v 2.823883 0.730000 2.598590
v 2.620584 0.730000 2.751787
v 2.645635 2.850000 2.573539
v 2.620584 2.670000 2.751787
v 2.823883 2.670000 2.598590
v 2.985217 0.550000 0.157284
v 3.010268 0.730000 -0.020964
v 3.163465 0.730000 0.182335
v 2.985217 2.850000 0.157284
v 3.163465 2.670000 0.182335
v 3.010268 2.670000 -0.020964
v 2.300000 0.300000 0.550000
v 2.300000 0.450000 0.700000
v 2.150000 0.450000 0.550000
v 2.300000 1.150000 0.700000
v 2.300000 1.300000 0.550000
v 2.150000 1.150000 0.550000
v 2.300000 0.300000 -1.550000
v 2.150000 0.450000 -1.550000
v 2.300000 0.450000 -1.700000
v 2.300000 1.300000 -1.550000
v 2.300000 1.150000 -1.700000
v 2.150000 1.150000 -1.550000
v 3.100000 0.300000 0.550000
v 3.250000 0.450000 0.550000
v 3.100000 0.450000 0.700000
v 3.100000 1.300000 0.550000
v 3.100000 1.150000 0.700000
v 3.250000 1.150000 0.550000
v 3.100000 0.300000 -1.550000
v 3.100000 0.450000 -1.700000
v 3.250000 0.450000 -1.550000
v 3.100000 1.300000 -1.550000
v 3.250000 1.150000 -1.550000
v 3.100000 1.150000 -1.700000
v 2.120000 0.000000 -0.520000
v 2.120000 0.120000 -0.400000
v 2.000000 0.120000 -0.520000
v 2.120000 0.440000 -0.400000
v 2.120000 0.560000 -0.520000
v 2.000000 0.440000 -0.520000
v 2.120000 0.000000 -2.480000
v 2.000000 0.120000 -2.480000
v 2.120000 0.120000 -2.600000
v 2.120000 0.560000 -2.480000
v 2.120000 0.440000 -2.600000
v 2.000000 0.440000 -2.480000
v 3.480000 0.000000 -0.520000
v 3.600000 0.120000 -0.520000
v 3.480000 0.120000 -0.400000
v 3.480000 0.560000 -0.520000
v 3.480000 0.440000 -0.400000
v 3.600000 0.440000 -0.520000
v 3.480000 0.000000 -2.480000
v 3.480000 0.120000 -2.600000
v 3.600000 0.120000 -2.480000
v 3.480000 0.560000 -2.480000
v 3.600000 0.440000 -2.480000
v 3.480000 0.440000 -2.600000
v 2.105000 0.000000 -2.430000
v 2.105000 0.080000 -2.350000
v 2.025000 0.080000 -2.430000
v 2.105000 0.360000 -2.350000
v 2.105000 0.440000 -2.430000
v 2.025000 0.360000 -2.430000
v 2.105000 0.000000 -3.170000
v 2.025000 0.080000 -3.170000
v 2.105000 0.080000 -3.250000
v 2.105000 0.440000 -3.170000
v 2.105000 0.360000 -3.250000
v 2.025000 0.360000 -3.170000
v 2.395000 0.000000 -2.430000
v 2.475000 0.080000 -2.430000
v 2.395000 0.080000 -2.350000
v 2.395000 0.440000 -2.430000
v 2.395000 0.360000 -2.350000
v 2.475000 0.360000 -2.430000
v 2.395000 0.000000 -3.170000
v 2.395000 0.080000 -3.250000
v 2.475000 0.080000 -3.170000
v 2.395000 0.440000 -3.170000
v 2.475000 0.360000 -3.170000
v 2.395000 0.360000 -3.250000
v 2.655000 0.000000 -2.430000
v 2.655000 0.080000 -2.350000
v 2.575000 0.080000 -2.430000
v 2.655000 0.360000 -2.350000
v 2.655000 0.440000 -2.430000
v 2.575000 0.360000 -2.430000
v 2.655000 0.000000 -3.170000
v 2.575000 0.080000 -3.170000
v 2.655000 0.080000 -3.250000
v 2.655000 0.440000 -3.170000
v 2.655000 0.360000 -3.250000
v 2.575000 0.360000 -3.170000
v 2.945000 0.000000 -2.430000
v 3.025000 0.080000 -2.430000
v 2.945000 0.080000 -2.350000
v 2.945000 0.440000 -2.430000
v 2.945000 0.360000 -2.350000
v 3.025000 0.360000 -2.430000
v 2.945000 0.000000 -3.170000
v 2.945000 0.080000 -3.250000
v 3.025000 0.080000 -3.170000
v 2.945000 0.440000 -3.170000
v 3.025000 0.360000 -3.170000
v 2.945000 0.360000 -3.250000
v 3.205000 0.000000 -2.430000
v 3.205000 0.080000 -2.350000
v 3.125000 0.080000 -2.430000
v 3.205000 0.360000 -2.350000
v 3.205000 0.440000 -2.430000
v 3.125000 0.360000 -2.430000
v 3.205000 0.000000 -3.170000
v 3.125000 0.080000 -3.170000
v 3.205000 0.080000 -3.250000
v 3.205000 0.440000 -3.170000
v 3.205000 0.360000 -3.250000
v 3.125000 0.360000 -3.170000
v 3.495000 0.000000 -2.430000
v 3.575000 0.080000 -2.430000
v 3.495000 0.080000 -2.350000
v 3.495000 0.440000 -2.430000
v 3.495000 0.360000 -2.350000
v 3.575000 0.360000 -2.430000
v 3.495000 0.000000 -3.170000
v 3.495000 0.080000 -3.250000
v 3.575000 0.080000 -3.170000
v 3.495000 0.440000 -3.170000
v 3.575000 0.360000 -3.170000
v 3.495000 0.360000 -3.250000
v 1.365000 0.050000 -0.840000
v 1.365000 0.190000 -0.700000
v 1.225000 0.190000 -0.840000
v 1.365000 1.810000 -0.700000
v 1.365000 1.950000 -0.840000
v 1.225000 1.810000 -0.840000
v 1.365000 0.050000 -1.560000
v 1.225000 0.190000 -1.560000
v 1.365000 0.190000 -1.700000
v 1.365000 1.950000 -1.560000
v 1.365000 1.810000 -1.700000
v 1.225000 1.810000 -1.560000
v 2.035000 0.050000 -0.840000
v 2.175000 0.190000 -0.840000
v 2.035000 0.190000 -0.700000
v 2.035000 1.950000 -0.840000
v 2.035000 1.810000 -0.700000
v 2.175000 1.810000 -0.840000
v 2.035000 0.050000 -1.560000
v 2.035000 0.190000 -1.700000
v 2.175000 0.190000 -1.560000
v 2.035000 1.950000 -1.560000
v 2.175000 1.810000 -1.560000
v 2.035000 1.810000 -1.700000
v 1.150000 0.000000 -1.350000
v 1.150000 0.100000 -1.250000
v 1.050000 0.100000 -1.350000
v 1.150000 0.400000 -1.250000
v 1.150000 0.500000 -1.350000
v 1.050000 0.400000 -1.350000
v 1.150000 0.000000 -2.850000
v 1.050000 0.100000 -2.850000
v 1.150000 0.100000 -2.950000
v 1.150000 0.500000 -2.850000
v 1.150000 0.400000 -2.950000
v 1.050000 0.400000 -2.850000
v 2.350000 0.000000 -1.350000
v 2.450000 0.100000 -1.350000
v 2.350000 0.100000 -1.250000
v 2.350000 0.500000 -1.350000
v 2.350000 0.400000 -1.250000
v 2.450000 0.400000 -1.350000
v 2.350000 0.000000 -2.850000
v 2.350000 0.100000 -2.950000
v 2.450000 0.100000 -2.850000
v 2.350000 0.500000 -2.850000
v 2.450000 0.400000 -2.850000
v 2.350000 0.400000 -2.950000
v 1.240000 0.000000 -2.760000
v 1.240000 0.060000 -2.700000
v 1.180000 0.060000 -2.760000
v 1.240000 0.340000 -2.700000
v 1.240000 0.400000 -2.760000
v 1.180000 0.340000 -2.760000
v 1.240000 0.000000 -3.340000
v 1.180000 0.060000 -3.340000
v 1.240000 0.060000 -3.400000
v 1.240000 0.400000 -3.340000
v 1.240000 0.340000 -3.400000
v 1.180000 0.340000 -3.340000
v 1.460000 0.000000 -2.760000
v 1.520000 0.060000 -2.760000
v 1.460000 0.060000 -2.700000
v 1.460000 0.400000 -2.760000
v 1.460000 0.340000 -2.700000
v 1.520000 0.340000 -2.760000
v 1.460000 0.000000 -3.340000
v 1.460000 0.060000 -3.400000
v 1.520000 0.060000 -3.340000
v 1.460000 0.400000 -3.340000
v 1.520000 0.340000 -3.340000
v 1.460000 0.340000 -3.400000
v 1.640000 0.000000 -2.760000
v 1.640000 0.060000 -2.700000
v 1.580000 0.060000 -2.760000
v 1.640000 0.340000 -2.700000
v 1.640000 0.400000 -2.760000
v 1.580000 0.340000 -2.760000
v 1.640000 0.000000 -3.340000
v 1.580000 0.060000 -3.340000
v 1.640000 0.060000 -3.400000
v 1.640000 0.400000 -3.340000
v 1.640000 0.340000 -3.400000
v 1.580000 0.340000 -3.340000
v 1.860000 0.000000 -2.760000
v 1.920000 0.060000 -2.760000
v 1.860000 0.060000 -2.700000
v 1.860000 0.400000 -2.760000
v 1.860000 0.340000 -2.700000
v 1.920000 0.340000 -2.760000
v 1.860000 0.000000 -3.340000
v 1.860000 0.060000 -3.400000
v 1.920000 0.060000 -3.340000
v 1.860000 0.400000 -3.340000
v 1.920000 0.340000 -3.340000
v 1.860000 0.340000 -3.400000
v 2.040000 0.000000 -2.760000
v 2.040000 0.060000 -2.700000
v 1.980000 0.060000 -2.760000
v 2.040000 0.340000 -2.700000
v 2.040000 0.400000 -2.760000
v 1.980000 0.340000 -2.760000
v 2.040000 0.000000 -3.340000
v 1.980000 0.060000 -3.340000
v 2.040000 0.060000 -3.400000
v 2.040000 0.400000 -3.340000
v 2.040000 0.340000 -3.400000
v 1.980000 0.340000 -3.340000
v 2.260000 0.000000 -2.760000
v 2.320000 0.060000 -2.760000
v 2.260000 0.060000 -2.700000
v 2.260000 0.400000 -2.760000
v 2.260000 0.340000 -2.700000
v 2.320000 0.340000 -2.760000
v 2.260000 0.000000 -3.340000
v 2.260000 0.060000 -3.400000
v 2.320000 0.060000 -3.340000
v 2.260000 0.400000 -3.340000
v 2.320000 0.340000 -3.340000
v 2.260000 0.340000 -3.400000
v -1.835000 3.300000 -2.230000
v -1.835000 3.340000 -2.190000
v -1.875000 3.340000 -2.230000
v -1.835000 4.260000 -2.190000
v -1.835000 4.300000 -2.230000
v -1.875000 4.260000 -2.230000
v -1.835000 3.300000 -2.330000
v -1.875000 3.340000 -2.330000
v -1.835000 3.340000 -2.370000
v -1.835000 4.300000 -2.330000
v -1.835000 4.260000 -2.370000
v -1.875000 4.260000 -2.330000
v -0.865000 3.300000 -2.230000
v -0.825000 3.340000 -2.230000
v -0.865000 3.340000 -2.190000
v -0.865000 4.300000 -2.230000
v -0.865000 4.260000 -2.190000
v -0.825000 4.260000 -2.230000
v -0.865000 3.300000 -2.330000
v -0.865000 3.340000 -2.370000
v -0.825000 3.340000 -2.330000
v -0.865000 4.300000 -2.330000
v -0.825000 4.260000 -2.330000
v -0.865000 4.260000 -2.370000
v -1.585000 3.405000 -2.320000
v -1.585000 3.445000 -2.280000
v -1.625000 3.445000 -2.320000
v -1.585000 4.115000 -2.280000
v -1.585000 4.155000 -2.320000
v -1.625000 4.115000 -2.320000
v -1.585000 3.405000 -2.440000
v -1.625000 3.445000 -2.440000
v -1.585000 3.445000 -2.480000
v -1.585000 4.155000 -2.440000
v -1.585000 4.115000 -2.480000
v -1.625000 4.115000 -2.440000
v -1.115000 3.405000 -2.320000
v -1.075000 3.445000 -2.320000
v -1.115000 3.445000 -2.280000
v -1.115000 4.155000 -2.320000
v -1.115000 4.115000 -2.280000
v -1.075000 4.115000 -2.320000
v -1.115000 3.405000 -2.440000
v -1.115000 3.445000 -2.480000
v -1.075000 3.445000 -2.440000
v -1.115000 4.155000 -2.440000
v -1.075000 4.115000 -2.440000
v -1.115000 4.115000 -2.480000
v -1.300000 3.950000 -2.440000
v -1.300000 4.150000 -2.440000
v -1.300000 3.950000 -2.560000
v -1.300000 4.150000 -2.560000
v -1.100000 3.950000 -2.440000
v -1.100000 4.150000 -2.440000
v -1.100000 3.950000 -2.560000
v -1.100000 4.150000 -2.560000
v 0.865000 3.300000 -2.230000
v 0.865000 3.340000 -2.190000
v 0.825000 3.340000 -2.230000
v 0.865000 4.260000 -2.190000
v 0.865000 4.300000 -2.230000
v 0.825000 4.260000 -2.230000
v 0.865000 3.300000 -2.330000
v 0.825000 3.340000 -2.330000
v 0.865000 3.340000 -2.370000
v 0.865000 4.300000 -2.330000
v 0.865000 4.260000 -2.370000
v 0.825000 4.260000 -2.330000
v 1.835000 3.300000 -2.230000
v 1.875000 3.340000 -2.230000
v 1.835000 3.340000 -2.190000
v 1.835000 4.300000 -2.230000
v 1.835000 4.260000 -2.190000
v 1.875000 4.260000 -2.230000
v 1.835000 3.300000 -2.330000
v 1.835000 3.340000 -2.370000
v 1.875000 3.340000 -2.330000
v 1.835000 4.300000 -2.330000
v 1.875000 4.260000 -2.330000
v 1.835000 4.260000 -2.370000
v 1.115000 3.405000 -2.320000
v 1.115000 3.445000 -2.280000
v 1.075000 3.445000 -2.320000
v 1.115000 4.115000 -2.280000
v 1.115000 4.155000 -2.320000
v 1.075000 4.115000 -2.320000
v 1.115000 3.405000 -2.440000
v 1.075000 3.445000 -2.440000
v 1.115000 3.445000 -2.480000
v 1.115000 4.155000 -2.440000
v 1.115000 4.115000 -2.480000
v 1.075000 4.115000 -2.440000
v 1.585000 3.405000 -2.320000
v 1.625000 3.445000 -2.320000
v 1.585000 3.445000 -2.280000
v 1.585000 4.155000 -2.320000
v 1.585000 4.115000 -2.280000
v 1.625000 4.115000 -2.320000
v 1.585000 3.405000 -2.440000
v 1.585000 3.445000 -2.480000
v 1.625000 3.445000 -2.440000
v 1.585000 4.155000 -2.440000
v 1.625000 4.115000 -2.440000
v 1.585000 4.115000 -2.480000
v 1.100000 3.950000 -2.440000
v 1.100000 4.150000 -2.440000
v 1.100000 3.950000 -2.560000
v 1.100000 4.150000 -2.560000
v 1.300000 3.950000 -2.440000
v 1.300000 4.150000 -2.440000
v 1.300000 3.950000 -2.560000
v 1.300000 4.150000 -2.560000
v -1.275000 3.530000 1.575000
v -1.275000 3.580000 1.625000
v -1.325000 3.580000 1.575000
v -1.275000 3.660000 1.625000
v -1.275000 3.710000 1.575000
v -1.325000 3.660000 1.575000
v -1.275000 3.530000 0.825000
v -1.325000 3.580000 0.825000
v -1.275000 3.580000 0.775000
v -1.275000 3.710000 0.825000
v -1.275000 3.660000 0.775000
v -1.325000 3.660000 0.825000
v -0.525000 3.530000 1.575000
v -0.475000 3.580000 1.575000
v -0.525000 3.580000 1.625000
v -0.525000 3.710000 1.575000
v -0.525000 3.660000 1.625000
v -0.475000 3.660000 1.575000
v -0.525000 3.530000 0.825000
v -0.525000 3.580000 0.775000
v -0.475000 3.580000 0.825000
v -0.525000 3.710000 0.825000
v -0.475000 3.660000 0.825000
v -0.525000 3.660000 0.775000
v 0.625000 3.530000 0.975000
v 0.625000 3.580000 1.025000
v 0.575000 3.580000 0.975000
v 0.625000 3.660000 1.025000
v 0.625000 3.710000 0.975000
v 0.575000 3.660000 0.975000
v 0.625000 3.530000 0.225000
v 0.575000 3.580000 0.225000
v 0.625000 3.580000 0.175000
v 0.625000 3.710000 0.225000
v 0.625000 3.660000 0.175000
v 0.575000 3.660000 0.225000
v 1.375000 3.530000 0.975000
v 1.425000 3.580000 0.975000
v 1.375000 3.580000 1.025000
v 1.375000 3.710000 0.975000
v 1.375000 3.660000 1.025000
v 1.425000 3.660000 0.975000
v 1.375000 3.530000 0.225000
v 1.375000 3.580000 0.175000
v 1.425000 3.580000 0.225000
v 1.375000 3.710000 0.225000
v 1.425000 3.660000 0.225000
v 1.375000 3.660000 0.175000
v -0.275000 3.530000 2.275000
v -0.275000 3.580000 2.325000
v -0.325000 3.580000 2.275000
v -0.275000 3.660000 2.325000
v -0.275000 3.710000 2.275000
v -0.325000 3.660000 2.275000
v -0.275000 3.530000 1.525000
v -0.325000 3.580000 1.525000
v -0.275000 3.580000 1.475000
v -0.275000 3.710000 1.525000
v -0.275000 3.660000 1.475000
v -0.325000 3.660000 1.525000
v 0.475000 3.530000 2.275000
v 0.525000 3.580000 2.275000
v 0.475000 3.580000 2.325000
v 0.475000 3.710000 2.275000
v 0.475000 3.660000 2.325000
v 0.525000 3.660000 2.275000
v 0.475000 3.530000 1.525000
v 0.475000 3.580000 1.475000
v 0.525000 3.580000 1.525000
v 0.475000 3.710000 1.525000
v 0.525000 3.660000 1.525000
v 0.475000 3.660000 1.475000
v -0.675000 3.530000 -0.125000
v -0.675000 3.580000 -0.075000
v -0.725000 3.580000 -0.125000
v -0.675000 3.660000 -0.075000
v -0.675000 3.710000 -0.125000
v -0.725000 3.660000 -0.125000
v -0.675000 3.530000 -0.875000
v -0.725000 3.580000 -0.875000
v -0.675000 3.580000 -0.925000
v -0.675000 3.710000 -0.875000
v -0.675000 3.660000 -0.925000
v -0.725000 3.660000 -0.875000
v 0.075000 3.530000 -0.125000
v 0.125000 3.580000 -0.125000
v 0.075000 3.580000 -0.075000
v 0.075000 3.710000 -0.125000
v 0.075000 3.660000 -0.075000
v 0.125000 3.660000 -0.125000
v 0.075000 3.530000 -0.875000
v 0.075000 3.580000 -0.925000
v 0.125000 3.580000 -0.875000
v 0.075000 3.710000 -0.875000
v 0.125000 3.660000 -0.875000
v 0.075000 3.660000 -0.925000
v 0.925000 3.530000 2.275000
v 0.925000 3.580000 2.325000
v 0.875000 3.580000 2.275000
v 0.925000 3.660000 2.325000
v 0.925000 3.710000 2.275000
v 0.875000 3.660000 2.275000
v 0.925000 3.530000 1.525000
v 0.875000 3.580000 1.525000
v 0.925000 3.580000 1.475000
v 0.925000 3.710000 1.525000
v 0.925000 3.660000 1.475000
v 0.875000 3.660000 1.525000
v 1.675000 3.530000 2.275000
v 1.725000 3.580000 2.275000
v 1.675000 3.580000 2.325000
v 1.675000 3.710000 2.275000
v 1.675000 3.660000 2.325000
v 1.725000 3.660000 2.275000
v 1.675000 3.530000 1.525000
v 1.675000 3.580000 1.475000
v 1.725000 3.580000 1.525000
v 1.675000 3.710000 1.525000
v 1.725000 3.660000 1.525000
v 1.675000 3.660000 1.475000
vn -0.5773 -0.5774 0.5773
vn -0.5774 0.5774 0.5773
vn -0.5774 -0.5774 -0.5774
vn -0.5774 0.5773 -0.5774
vn 0.5773 -0.5774 0.5773
vn 0.5774 0.5774 0.5773
vn 0.5774 -0.5774 -0.5774
vn 0.5774 0.5773 -0.5774
vn -0.7071 -0.7071 -0.0000
vn -0.7071 -0.0000 0.7071
vn -0.7071 0.7071 -0.0000
vn -0.7071 -0.0000 -0.7071
vn -0.0000 -0.7071 -0.7071
vn -0.0000 0.7071 -0.7071
vn 0.7071 -0.0000 -0.7071
vn 0.7071 -0.7071 -0.0000
vn 0.7071 0.7071 -0.0000
vn 0.7071 -0.0000 0.7071
vn -0.0000 -0.7071 0.7071
vn -0.0000 0.7071 0.7071
vn -0.0000 -1.0000 -0.0000
vn -1.0000 -0.0000 -0.0000
vn -0.0000 -0.0000 1.0000
vn -0.0000 1.0000 -0.0000
vn -0.0000 -0.0000 -1.0000
vn 1.0000 -0.0000 -0.0000
vn -0.5773 -0.5773 0.5774
vn -0.5773 0.5773 0.5774
vn -0.5773 -0.5773 -0.5774
vn -0.5773 0.5773 -0.5774
vn 0.5773 -0.5773 0.5774
vn 0.5773 0.5773 0.5774
vn 0.5773 -0.5773 -0.5774
vn 0.5773 0.5773 -0.5774
vn -0.5774 -0.5774 0.5773
vn -0.5774 0.5773 0.5773
vn -0.5774 0.5773 -0.5773
vn 0.5774 -0.5774 0.5773
vn 0.5774 0.5773 0.5773
vn 0.5774 0.5773 -0.5773
vn -0.5774 -0.5774 0.5774
vn -0.5774 0.5773 0.5774
vn 0.5773 -0.5774 0.5774
vn 0.5774 0.5773 0.5774
vn 0.5773 -0.5774 -0.5774
vn -0.5774 0.5774 0.5774
vn -0.5774 0.5774 -0.5774
vn 0.5774 -0.5774 0.5774
vn 0.5774 0.5774 0.5774
vn 0.5774 0.5774 -0.5774
vn -0.5773 0.5774 0.5774
vn 0.5773 0.5774 0.5774
vn -0.4914 -0.5773 0.6521
vn -0.4914 0.5773 0.6521
vn -0.6521 -0.5774 -0.4914
vn -0.6521 0.5774 -0.4914
vn 0.6521 -0.5774 0.4914
vn 0.6521 0.5774 0.4914
vn 0.4914 -0.5774 -0.6521
vn 0.4914 0.5773 -0.6521
vn -0.7002 -0.7071 0.0984
vn -0.6018 -0.0000 0.7986
vn -0.7002 0.7071 0.0984
vn -0.7986 -0.0000 -0.6018
vn -0.0984 -0.7071 -0.7002
vn -0.0984 0.7071 -0.7002
vn 0.6018 -0.0000 -0.7986
vn 0.7002 -0.7071 -0.0984
vn 0.7002 0.7071 -0.0984
vn 0.7986 -0.0000 0.6018
vn 0.0984 -0.7071 0.7002
vn 0.0984 0.7071 0.7002
vn -0.9903 -0.0000 0.1392
vn 0.1392 -0.0000 0.9903
vn -0.1392 -0.0000 -0.9903
vn 0.9903 -0.0000 -0.1392
vn -0.5774 -0.5773 -0.5774
vn 0.5773 0.5774 0.5773
vn 0.5774 -0.5774 -0.5773
vn 0.5774 -0.5773 -0.5774
vn -0.5773 -0.5774 0.5774
vn -0.5773 -0.5774 -0.5774
vn 0.5774 0.5774 -0.5773
vn -0.5774 -0.5773 0.5774
vn 0.5774 -0.5773 0.5774
vn -0.5773 0.5774 -0.5774
vn 0.5773 0.5774 -0.5774
vn -0.5774 0.5774 -0.5773
vn -0.6521 -0.5774 0.4914
vn -0.6521 0.5774 0.4914
vn -0.4914 -0.5774 -0.6521
vn -0.4914 0.5773 -0.6521
vn 0.4914 -0.5773 0.6521
vn 0.4914 0.5773 0.6521
vn 0.6521 -0.5774 -0.4914
vn 0.6521 0.5773 -0.4914
vn -0.7002 -0.7071 -0.0984
vn -0.7986 -0.0000 0.6018
vn -0.7002 0.7071 -0.0984
vn -0.6018 -0.0000 -0.7986
vn 0.0984 -0.7071 -0.7002
vn 0.0984 0.7071 -0.7002
vn 0.7986 -0.0000 -0.6018
vn 0.7002 -0.7071 0.0984
vn 0.7002 0.7071 0.0984
vn 0.6018 -0.0000 0.7986
vn -0.0984 -0.7071 0.7002
vn -0.0984 0.7071 0.7002
vn -0.9903 -0.0000 -0.1392
vn -0.1392 -0.0000 0.9903
vn 0.1392 -0.0000 -0.9903
vn 0.9903 -0.0000 0.1392
vn 0.5774 -0.5773 -0.5773
vn -0.5774 -0.5774 -0.5773
vn -0.5774 -0.5773 -0.5773
vn -0.5773 0.5774 0.5773
vn -0.5774 -0.5773 0.5773
vn 0.5774 -0.5773 0.5773
s 0
usemtl Frog_black
f 785//41 786//41 787//41
f 788//46 789//46 790//46
f 791//3 792//3 793//3
f 794//47 795//47 796//47
f 797//48 798//48 799//48
f 800//49 801//49 802//49
f 803//7 804//7 805//7
f 806//50 807//50 808//50
f 785//9 792//9 791//9
f 788//10 787//10 786//10
f 794//11 790//11 789//11
f 793//12 796//12 795//12
f 791//13 804//13 803//13
f 806//14 795//14 794//14
f 805//15 808//15 807//15
f 803//16 798//16 797//16
f 800//17 807//17 806//17
f 799//18 802//18 801//18
f 797//19 786//19 785//19
f 789//20 801//20 800//20
f 803//21 785//21 791//21
f 790//22 792//22 787//22
f 801//23 786//23 799//23
f 794//24 800//24 806//24
f 795//25 804//25 793//25
f 807//26 798//26 805//26
f 841//41 842//41 843//41
f 844//46 845//46 846//46
f 847//3 848//3 849//3
f 850//47 851//47 852//47
f 853//48 854//48 855//48
f 856//49 857//49 858//49
f 859//7 860//7 861//7
f 862//50 863//50 864//50
f 841//9 848//9 847//9
f 844//10 843//10 842//10
f 850//11 846//11 845//11
f 849//12 852//12 851//12
f 847//13 860//13 859//13
f 862//14 851//14 850//14
f 861//15 864//15 863//15
f 859//16 854//16 853//16
f 856//17 863//17 862//17
f 855//18 858//18 857//18
f 853//19 842//19 841//19
f 845//20 857//20 856//20
f 859//21 841//21 847//21
f 846//22 848//22 843//22
f 857//23 842//23 855//23
f 850//24 856//24 862//24
f 851//25 860//25 849//25
f 863//26 854//26 861//26
f 785//9 787//9 792//9
f 788//10 790//10 787//10
f 794//11 796//11 790//11
f 793//12 792//12 796//12
f 791//13 793//13 804//13
f 806//14 808//14 795//14
f 805//15 804//15 808//15
f 803//16 805//16 798//16
f 800//17 802//17 807//17
f 799//18 798//18 802//18
f 797//19 799//19 786//19
f 789//20 788//20 801//20
f 803//21 797//21 785//21
f 790//22 796//22 792//22
f 801//23 788//23 786//23
f 794//24 789//24 800//24
f 795//25 808//25 804//25
f 807//26 802//26 798//26
f 841//9 843//9 848//9
f 844//10 846//10 843//10
f 850//11 852//11 846//11
f 849//12 848//12 852//12
f 847//13 849//13 860//13
f 862//14 864//14 851//14
f 861//15 860//15 864//15
f 859//16 861//16 854//16
f 856//17 858//17 863//17
f 855//18 854//18 858//18
f 853//19 855//19 842//19
f 845//20 844//20 857//20
f 859//21 853//21 841//21
f 846//22 852//22 848//22
f 857//23 844//23 842//23
f 850//24 845//24 856//24
f 851//25 864//25 860//25
f 863//26 858//26 854//26
usemtl Frog_white
f 106//22 107//22 105//22
f 108//25 111//25 107//25
f 112//26 109//26 111//26
f 110//23 105//23 109//23
f 111//21 105//21 107//21
f 108//24 110//24 112//24
f 434//22 435//22 433//22
f 436//25 439//25 435//25
f 440//26 437//26 439//26
f 438//23 433//23 437//23
f 439//21 433//21 435//21
f 436//24 438//24 440//24
f 761//41 762//41 763//41
f 764//46 765//46 766//46
f 767//3 768//3 769//3
f 770//47 771//47 772//47
f 773//31 774//31 775//31
f 776//32 777//32 778//32
f 779//33 780//33 781//33
f 782//34 783//34 784//34
f 761//9 768//9 767//9
f 764//10 763//10 762//10
f 770//11 766//11 765//11
f 769//12 772//12 771//12
f 767//13 780//13 779//13
f 782//14 771//14 770//14
f 781//15 784//15 783//15
f 779//16 774//16 773//16
f 776//17 783//17 782//17
f 775//18 778//18 777//18
f 773//19 762//19 761//19
f 765//20 777//20 776//20
f 779//21 761//21 767//21
f 766//22 768//22 763//22
f 777//23 762//23 775//23
f 770//24 776//24 782//24
f 771//25 780//25 769//25
f 783//26 774//26 781//26
f 810//22 811//22 809//22
f 812//25 815//25 811//25
f 816//26 813//26 815//26
f 814//23 809//23 813//23
f 815//21 809//21 811//21
f 812//24 814//24 816//24
f 817//27 818//27 819//27
f 820//28 821//28 822//28
f 823//29 824//29 825//29
f 826//30 827//30 828//30
f 829//48 830//48 831//48
f 832//49 833//49 834//49
f 835//7 836//7 837//7
f 838//50 839//50 840//50
f 817//9 824//9 823//9
f 820//10 819//10 818//10
f 826//11 822//11 821//11
f 825//12 828//12 827//12
f 823//13 836//13 835//13
f 838//14 827//14 826//14
f 837//15 840//15 839//15
f 835//16 830//16 829//16
f 832//17 839//17 838//17
f 831//18 834//18 833//18
f 829//19 818//19 817//19
f 821//20 833//20 832//20
f 835//21 817//21 823//21
f 822//22 824//22 819//22
f 833//23 818//23 831//23
f 826//24 832//24 838//24
f 827//25 836//25 825//25
f 839//26 830//26 837//26
f 866//22 867//22 865//22
f 868//25 871//25 867//25
f 872//26 869//26 871//26
f 870//23 865//23 869//23
f 871//21 865//21 867//21
f 868//24 870//24 872//24
f 106//22 108//22 107//22
f 108//25 112//25 111//25
f 112//26 110//26 109//26
f 110//23 106//23 105//23
f 111//21 109//21 105//21
f 108//24 106//24 110//24
f 434//22 436//22 435//22
f 436//25 440//25 439//25
f 440//26 438//26 437//26
f 438//23 434//23 433//23
f 439//21 437//21 433//21
f 436//24 434//24 438//24
f 761//9 763//9 768//9
f 764//10 766//10 763//10
f 770//11 772//11 766//11
f 769//12 768//12 772//12
f 767//13 769//13 780//13
f 782//14 784//14 771//14
f 781//15 780//15 784//15
f 779//16 781//16 774//16
f 776//17 778//17 783//17
f 775//18 774//18 778//18
f 773//19 775//19 762//19
f 765//20 764//20 777//20
f 779//21 773//21 761//21
f 766//22 772//22 768//22
f 777//23 764//23 762//23
f 770//24 765//24 776//24
f 771//25 784//25 780//25
f 783//26 778//26 774//26
f 810//22 812//22 811//22
f 812//25 816//25 815//25
f 816//26 814//26 813//26
f 814//23 810//23 809//23
f 815//21 813//21 809//21
f 812//24 810//24 814//24
f 817//9 819//9 824//9
f 820//10 822//10 819//10
f 826//11 828//11 822//11
f 825//12 824//12 828//12
f 823//13 825//13 836//13
f 838//14 840//14 827//14
f 837//15 836//15 840//15
f 835//16 837//16 830//16
f 832//17 834//17 839//17
f 831//18 830//18 834//18
f 829//19 831//19 818//19
f 821//20 820//20 833//20
f 835//21 829//21 817//21
f 822//22 828//22 824//22
f 833//23 820//23 818//23
f 826//24 821//24 832//24
f 827//25 840//25 836//25
f 839//26 834//26 830//26
f 866//22 868//22 867//22
f 868//25 872//25 871//25
f 872//26 870//26 869//26
f 870//23 866//23 865//23
f 871//21 869//21 865//21
f 868//24 866//24 870//24
usemtl Frog_pink
f 121//41 122//41 123//41
f 124//46 125//46 126//46
f 127//3 128//3 129//3
f 130//47 131//47 132//47
f 133//48 134//48 135//48
f 136//49 137//49 138//49
f 139//7 140//7 141//7
f 142//50 143//50 144//50
f 121//9 128//9 127//9
f 124//10 123//10 122//10
f 130//11 126//11 125//11
f 129//12 132//12 131//12
f 127//13 140//13 139//13
f 142//14 131//14 130//14
f 141//15 144//15 143//15
f 139//16 134//16 133//16
f 136//17 143//17 142//17
f 135//18 138//18 137//18
f 133//19 122//19 121//19
f 125//20 137//20 136//20
f 139//21 121//21 127//21
f 126//22 128//22 123//22
f 137//23 122//23 135//23
f 130//24 136//24 142//24
f 131//25 140//25 129//25
f 143//26 134//26 141//26
f 449//41 450//41 451//41
f 452//46 453//46 454//46
f 455//3 456//3 457//3
f 458//47 459//47 460//47
f 461//48 462//48 463//48
f 464//49 465//49 466//49
f 467//7 468//7 469//7
f 470//50 471//50 472//50
f 449//9 456//9 455//9
f 452//10 451//10 450//10
f 458//11 454//11 453//11
f 457//12 460//12 459//12
f 455//13 468//13 467//13
f 470//14 459//14 458//14
f 469//15 472//15 471//15
f 467//16 462//16 461//16
f 464//17 471//17 470//17
f 463//18 466//18 465//18
f 461//19 450//19 449//19
f 453//20 465//20 464//20
f 467//21 449//21 455//21
f 454//22 456//22 451//22
f 465//23 450//23 463//23
f 458//24 464//24 470//24
f 459//25 468//25 457//25
f 471//26 462//26 469//26
f 121//9 123//9 128//9
f 124//10 126//10 123//10
f 130//11 132//11 126//11
f 129//12 128//12 132//12
f 127//13 129//13 140//13
f 142//14 144//14 131//14
f 141//15 140//15 144//15
f 139//16 141//16 134//16
f 136//17 138//17 143//17
f 135//18 134//18 138//18
f 133//19 135//19 122//19
f 125//20 124//20 137//20
f 139//21 133//21 121//21
f 126//22 132//22 128//22
f 137//23 124//23 122//23
f 130//24 125//24 136//24
f 131//25 144//25 140//25
f 143//26 138//26 134//26
f 449//9 451//9 456//9
f 452//10 454//10 451//10
f 458//11 460//11 454//11
f 457//12 456//12 460//12
f 455//13 457//13 468//13
f 470//14 472//14 459//14
f 469//15 468//15 472//15
f 467//16 469//16 462//16
f 464//17 466//17 471//17
f 463//18 462//18 466//18
f 461//19 463//19 450//19
f 453//20 452//20 465//20
f 467//21 461//21 449//21
f 454//22 460//22 456//22
f 465//23 452//23 450//23
f 458//24 453//24 464//24
f 459//25 472//25 468//25
f 471//26 466//26 462//26
usemtl Frog_skin
f 1//1 2//1 3//1
f 4//2 5//2 6//2
f 7//3 8//3 9//3
f 10//4 11//4 12//4
f 13//5 14//5 15//5
f 16//6 17//6 18//6
f 19//7 20//7 21//7
f 22//8 23//8 24//8
f 1//9 8//9 7//9
f 4//10 3//10 2//10
f 10//11 6//11 5//11
f 9//12 12//12 11//12
f 7//13 20//13 19//13
f 22//14 11//14 10//14
f 21//15 24//15 23//15
f 19//16 14//16 13//16
f 16//17 23//17 22//17
f 15//18 18//18 17//18
f 13//19 2//19 1//19
f 5//20 17//20 16//20
f 19//21 1//21 7//21
f 6//22 8//22 3//22
f 17//23 2//23 15//23
f 10//24 16//24 22//24
f 11//25 20//25 9//25
f 23//26 14//26 21//26
f 49//35 50//35 51//35
f 52//36 53//36 54//36
f 55//3 56//3 57//3
f 58//37 59//37 60//37
f 61//38 62//38 63//38
f 64//39 65//39 66//39
f 67//7 68//7 69//7
f 70//40 71//40 72//40
f 49//9 56//9 55//9
f 52//10 51//10 50//10
f 58//11 54//11 53//11
f 57//12 60//12 59//12
f 55//13 68//13 67//13
f 70//14 59//14 58//14
f 69//15 72//15 71//15
f 67//16 62//16 61//16
f 64//17 71//17 70//17
f 63//18 66//18 65//18
f 61//19 50//19 49//19
f 53//20 65//20 64//20
f 67//21 49//21 55//21
f 54//22 56//22 51//22
f 65//23 50//23 63//23
f 58//24 64//24 70//24
f 59//25 68//25 57//25
f 71//26 62//26 69//26
f 145//41 146//41 147//41
f 148//51 149//51 150//51
f 151//3 152//3 153//3
f 154//37 155//37 156//37
f 157//43 158//43 159//43
f 160//52 161//52 162//52
f 163//45 164//45 165//45
f 166//8 167//8 168//8
f 145//9 152//9 151//9
f 148//10 147//10 146//10
f 154//11 150//11 149//11
f 153//12 156//12 155//12
f 151//13 164//13 163//13
f 166//14 155//14 154//14
f 165//15 168//15 167//15
f 163//16 158//16 157//16
f 160//17 167//17 166//17
f 159//18 162//18 161//18
f 157//19 146//19 145//19
f 149//20 161//20 160//20
f 163//21 145//21 151//21
f 150//22 152//22 147//22
f 161//23 146//23 159//23
f 154//24 160//24 166//24
f 155//25 164//25 153//25
f 167//26 158//26 165//26
f 169//53 170//53 171//53
f 172//54 173//54 174//54
f 175//55 176//55 177//55
f 178//56 179//56 180//56
f 181//57 182//57 183//57
f 184//58 185//58 186//58
f 187//59 188//59 189//59
f 190//60 191//60 192//60
f 175//61 171//61 176//61
f 172//62 171//62 170//62
f 178//63 174//63 173//63
f 177//64 180//64 179//64
f 175//65 188//65 187//65
f 178//66 192//66 179//66
f 189//67 192//67 191//67
f 187//68 182//68 181//68
f 190//69 186//69 191//69
f 183//70 186//70 185//70
f 181//71 170//71 169//71
f 173//72 185//72 184//72
f 175//21 181//21 169//21
f 174//73 176//73 171//73
f 185//74 170//74 183//74
f 178//24 184//24 190//24
f 179//75 188//75 177//75
f 191//76 182//76 189//76
f 313//81 314//81 315//81
f 316//42 317//42 318//42
f 319//82 320//82 321//82
f 322//47 323//47 324//47
f 325//38 326//38 327//38
f 328//6 329//6 330//6
f 331//79 332//79 333//79
f 334//83 335//83 336//83
f 313//9 320//9 319//9
f 316//10 315//10 314//10
f 322//11 318//11 317//11
f 323//12 320//12 324//12
f 319//13 332//13 331//13
f 334//14 323//14 322//14
f 333//15 336//15 335//15
f 331//16 326//16 325//16
f 328//17 335//17 334//17
f 327//18 330//18 329//18
f 325//19 314//19 313//19
f 317//20 329//20 328//20
f 331//21 313//21 319//21
f 318//22 320//22 315//22
f 329//23 314//23 327//23
f 322//24 328//24 334//24
f 323//25 332//25 321//25
f 335//26 326//26 333//26
f 473//81 474//81 475//81
f 476//51 477//51 478//51
f 479//3 480//3 481//3
f 482//4 483//4 484//4
f 485//48 486//48 487//48
f 488//52 489//52 490//52
f 491//7 492//7 493//7
f 494//40 495//40 496//40
f 473//9 480//9 479//9
f 476//10 475//10 474//10
f 482//11 478//11 477//11
f 481//12 484//12 483//12
f 479//13 492//13 491//13
f 494//14 483//14 482//14
f 493//15 496//15 495//15
f 491//16 486//16 485//16
f 488//17 495//17 494//17
f 487//18 490//18 489//18
f 485//19 474//19 473//19
f 477//20 489//20 488//20
f 491//21 473//21 479//21
f 478//22 480//22 475//22
f 489//23 474//23 487//23
f 482//24 488//24 494//24
f 483//25 492//25 481//25
f 495//26 486//26 493//26
f 497//89 498//89 499//89
f 500//90 501//90 502//90
f 503//91 504//91 505//91
f 506//92 507//92 508//92
f 509//93 510//93 511//93
f 512//94 513//94 514//94
f 515//95 516//95 517//95
f 518//96 519//96 520//96
f 503//97 499//97 504//97
f 500//98 499//98 498//98
f 501//99 508//99 502//99
f 505//100 508//100 507//100
f 515//101 505//101 516//101
f 518//102 507//102 506//102
f 517//103 520//103 519//103
f 515//104 510//104 509//104
f 518//105 514//105 519//105
f 511//106 514//106 513//106
f 509//107 498//107 497//107
f 501//108 513//108 512//108
f 515//21 497//21 503//21
f 502//109 504//109 499//109
f 513//110 498//110 511//110
f 518//24 501//24 512//24
f 507//111 516//111 505//111
f 519//112 510//112 517//112
f 641//35 642//35 643//35
f 644//2 645//2 646//2
f 647//114 648//114 649//114
f 650//88 651//88 652//88
f 653//43 654//43 655//43
f 656//44 657//44 658//44
f 659//45 660//45 661//45
f 662//50 663//50 664//50
f 641//9 648//9 647//9
f 644//10 643//10 642//10
f 650//11 646//11 645//11
f 649//12 652//12 651//12
f 647//13 660//13 659//13
f 662//14 651//14 650//14
f 661//15 664//15 663//15
f 659//16 654//16 653//16
f 656//17 663//17 662//17
f 657//18 654//18 658//18
f 653//19 642//19 641//19
f 645//20 657//20 656//20
f 659//21 641//21 647//21
f 646//22 648//22 643//22
f 657//23 642//23 655//23
f 650//24 656//24 662//24
f 651//25 660//25 649//25
f 663//26 654//26 661//26
f 1//9 3//9 8//9
f 4//10 6//10 3//10
f 10//11 12//11 6//11
f 9//12 8//12 12//12
f 7//13 9//13 20//13
f 22//14 24//14 11//14
f 21//15 20//15 24//15
f 19//16 21//16 14//16
f 16//17 18//17 23//17
f 15//18 14//18 18//18
f 13//19 15//19 2//19
f 5//20 4//20 17//20
f 19//21 13//21 1//21
f 6//22 12//22 8//22
f 17//23 4//23 2//23
f 10//24 5//24 16//24
f 11//25 24//25 20//25
f 23//26 18//26 14//26
f 49//9 51//9 56//9
f 52//10 54//10 51//10
f 58//11 60//11 54//11
f 57//12 56//12 60//12
f 55//13 57//13 68//13
f 70//14 72//14 59//14
f 69//15 68//15 72//15
f 67//16 69//16 62//16
f 64//17 66//17 71//17
f 63//18 62//18 66//18
f 61//19 63//19 50//19
f 53//20 52//20 65//20
f 67//21 61//21 49//21
f 54//22 60//22 56//22
f 65//23 52//23 50//23
f 58//24 53//24 64//24
f 59//25 72//25 68//25
f 71//26 66//26 62//26
f 145//9 147//9 152//9
f 148//10 150//10 147//10
f 154//11 156//11 150//11
f 153//12 152//12 156//12
f 151//13 153//13 164//13
f 166//14 168//14 155//14
f 165//15 164//15 168//15
f 163//16 165//16 158//16
f 160//17 162//17 167//17
f 159//18 158//18 162//18
f 157//19 159//19 146//19
f 149//20 148//20 161//20
f 163//21 157//21 145//21
f 150//22 156//22 152//22
f 161//23 148//23 146//23
f 154//24 149//24 160//24
f 155//25 168//25 164//25
f 167//26 162//26 158//26
f 175//61 169//61 171//61
f 172//62 174//62 171//62
f 178//63 180//63 174//63
f 177//64 176//64 180//64
f 175//65 177//65 188//65
f 178//66 190//66 192//66
f 189//67 188//67 192//67
f 187//68 189//68 182//68
f 190//69 184//69 186//69
f 183//70 182//70 186//70
f 181//71 183//71 170//71
f 173//72 172//72 185//72
f 175//21 187//21 181//21
f 174//73 180//73 176//73
f 185//74 172//74 170//74
f 178//24 173//24 184//24
f 179//75 192//75 188//75
f 191//76 186//76 182//76
f 313//9 315//9 320//9
f 316//10 318//10 315//10
f 322//11 324//11 318//11
f 323//12 321//12 320//12
f 319//13 321//13 332//13
f 334//14 336//14 323//14
f 333//15 332//15 336//15
f 331//16 333//16 326//16
f 328//17 330//17 335//17
f 327//18 326//18 330//18
f 325//19 327//19 314//19
f 317//20 316//20 329//20
f 331//21 325//21 313//21
f 318//22 324//22 320//22
f 329//23 316//23 314//23
f 322//24 317//24 328//24
f 323//25 336//25 332//25
f 335//26 330//26 326//26
f 473//9 475//9 480//9
f 476//10 478//10 475//10
f 482//11 484//11 478//11
f 481//12 480//12 484//12
f 479//13 481//13 492//13
f 494//14 496//14 483//14
f 493//15 492//15 496//15
f 491//16 493//16 486//16
f 488//17 490//17 495//17
f 487//18 486//18 490//18
f 485//19 487//19 474//19
f 477//20 476//20 489//20
f 491//21 485//21 473//21
f 478//22 484//22 480//22
f 489//23 476//23 474//23
f 482//24 477//24 488//24
f 483//25 496//25 492//25
f 495//26 490//26 486//26
f 503//97 497//97 499//97
f 500//98 502//98 499//98
f 501//99 506//99 508//99
f 505//100 504//100 508//100
f 515//101 503//101 505//101
f 518//102 520//102 507//102
f 517//103 516//103 520//103
f 515//104 517//104 510//104
f 518//105 512//105 514//105
f 511//106 510//106 514//106
f 509//107 511//107 498//107
f 501//108 500//108 513//108
f 515//21 509//21 497//21
f 502//109 508//109 504//109
f 513//110 500//110 498//110
f 518//24 506//24 501//24
f 507//111 520//111 516//111
f 519//112 514//112 510//112
f 641//9 643//9 648//9
f 644//10 646//10 643//10
f 650//11 652//11 646//11
f 649//12 648//12 652//12
f 647//13 649//13 660//13
f 662//14 664//14 651//14
f 661//15 660//15 664//15
f 659//16 661//16 654//16
f 656//17 658//17 663//17
f 657//18 655//18 654//18
f 653//19 655//19 642//19
f 645//20 644//20 657//20
f 659//21 653//21 641//21
f 646//22 652//22 648//22
f 657//23 644//23 642//23
f 650//24 645//24 656//24
f 651//25 664//25 660//25
f 663//26 658//26 654//26
usemtl Frog_dark
f 193//41 194//41 195//41
f 196//2 197//2 198//2
f 199//77 200//77 201//77
f 202//47 203//47 204//47
f 205//38 206//38 207//38
f 208//78 209//78 210//78
f 211//79 212//79 213//79
f 214//50 215//50 216//50
f 193//9 200//9 199//9
f 194//10 198//10 195//10
f 202//11 198//11 197//11
f 201//12 204//12 203//12
f 199//13 212//13 211//13
f 214//14 203//14 202//14
f 213//15 216//15 215//15
f 211//16 206//16 205//16
f 208//17 215//17 214//17
f 207//18 210//18 209//18
f 205//19 194//19 193//19
f 197//20 209//20 208//20
f 211//21 193//21 199//21
f 198//22 200//22 195//22
f 209//23 194//23 207//23
f 202//24 208//24 214//24
f 203//25 212//25 201//25
f 215//26 206//26 213//26
f 217//35 218//35 219//35
f 220//42 221//42 222//42
f 223//77 224//77 225//77
f 226//4 227//4 228//4
f 229//38 230//38 231//38
f 232//6 233//6 234//6
f 235//80 236//80 237//80
f 238//8 239//8 240//8
f 217//9 224//9 223//9
f 220//10 219//10 218//10
f 226//11 222//11 221//11
f 225//12 228//12 227//12
f 223//13 236//13 235//13
f 238//14 227//14 226//14
f 237//15 240//15 239//15
f 235//16 230//16 229//16
f 232//17 239//17 238//17
f 231//18 234//18 233//18
f 229//19 218//19 217//19
f 221//20 233//20 232//20
f 235//21 217//21 223//21
f 222//22 224//22 219//22
f 233//23 218//23 231//23
f 226//24 232//24 238//24
f 227//25 236//25 225//25
f 239//26 230//26 237//26
f 241//41 242//41 243//41
f 244//36 245//36 246//36
f 247//3 248//3 249//3
f 250//4 251//4 252//4
f 253//48 254//48 255//48
f 256//39 257//39 258//39
f 259//7 260//7 261//7
f 262//8 263//8 264//8
f 241//9 248//9 247//9
f 244//10 243//10 242//10
f 250//11 246//11 245//11
f 249//12 252//12 251//12
f 247//13 260//13 259//13
f 262//14 251//14 250//14
f 261//15 264//15 263//15
f 259//16 254//16 253//16
f 256//17 263//17 262//17
f 255//18 258//18 257//18
f 253//19 242//19 241//19
f 245//20 257//20 256//20
f 259//21 241//21 247//21
f 246//22 248//22 243//22
f 257//23 242//23 255//23
f 250//24 256//24 262//24
f 251//25 260//25 249//25
f 263//26 254//26 261//26
f 265//41 266//41 267//41
f 268//36 269//36 270//36
f 271//3 272//3 273//3
f 274//4 275//4 276//4
f 277//48 278//48 279//48
f 280//32 281//32 282//32
f 283//7 284//7 285//7
f 286//34 287//34 288//34
f 265//9 272//9 271//9
f 268//10 267//10 266//10
f 274//11 270//11 269//11
f 273//12 276//12 275//12
f 271//13 284//13 283//13
f 286//14 275//14 274//14
f 285//15 288//15 287//15
f 283//16 278//16 277//16
f 280//17 287//17 286//17
f 279//18 282//18 281//18
f 277//19 266//19 265//19
f 269//20 281//20 280//20
f 283//21 265//21 271//21
f 270//22 272//22 267//22
f 281//23 266//23 279//23
f 274//24 280//24 286//24
f 275//25 284//25 273//25
f 287//26 278//26 285//26
f 289//41 290//41 291//41
f 292//36 293//36 294//36
f 295//3 296//3 297//3
f 298//4 299//4 300//4
f 301//31 302//31 303//31
f 304//39 305//39 306//39
f 307//33 308//33 309//33
f 310//8 311//8 312//8
f 289//9 296//9 295//9
f 292//10 291//10 290//10
f 298//11 294//11 293//11
f 297//12 300//12 299//12
f 295//13 308//13 307//13
f 310//14 299//14 298//14
f 309//15 312//15 311//15
f 307//16 302//16 301//16
f 304//17 311//17 310//17
f 303//18 306//18 305//18
f 301//19 290//19 289//19
f 293//20 305//20 304//20
f 307//21 289//21 295//21
f 294//22 296//22 291//22
f 305//23 290//23 303//23
f 298//24 304//24 310//24
f 299//25 308//25 297//25
f 311//26 302//26 309//26
f 337//84 338//84 339//84
f 340//42 341//42 342//42
f 343//3 344//3 345//3
f 346//47 347//47 348//47
f 349//85 350//85 351//85
f 352//44 353//44 354//44
f 355//33 356//33 357//33
f 358//34 359//34 360//34
f 337//9 344//9 343//9
f 340//10 339//10 338//10
f 346//11 342//11 341//11
f 345//12 348//12 347//12
f 343//13 356//13 355//13
f 358//14 347//14 346//14
f 357//15 360//15 359//15
f 355//16 350//16 349//16
f 352//17 359//17 358//17
f 351//18 354//18 353//18
f 349//19 338//19 337//19
f 341//20 353//20 352//20
f 355//21 337//21 343//21
f 342//22 344//22 339//22
f 353//23 338//23 351//23
f 346//24 352//24 358//24
f 347//25 356//25 345//25
f 359//26 350//26 357//26
f 361//84 362//84 363//84
f 364//42 365//42 366//42
f 367//82 368//82 369//82
f 370//86 371//86 372//86
f 373//43 374//43 375//43
f 376//52 377//52 378//52
f 379//45 380//45 381//45
f 382//87 383//87 384//87
f 361//9 368//9 367//9
f 364//10 363//10 362//10
f 370//11 366//11 365//11
f 369//12 372//12 371//12
f 367//13 380//13 379//13
f 382//14 371//14 370//14
f 381//15 384//15 383//15
f 379//16 374//16 373//16
f 376//17 383//17 382//17
f 375//18 378//18 377//18
f 373//19 362//19 361//19
f 365//20 377//20 376//20
f 379//21 361//21 367//21
f 366//22 368//22 363//22
f 377//23 362//23 375//23
f 370//24 376//24 382//24
f 371//25 380//25 369//25
f 383//26 374//26 381//26
f 385//84 386//84 387//84
f 388//42 389//42 390//42
f 391//82 392//82 393//82
f 394//86 395//86 396//86
f 397//85 398//85 399//85
f 400//44 401//44 402//44
f 403//45 404//45 405//45
f 406//87 407//87 408//87
f 385//9 392//9 391//9
f 388//10 387//10 386//10
f 394//11 390//11 389//11
f 393//12 396//12 395//12
f 391//13 404//13 403//13
f 406//14 395//14 394//14
f 405//15 408//15 407//15
f 403//16 398//16 397//16
f 400//17 407//17 406//17
f 399//18 402//18 401//18
f 397//19 386//19 385//19
f 389//20 401//20 400//20
f 403//21 385//21 391//21
f 390//22 392//22 387//22
f 401//23 386//23 399//23
f 394//24 400//24 406//24
f 395//25 404//25 393//25
f 407//26 398//26 405//26
f 409//84 410//84 411//84
f 412//42 413//42 414//42
f 415//82 416//82 417//82
f 418//88 419//88 420//88
f 421//85 422//85 423//85
f 424//44 425//44 426//44
f 427//79 428//79 429//79
f 430//83 431//83 432//83
f 409//9 416//9 415//9
f 412//10 411//10 410//10
f 418//11 414//11 413//11
f 417//12 420//12 419//12
f 415//13 428//13 427//13
f 430//14 419//14 418//14
f 429//15 432//15 431//15
f 427//16 422//16 421//16
f 424//17 431//17 430//17
f 423//18 426//18 425//18
f 421//19 410//19 409//19
f 413//20 425//20 424//20
f 427//21 409//21 415//21
f 414//22 416//22 411//22
f 425//23 410//23 423//23
f 418//24 424//24 430//24
f 419//25 428//25 417//25
f 431//26 422//26 429//26
f 521//35 522//35 523//35
f 524//2 525//2 526//2
f 527//3 528//3 529//3
f 530//47 531//47 532//47
f 533//43 534//43 535//43
f 536//78 537//78 538//78
f 539//7 540//7 541//7
f 542//50 543//50 544//50
f 521//9 528//9 527//9
f 524//10 523//10 522//10
f 530//11 526//11 525//11
f 529//12 532//12 531//12
f 527//13 540//13 539//13
f 542//14 531//14 530//14
f 543//15 540//15 544//15
f 539//16 534//16 533//16
f 536//17 543//17 542//17
f 535//18 538//18 537//18
f 533//19 522//19 521//19
f 525//20 537//20 536//20
f 539//21 521//21 527//21
f 526//22 528//22 523//22
f 537//23 522//23 535//23
f 530//24 536//24 542//24
f 531//25 540//25 529//25
f 543//26 534//26 541//26
f 545//41 546//41 547//41
f 548//2 549//2 550//2
f 551//77 552//77 553//77
f 554//4 555//4 556//4
f 557//48 558//48 559//48
f 560//44 561//44 562//44
f 563//113 564//113 565//113
f 566//8 567//8 568//8
f 545//9 552//9 551//9
f 548//10 547//10 546//10
f 554//11 550//11 549//11
f 553//12 556//12 555//12
f 551//13 564//13 563//13
f 566//14 555//14 554//14
f 565//15 568//15 567//15
f 563//16 558//16 557//16
f 560//17 567//17 566//17
f 559//18 562//18 561//18
f 557//19 546//19 545//19
f 549//20 561//20 560//20
f 563//21 545//21 551//21
f 550//22 552//22 547//22
f 561//23 546//23 559//23
f 554//24 560//24 566//24
f 555//25 564//25 553//25
f 567//26 558//26 565//26
f 569//27 570//27 571//27
f 572//36 573//36 574//36
f 575//29 576//29 577//29
f 578//4 579//4 580//4
f 581//48 582//48 583//48
f 584//39 585//39 586//39
f 587//7 588//7 589//7
f 590//8 591//8 592//8
f 569//9 576//9 575//9
f 572//10 571//10 570//10
f 578//11 574//11 573//11
f 577//12 580//12 579//12
f 575//13 588//13 587//13
f 590//14 579//14 578//14
f 589//15 592//15 591//15
f 587//16 582//16 581//16
f 584//17 591//17 590//17
f 583//18 586//18 585//18
f 581//19 570//19 569//19
f 573//20 585//20 584//20
f 587//21 569//21 575//21
f 574//22 576//22 571//22
f 585//23 570//23 583//23
f 578//24 584//24 590//24
f 579//25 588//25 577//25
f 591//26 582//26 589//26
f 593//41 594//41 595//41
f 596//28 597//28 598//28
f 599//3 600//3 601//3
f 602//30 603//30 604//30
f 605//48 606//48 607//48
f 608//39 609//39 610//39
f 611//7 612//7 613//7
f 614//8 615//8 616//8
f 593//9 600//9 599//9
f 596//10 595//10 594//10
f 602//11 598//11 597//11
f 601//12 604//12 603//12
f 599//13 612//13 611//13
f 614//14 603//14 602//14
f 613//15 616//15 615//15
f 611//16 606//16 605//16
f 608//17 615//17 614//17
f 607//18 610//18 609//18
f 605//19 594//19 593//19
f 597//20 609//20 608//20
f 611//21 593//21 599//21
f 598//22 600//22 595//22
f 609//23 594//23 607//23
f 602//24 608//24 614//24
f 603//25 612//25 601//25
f 615//26 606//26 613//26
f 617//41 618//41 619//41
f 620//36 621//36 622//36
f 623//3 624//3 625//3
f 626//4 627//4 628//4
f 629//48 630//48 631//48
f 632//39 633//39 634//39
f 635//7 636//7 637//7
f 638//8 639//8 640//8
f 617//9 624//9 623//9
f 620//10 619//10 618//10
f 626//11 622//11 621//11
f 625//12 628//12 627//12
f 623//13 636//13 635//13
f 638//14 627//14 626//14
f 637//15 640//15 639//15
f 635//16 630//16 629//16
f 632//17 639//17 638//17
f 631//18 634//18 633//18
f 629//19 618//19 617//19
f 621//20 633//20 632//20
f 635//21 617//21 623//21
f 622//22 624//22 619//22
f 633//23 618//23 631//23
f 626//24 632//24 638//24
f 627//25 636//25 625//25
f 639//26 630//26 637//26
f 665//84 666//84 667//84
f 668//42 669//42 670//42
f 671//29 672//29 673//29
f 674//4 675//4 676//4
f 677//85 678//85 679//85
f 680//44 681//44 682//44
f 683//7 684//7 685//7
f 686//50 687//50 688//50
f 665//9 672//9 671//9
f 668//10 667//10 666//10
f 674//11 670//11 669//11
f 673//12 676//12 675//12
f 671//13 684//13 683//13
f 686//14 675//14 674//14
f 685//15 688//15 687//15
f 683//16 678//16 677//16
f 680//17 687//17 686//17
f 679//18 682//18 681//18
f 677//19 666//19 665//19
f 669//20 681//20 680//20
f 683//21 665//21 671//21
f 670//22 672//22 667//22
f 681//23 666//23 679//23
f 674//24 680//24 686//24
f 675//25 684//25 673//25
f 687//26 678//26 685//26
f 689//84 690//84 691//84
f 692//42 693//42 694//42
f 695//114 696//114 697//114
f 698//88 699//88 700//88
f 701//85 702//85 703//85
f 704//44 705//44 706//44
f 707//79 708//79 709//79
f 710//83 711//83 712//83
f 689//9 696//9 695//9
f 692//10 691//10 690//10
f 698//11 694//11 693//11
f 697//12 700//12 699//12
f 695//13 708//13 707//13
f 710//14 699//14 698//14
f 709//15 712//15 711//15
f 707//16 702//16 701//16
f 704//17 711//17 710//17
f 703//18 706//18 705//18
f 701//19 690//19 689//19
f 693//20 705//20 704//20
f 707//21 689//21 695//21
f 694//22 696//22 691//22
f 705//23 690//23 703//23
f 698//24 704//24 710//24
f 699//25 708//25 697//25
f 711//26 702//26 709//26
f 713//84 714//84 715//84
f 716//42 717//42 718//42
f 719//82 720//82 721//82
f 722//86 723//86 724//86
f 725//85 726//85 727//85
f 728//44 729//44 730//44
f 731//45 732//45 733//45
f 734//87 735//87 736//87
f 713//9 720//9 719//9
f 716//10 715//10 714//10
f 722//11 718//11 717//11
f 721//12 724//12 723//12
f 719//13 732//13 731//13
f 734//14 723//14 722//14
f 733//15 736//15 735//15
f 731//16 726//16 725//16
f 728//17 735//17 734//17
f 727//18 730//18 729//18
f 725//19 714//19 713//19
f 717//20 729//20 728//20
f 731//21 713//21 719//21
f 718//22 720//22 715//22
f 729//23 714//23 727//23
f 722//24 728//24 734//24
f 723//25 732//25 721//25
f 735//26 726//26 733//26
f 737//81 738//81 739//81
f 740//51 741//51 742//51
f 743//82 744//82 745//82
f 746//86 747//86 748//86
f 749//85 750//85 751//85
f 752//44 753//44 754//44
f 755//79 756//79 757//79
f 758//87 759//87 760//87
f 737//9 744//9 743//9
f 740//10 739//10 738//10
f 746//11 742//11 741//11
f 745//12 748//12 747//12
f 743//13 756//13 755//13
f 758//14 747//14 746//14
f 757//15 760//15 759//15
f 755//16 750//16 749//16
f 752//17 759//17 758//17
f 751//18 754//18 753//18
f 749//19 738//19 737//19
f 741//20 753//20 752//20
f 755//21 737//21 743//21
f 742//22 744//22 739//22
f 753//23 738//23 751//23
f 746//24 752//24 758//24
f 747//25 756//25 745//25
f 759//26 750//26 757//26
f 873//35 874//35 875//35
f 876//2 877//2 878//2
f 879//114 880//114 881//114
f 882//88 883//88 884//88
f 885//48 886//48 887//48
f 888//49 889//49 890//49
f 891//7 892//7 893//7
f 894//50 895//50 896//50
f 873//9 880//9 879//9
f 876//10 875//10 874//10
f 882//11 878//11 877//11
f 881//12 884//12 883//12
f 879//13 892//13 891//13
f 894//14 883//14 882//14
f 893//15 896//15 895//15
f 891//16 886//16 885//16
f 888//17 895//17 894//17
f 887//18 890//18 889//18
f 885//19 874//19 873//19
f 877//20 889//20 888//20
f 891//21 873//21 879//21
f 878//22 880//22 875//22
f 889//23 874//23 887//23
f 882//24 888//24 894//24
f 883//25 892//25 881//25
f 895//26 886//26 893//26
f 897//35 898//35 899//35
f 900//2 901//2 902//2
f 903//115 904//115 905//115
f 906//88 907//88 908//88
f 909//5 910//5 911//5
f 912//78 913//78 914//78
f 915//113 916//113 917//113
f 918//8 919//8 920//8
f 897//9 904//9 903//9
f 900//10 899//10 898//10
f 906//11 902//11 901//11
f 905//12 908//12 907//12
f 903//13 916//13 915//13
f 918//14 907//14 906//14
f 917//15 920//15 919//15
f 915//16 910//16 909//16
f 912//17 919//17 918//17
f 911//18 914//18 913//18
f 909//19 898//19 897//19
f 901//20 913//20 912//20
f 915//21 897//21 903//21
f 902//22 904//22 899//22
f 913//23 898//23 911//23
f 906//24 912//24 918//24
f 907//25 916//25 905//25
f 919//26 910//26 917//26
f 921//1 922//1 923//1
f 924//116 925//116 926//116
f 927//3 928//3 929//3
f 930//47 931//47 932//47
f 933//5 934//5 935//5
f 936//78 937//78 938//78
f 939//79 940//79 941//79
f 942//83 943//83 944//83
f 921//9 928//9 927//9
f 924//10 923//10 922//10
f 930//11 926//11 925//11
f 929//12 932//12 931//12
f 927//13 940//13 939//13
f 942//14 931//14 930//14
f 941//15 944//15 943//15
f 939//16 934//16 933//16
f 936//17 943//17 942//17
f 935//18 938//18 937//18
f 933//19 922//19 921//19
f 925//20 937//20 936//20
f 939//21 921//21 927//21
f 926//22 928//22 923//22
f 937//23 922//23 935//23
f 930//24 936//24 942//24
f 931//25 940//25 929//25
f 943//26 934//26 941//26
f 945//117 946//117 947//117
f 948//51 949//51 950//51
f 951//29 952//29 953//29
f 954//30 955//30 956//30
f 957//118 958//118 959//118
f 960//49 961//49 962//49
f 963//7 964//7 965//7
f 966//50 967//50 968//50
f 945//9 952//9 951//9
f 948//10 947//10 946//10
f 954//11 950//11 949//11
f 953//12 956//12 955//12
f 951//13 964//13 963//13
f 966//14 955//14 954//14
f 965//15 968//15 967//15
f 963//16 958//16 957//16
f 960//17 967//17 966//17
f 959//18 962//18 961//18
f 957//19 946//19 945//19
f 949//20 961//20 960//20
f 963//21 945//21 951//21
f 950//22 952//22 947//22
f 961//23 946//23 959//23
f 954//24 960//24 966//24
f 955//25 964//25 953//25
f 967//26 958//26 965//26
f 969//1 970//1 971//1
f 972//116 973//116 974//116
f 975//114 976//114 977//114
f 978//88 979//88 980//88
f 981//48 982//48 983//48
f 984//49 985//49 986//49
f 987//7 988//7 989//7
f 990//50 991//50 992//50
f 969//9 976//9 975//9
f 972//10 971//10 970//10
f 978//11 974//11 973//11
f 977//12 980//12 979//12
f 975//13 988//13 987//13
f 990//14 979//14 978//14
f 989//15 992//15 991//15
f 987//16 982//16 981//16
f 984//17 991//17 990//17
f 983//18 986//18 985//18
f 981//19 970//19 969//19
f 973//20 985//20 984//20
f 987//21 969//21 975//21
f 974//22 976//22 971//22
f 985//23 970//23 983//23
f 978//24 984//24 990//24
f 979//25 988//25 977//25
f 991//26 982//26 989//26
f 193//9 195//9 200//9
f 194//10 196//10 198//10
f 202//11 204//11 198//11
f 201//12 200//12 204//12
f 199//13 201//13 212//13
f 214//14 216//14 203//14
f 213//15 212//15 216//15
f 211//16 213//16 206//16
f 208//17 210//17 215//17
f 207//18 206//18 210//18
f 205//19 207//19 194//19
f 197//20 196//20 209//20
f 211//21 205//21 193//21
f 198//22 204//22 200//22
f 209//23 196//23 194//23
f 202//24 197//24 208//24
f 203//25 216//25 212//25
f 215//26 210//26 206//26
f 217//9 219//9 224//9
f 220//10 222//10 219//10
f 226//11 228//11 222//11
f 225//12 224//12 228//12
f 223//13 225//13 236//13
f 238//14 240//14 227//14
f 237//15 236//15 240//15
f 235//16 237//16 230//16
f 232//17 234//17 239//17
f 231//18 230//18 234//18
f 229//19 231//19 218//19
f 221//20 220//20 233//20
f 235//21 229//21 217//21
f 222//22 228//22 224//22
f 233//23 220//23 218//23
f 226//24 221//24 232//24
f 227//25 240//25 236//25
f 239//26 234//26 230//26
f 241//9 243//9 248//9
f 244//10 246//10 243//10
f 250//11 252//11 246//11
f 249//12 248//12 252//12
f 247//13 249//13 260//13
f 262//14 264//14 251//14
f 261//15 260//15 264//15
f 259//16 261//16 254//16
f 256//17 258//17 263//17
f 255//18 254//18 258//18
f 253//19 255//19 242//19
f 245//20 244//20 257//20
f 259//21 253//21 241//21
f 246//22 252//22 248//22
f 257//23 244//23 242//23
f 250//24 245//24 256//24
f 251//25 264//25 260//25
f 263//26 258//26 254//26
f 265//9 267//9 272//9
f 268//10 270//10 267//10
f 274//11 276//11 270//11
f 273//12 272//12 276//12
f 271//13 273//13 284//13
f 286//14 288//14 275//14
f 285//15 284//15 288//15
f 283//16 285//16 278//16
f 280//17 282//17 287//17
f 279//18 278//18 282//18
f 277//19 279//19 266//19
f 269//20 268//20 281//20
f 283//21 277//21 265//21
f 270//22 276//22 272//22
f 281//23 268//23 266//23
f 274//24 269//24 280//24
f 275//25 288//25 284//25
f 287//26 282//26 278//26
f 289//9 291//9 296//9
f 292//10 294//10 291//10
f 298//11 300//11 294//11
f 297//12 296//12 300//12
f 295//13 297//13 308//13
f 310//14 312//14 299//14
f 309//15 308//15 312//15
f 307//16 309//16 302//16
f 304//17 306//17 311//17
f 303//18 302//18 306//18
f 301//19 303//19 290//19
f 293//20 292//20 305//20
f 307//21 301//21 289//21
f 294//22 300//22 296//22
f 305//23 292//23 290//23
f 298//24 293//24 304//24
f 299//25 312//25 308//25
f 311//26 306//26 302//26
f 337//9 339//9 344//9
f 340//10 342//10 339//10
f 346//11 348//11 342//11
f 345//12 344//12 348//12
f 343//13 345//13 356//13
f 358//14 360//14 347//14
f 357//15 356//15 360//15
f 355//16 357//16 350//16
f 352//17 354//17 359//17
f 351//18 350//18 354//18
f 349//19 351//19 338//19
f 341//20 340//20 353//20
f 355//21 349//21 337//21
f 342//22 348//22 344//22
f 353//23 340//23 338//23
f 346//24 341//24 352//24
f 347//25 360//25 356//25
f 359//26 354//26 350//26
f 361//9 363//9 368//9
f 364//10 366//10 363//10
f 370//11 372//11 366//11
f 369//12 368//12 372//12
f 367//13 369//13 380//13
f 382//14 384//14 371//14
f 381//15 380//15 384//15
f 379//16 381//16 374//16
f 376//17 378//17 383//17
f 375//18 374//18 378//18
f 373//19 375//19 362//19
f 365//20 364//20 377//20
f 379//21 373//21 361//21
f 366//22 372//22 368//22
f 377//23 364//23 362//23
f 370//24 365//24 376//24
f 371//25 384//25 380//25
f 383//26 378//26 374//26
f 385//9 387//9 392//9
f 388//10 390//10 387//10
f 394//11 396//11 390//11
f 393//12 392//12 396//12
f 391//13 393//13 404//13
f 406//14 408//14 395//14
f 405//15 404//15 408//15
f 403//16 405//16 398//16
f 400//17 402//17 407//17
f 399//18 398//18 402//18
f 397//19 399//19 386//19
f 389//20 388//20 401//20
f 403//21 397//21 385//21
f 390//22 396//22 392//22
f 401//23 388//23 386//23
f 394//24 389//24 400//24
f 395//25 408//25 404//25
f 407//26 402//26 398//26
f 409//9 411//9 416//9
f 412//10 414//10 411//10
f 418//11 420//11 414//11
f 417//12 416//12 420//12
f 415//13 417//13 428//13
f 430//14 432//14 419//14
f 429//15 428//15 432//15
f 427//16 429//16 422//16
f 424//17 426//17 431//17
f 423//18 422//18 426//18
f 421//19 423//19 410//19
f 413//20 412//20 425//20
f 427//21 421//21 409//21
f 414//22 420//22 416//22
f 425//23 412//23 410//23
f 418//24 413//24 424//24
f 419//25 432//25 428//25
f 431//26 426//26 422//26
f 521//9 523//9 528//9
f 524//10 526//10 523//10
f 530//11 532//11 526//11
f 529//12 528//12 532//12
f 527//13 529//13 540//13
f 542//14 544//14 531//14
f 543//15 541//15 540//15
f 539//16 541//16 534//16
f 536//17 538//17 543//17
f 535//18 534//18 538//18
f 533//19 535//19 522//19
f 525//20 524//20 537//20
f 539//21 533//21 521//21
f 526//22 532//22 528//22
f 537//23 524//23 522//23
f 530//24 525//24 536//24
f 531//25 544//25 540//25
f 543//26 538//26 534//26
f 545//9 547//9 552//9
f 548//10 550//10 547//10
f 554//11 556//11 550//11
f 553//12 552//12 556//12
f 551//13 553//13 564//13
f 566//14 568//14 555//14
f 565//15 564//15 568//15
f 563//16 565//16 558//16
f 560//17 562//17 567//17
f 559//18 558//18 562//18
f 557//19 559//19 546//19
f 549//20 548//20 561//20
f 563//21 557//21 545//21
f 550//22 556//22 552//22
f 561//23 548//23 546//23
f 554//24 549//24 560//24
f 555//25 568//25 564//25
f 567//26 562//26 558//26
f 569//9 571//9 576//9
f 572//10 574//10 571//10
f 578//11 580//11 574//11
f 577//12 576//12 580//12
f 575//13 577//13 588//13
f 590//14 592//14 579//14
f 589//15 588//15 592//15
f 587//16 589//16 582//16
f 584//17 586//17 591//17
f 583//18 582//18 586//18
f 581//19 583//19 570//19
f 573//20 572//20 585//20
f 587//21 581//21 569//21
f 574//22 580//22 576//22
f 585//23 572//23 570//23
f 578//24 573//24 584//24
f 579//25 592//25 588//25
f 591//26 586//26 582//26
f 593//9 595//9 600//9
f 596//10 598//10 595//10
f 602//11 604//11 598//11
f 601//12 600//12 604//12
f 599//13 601//13 612//13
f 614//14 616//14 603//14
f 613//15 612//15 616//15
f 611//16 613//16 606//16
f 608//17 610//17 615//17
f 607//18 606//18 610//18
f 605//19 607//19 594//19
f 597//20 596//20 609//20
f 611//21 605//21 593//21
f 598//22 604//22 600//22
f 609//23 596//23 594//23
f 602//24 597//24 608//24
f 603//25 616//25 612//25
f 615//26 610//26 606//26
f 617//9 619//9 624//9
f 620//10 622//10 619//10
f 626//11 628//11 622//11
f 625//12 624//12 628//12
f 623//13 625//13 636//13
f 638//14 640//14 627//14
f 637//15 636//15 640//15
f 635//16 637//16 630//16
f 632//17 634//17 639//17
f 631//18 630//18 634//18
f 629//19 631//19 618//19
f 621//20 620//20 633//20
f 635//21 629//21 617//21
f 622//22 628//22 624//22
f 633//23 620//23 618//23
f 626//24 621//24 632//24
f 627//25 640//25 636//25
f 639//26 634//26 630//26
f 665//9 667//9 672//9
f 668//10 670//10 667//10
f 674//11 676//11 670//11
f 673//12 672//12 676//12
f 671//13 673//13 684//13
f 686//14 688//14 675//14
f 685//15 684//15 688//15
f 683//16 685//16 678//16
f 680//17 682//17 687//17
f 679//18 678//18 682//18
f 677//19 679//19 666//19
f 669//20 668//20 681//20
f 683//21 677//21 665//21
f 670//22 676//22 672//22
f 681//23 668//23 666//23
f 674//24 669//24 680//24
f 675//25 688//25 684//25
f 687//26 682//26 678//26
f 689//9 691//9 696//9
f 692//10 694//10 691//10
f 698//11 700//11 694//11
f 697//12 696//12 700//12
f 695//13 697//13 708//13
f 710//14 712//14 699//14
f 709//15 708//15 712//15
f 707//16 709//16 702//16
f 704//17 706//17 711//17
f 703//18 702//18 706//18
f 701//19 703//19 690//19
f 693//20 692//20 705//20
f 707//21 701//21 689//21
f 694//22 700//22 696//22
f 705//23 692//23 690//23
f 698//24 693//24 704//24
f 699//25 712//25 708//25
f 711//26 706//26 702//26
f 713//9 715//9 720//9
f 716//10 718//10 715//10
f 722//11 724//11 718//11
f 721//12 720//12 724//12
f 719//13 721//13 732//13
f 734//14 736//14 723//14
f 733//15 732//15 736//15
f 731//16 733//16 726//16
f 728//17 730//17 735//17
f 727//18 726//18 730//18
f 725//19 727//19 714//19
f 717//20 716//20 729//20
f 731//21 725//21 713//21
f 718//22 724//22 720//22
f 729//23 716//23 714//23
f 722//24 717//24 728//24
f 723//25 736//25 732//25
f 735//26 730//26 726//26
f 737//9 739//9 744//9
f 740//10 742//10 739//10
f 746//11 748//11 742//11
f 745//12 744//12 748//12
f 743//13 745//13 756//13
f 758//14 760//14 747//14
f 757//15 756//15 760//15
f 755//16 757//16 750//16
f 752//17 754//17 759//17
f 751//18 750//18 754//18
f 749//19 751//19 738//19
f 741//20 740//20 753//20
f 755//21 749//21 737//21
f 742//22 748//22 744//22
f 753//23 740//23 738//23
f 746//24 741//24 752//24
f 747//25 760//25 756//25
f 759//26 754//26 750//26
f 873//9 875//9 880//9
f 876//10 878//10 875//10
f 882//11 884//11 878//11
f 881//12 880//12 884//12
f 879//13 881//13 892//13
f 894//14 896//14 883//14
f 893//15 892//15 896//15
f 891//16 893//16 886//16
f 888//17 890//17 895//17
f 887//18 886//18 890//18
f 885//19 887//19 874//19
f 877//20 876//20 889//20
f 891//21 885//21 873//21
f 878//22 884//22 880//22
f 889//23 876//23 874//23
f 882//24 877//24 888//24
f 883//25 896//25 892//25
f 895//26 890//26 886//26
f 897//9 899//9 904//9
f 900//10 902//10 899//10
f 906//11 908//11 902//11
f 905//12 904//12 908//12
f 903//13 905//13 916//13
f 918//14 920//14 907//14
f 917//15 916//15 920//15
f 915//16 917//16 910//16
f 912//17 914//17 919//17
f 911//18 910//18 914//18
f 909//19 911//19 898//19
f 901//20 900//20 913//20
f 915//21 909//21 897//21
f 902//22 908//22 904//22
f 913//23 900//23 898//23
f 906//24 901//24 912//24
f 907//25 920//25 916//25
f 919//26 914//26 910//26
f 921//9 923//9 928//9
f 924//10 926//10 923//10
f 930//11 932//11 926//11
f 929//12 928//12 932//12
f 927//13 929//13 940//13
f 942//14 944//14 931//14
f 941//15 940//15 944//15
f 939//16 941//16 934//16
f 936//17 938//17 943//17
f 935//18 934//18 938//18
f 933//19 935//19 922//19
f 925//20 924//20 937//20
f 939//21 933//21 921//21
f 926//22 932//22 928//22
f 937//23 924//23 922//23
f 930//24 925//24 936//24
f 931//25 944//25 940//25
f 943//26 938//26 934//26
f 945//9 947//9 952//9
f 948//10 950//10 947//10
f 954//11 956//11 950//11
f 953//12 952//12 956//12
f 951//13 953//13 964//13
f 966//14 968//14 955//14
f 965//15 964//15 968//15
f 963//16 965//16 958//16
f 960//17 962//17 967//17
f 959//18 958//18 962//18
f 957//19 959//19 946//19
f 949//20 948//20 961//20
f 963//21 957//21 945//21
f 950//22 956//22 952//22
f 961//23 948//23 946//23
f 954//24 949//24 960//24
f 955//25 968//25 964//25
f 967//26 962//26 958//26
f 969//9 971//9 976//9
f 972//10 974//10 971//10
f 978//11 980//11 974//11
f 977//12 976//12 980//12
f 975//13 977//13 988//13
f 990//14 992//14 979//14
f 989//15 988//15 992//15
f 987//16 989//16 982//16
f 984//17 986//17 991//17
f 983//18 982//18 986//18
f 981//19 983//19 970//19
f 973//20 972//20 985//20
f 987//21 981//21 969//21
f 974//22 980//22 976//22
f 985//23 972//23 970//23
f 978//24 973//24 984//24
f 979//25 992//25 988//25
f 991//26 986//26 982//26
usemtl Frog_belly
f 25//27 26//27 27//27
f 28//28 29//28 30//28
f 31//29 32//29 33//29
f 34//30 35//30 36//30
f 37//31 38//31 39//31
f 40//32 41//32 42//32
f 43//33 44//33 45//33
f 46//34 47//34 48//34
f 25//9 32//9 31//9
f 28//10 27//10 26//10
f 34//11 30//11 29//11
f 33//12 36//12 35//12
f 31//13 44//13 43//13
f 46//14 35//14 34//14
f 45//15 48//15 47//15
f 43//16 38//16 37//16
f 40//17 47//17 46//17
f 39//18 42//18 41//18
f 37//19 26//19 25//19
f 29//20 41//20 40//20
f 43//21 25//21 31//21
f 30//22 32//22 27//22
f 41//23 26//23 39//23
f 34//24 40//24 46//24
f 35//25 44//25 33//25
f 47//26 38//26 45//26
f 73//41 74//41 75//41
f 76//42 77//42 78//42
f 79//3 80//3 81//3
f 82//4 83//4 84//4
f 85//43 86//43 87//43
f 88//44 89//44 90//44
f 91//45 92//45 93//45
f 94//8 95//8 96//8
f 73//9 80//9 79//9
f 76//10 75//10 74//10
f 82//11 78//11 77//11
f 81//12 84//12 83//12
f 79//13 92//13 91//13
f 94//14 83//14 82//14
f 93//15 96//15 95//15
f 91//16 86//16 85//16
f 88//17 95//17 94//17
f 87//18 90//18 89//18
f 85//19 74//19 73//19
f 77//20 89//20 88//20
f 91//21 73//21 79//21
f 78//22 80//22 75//22
f 89//23 74//23 87//23
f 82//24 88//24 94//24
f 83//25 92//25 81//25
f 95//26 86//26 93//26
f 25//9 27//9 32//9
f 28//10 30//10 27//10
f 34//11 36//11 30//11
f 33//12 32//12 36//12
f 31//13 33//13 44//13
f 46//14 48//14 35//14
f 45//15 44//15 48//15
f 43//16 45//16 38//16
f 40//17 42//17 47//17
f 39//18 38//18 42//18
f 37//19 39//19 26//19
f 29//20 28//20 41//20
f 43//21 37//21 25//21
f 30//22 36//22 32//22
f 41//23 28//23 26//23
f 34//24 29//24 40//24
f 35//25 48//25 44//25
f 47//26 42//26 38//26
f 73//9 75//9 80//9
f 76//10 78//10 75//10
f 82//11 84//11 78//11
f 81//12 80//12 84//12
f 79//13 81//13 92//13
f 94//14 96//14 83//14
f 93//15 92//15 96//15
f 91//16 93//16 86//16
f 88//17 90//17 95//17
f 87//18 86//18 90//18
f 85//19 87//19 74//19
f 77//20 76//20 89//20
f 91//21 85//21 73//21
f 78//22 84//22 80//22
f 89//23 76//23 74//23
f 82//24 77//24 88//24
f 83//25 96//25 92//25
f 95//26 90//26 86//26
usemtl Frog_mouth
f 98//22 99//22 97//22
f 100//25 103//25 99//25
f 104//26 101//26 103//26
f 102//23 97//23 101//23
f 103//21 97//21 99//21
f 100//24 102//24 104//24
f 114//22 115//22 113//22
f 116//25 119//25 115//25
f 120//26 117//26 119//26
f 118//23 113//23 117//23
f 119//21 113//21 115//21
f 116//24 118//24 120//24
f 442//22 443//22 441//22
f 444//25 447//25 443//25
f 448//26 445//26 447//26
f 446//23 441//23 445//23
f 447//21 441//21 443//21
f 444//24 446//24 448//24
f 98//22 100//22 99//22
f 100//25 104//25 103//25
f 104//26 102//26 101//26
f 102//23 98//23 97//23
f 103//21 101//21 97//21
f 100//24 98//24 102//24
f 114//22 116//22 115//22
f 116//25 120//25 119//25
f 120//26 118//26 117//26
f 118//23 114//23 113//23
f 119//21 117//21 113//21
f 116//24 114//24 118//24
f 442//22 444//22 443//22
f 444//25 448//25 447//25
f 448//26 446//26 445//26
f 446//23 442//23 441//23
f 447//21 445//21 441//21
f 444//24 442//24 446//24
