# Blender 5.2.1 LTS
# www.blender.org
mtllib Squirrel.mtl
o Squirrel
v -1.200000 0.800000 1.400000
v -1.200000 1.000000 1.600000
v -1.400000 1.000000 1.400000
v -1.200000 4.200000 1.600000
v -1.200000 4.400000 1.400000
v -1.400000 4.200000 1.400000
v -1.200000 0.800000 -0.800000
v -1.400000 1.000000 -0.800000
v -1.200000 1.000000 -1.000000
v -1.200000 4.400000 -0.800000
v -1.200000 4.200000 -1.000000
v -1.400000 4.200000 -0.800000
v 1.200000 0.800000 1.400000
v 1.400000 1.000000 1.400000
v 1.200000 1.000000 1.600000
v 1.200000 4.400000 1.400000
v 1.200000 4.200000 1.600000
v 1.400000 4.200000 1.400000
v 1.200000 0.800000 -0.800000
v 1.200000 1.000000 -1.000000
v 1.400000 1.000000 -0.800000
v 1.200000 4.400000 -0.800000
v 1.400000 4.200000 -0.800000
v 1.200000 4.200000 -1.000000
v -0.850000 1.100000 -0.950000
v -0.850000 1.200000 -0.850000
v -0.950000 1.200000 -0.950000
v -0.850000 3.600000 -0.850000
v -0.850000 3.700000 -0.950000
v -0.950000 3.600000 -0.950000
v -0.850000 1.100000 -1.050000
v -0.950000 1.200000 -1.050000
v -0.850000 1.200000 -1.150000
v -0.850000 3.700000 -1.050000
v -0.850000 3.600000 -1.150000
v -0.950000 3.600000 -1.050000
v 0.850000 1.100000 -0.950000
v 0.950000 1.200000 -0.950000
v 0.850000 1.200000 -0.850000
v 0.850000 3.700000 -0.950000
v 0.850000 3.600000 -0.850000
v 0.950000 3.600000 -0.950000
v 0.850000 1.100000 -1.050000
v 0.850000 1.200000 -1.150000
v 0.950000 1.200000 -1.050000
v 0.850000 3.700000 -1.050000
v 0.950000 3.600000 -1.050000
v 0.850000 3.600000 -1.150000
v -1.120000 3.900000 0.420000
v -1.120000 4.080000 0.600000
v -1.300000 4.080000 0.420000
v -1.120000 5.920000 0.600000
v -1.120000 6.100000 0.420000
v -1.300000 5.920000 0.420000
v -1.120000 3.900000 -1.620000
v -1.300000 4.080000 -1.620000
v -1.120000 4.080000 -1.800000
v -1.120000 6.100000 -1.620000
v -1.120000 5.920000 -1.800000
v -1.300000 5.920000 -1.620000
v 1.120000 3.900000 0.420000
v 1.300000 4.080000 0.420000
v 1.120000 4.080000 0.600000
v 1.120000 6.100000 0.420000
v 1.120000 5.920000 0.600000
v 1.300000 5.920000 0.420000
v 1.120000 3.900000 -1.620000
v 1.120000 4.080000 -1.800000
v 1.300000 4.080000 -1.620000
v 1.120000 6.100000 -1.620000
v 1.300000 5.920000 -1.620000
v 1.120000 5.920000 -1.800000
v -0.680000 4.050000 -1.470000
v -0.664395 4.169492 -1.361030
v -0.785341 4.169101 -1.481497
v -0.533809 5.230508 -1.458970
v -0.520000 5.350000 -1.590000
v -0.654659 5.230898 -1.579509
v -0.680000 4.050000 -2.430000
v -0.785341 4.169101 -2.418504
v -0.664395 4.169492 -2.538970
v -0.520000 5.350000 -2.310000
v -0.533809 5.230508 -2.441030
v -0.654659 5.230898 -2.320492
v 0.680000 4.050000 -1.470000
v 0.785341 4.169101 -1.481497
v 0.664395 4.169492 -1.361030
v 0.520000 5.350000 -1.590000
v 0.533809 5.230508 -1.458970
v 0.654659 5.230898 -1.579509
v 0.680000 4.050000 -2.430000
v 0.664395 4.169492 -2.538970
v 0.785341 4.169101 -2.418504
v 0.520000 5.350000 -2.310000
v 0.654659 5.230898 -2.320492
v 0.533809 5.230508 -2.441030
v -0.200000 4.650000 -2.520000
v -0.200000 4.700000 -2.470000
v -0.250000 4.700000 -2.520000
v -0.200000 5.000000 -2.470000
v -0.200000 5.050000 -2.520000
v -0.250000 5.000000 -2.520000
v -0.200000 4.650000 -2.720000
v -0.250000 4.700000 -2.720000
v -0.200000 4.700000 -2.770000
v -0.200000 5.050000 -2.720000
v -0.200000 5.000000 -2.770000
v -0.250000 5.000000 -2.720000
v 0.200000 4.650000 -2.520000
v 0.250000 4.700000 -2.520000
v 0.200000 4.700000 -2.470000
v 0.200000 5.050000 -2.520000
v 0.200000 5.000000 -2.470000
v 0.250000 5.000000 -2.520000
v 0.200000 4.650000 -2.720000
v 0.200000 4.700000 -2.770000
v 0.250000 4.700000 -2.720000
v 0.200000 5.050000 -2.720000
v 0.250000 5.000000 -2.720000
v 0.200000 5.000000 -2.770000
v -0.955000 5.037500 -1.860000
v -0.955000 5.077500 -1.820000
v -0.995000 5.077500 -1.860000
v -0.955000 5.472500 -1.820000
v -0.955000 5.512500 -1.860000
v -0.995000 5.472500 -1.860000
v -0.955000 5.037500 -1.980000
v -0.995000 5.077500 -1.980000
v -0.955000 5.077500 -2.020000
v -0.955000 5.512500 -1.980000
v -0.955000 5.472500 -2.020000
v -0.995000 5.472500 -1.980000
v -0.685000 5.037500 -1.860000
v -0.645000 5.077500 -1.860000
v -0.685000 5.077500 -1.820000
v -0.685000 5.512500 -1.860000
v -0.685000 5.472500 -1.820000
v -0.645000 5.472500 -1.860000
v -0.685000 5.037500 -1.980000
v -0.685000 5.077500 -2.020000
v -0.645000 5.077500 -1.980000
v -0.685000 5.512500 -1.980000
v -0.645000 5.472500 -1.980000
v -0.685000 5.472500 -2.020000
v -0.814400 5.380000 -1.980000
v -0.814400 5.500000 -1.980000
v -0.814400 5.380000 -2.100000
v -0.814400 5.500000 -2.100000
v -0.694400 5.380000 -1.980000
v -0.694400 5.500000 -1.980000
v -0.694400 5.380000 -2.100000
v -0.694400 5.500000 -2.100000
v 0.685000 5.037500 -1.860000
v 0.685000 5.077500 -1.820000
v 0.645000 5.077500 -1.860000
v 0.685000 5.472500 -1.820000
v 0.685000 5.512500 -1.860000
v 0.645000 5.472500 -1.860000
v 0.685000 5.037500 -1.980000
v 0.645000 5.077500 -1.980000
v 0.685000 5.077500 -2.020000
v 0.685000 5.512500 -1.980000
v 0.685000 5.472500 -2.020000
v 0.645000 5.472500 -1.980000
v 0.955000 5.037500 -1.860000
v 0.995000 5.077500 -1.860000
v 0.955000 5.077500 -1.820000
v 0.955000 5.512500 -1.860000
v 0.955000 5.472500 -1.820000
v 0.995000 5.472500 -1.860000
v 0.955000 5.037500 -1.980000
v 0.955000 5.077500 -2.020000
v 0.995000 5.077500 -1.980000
v 0.955000 5.512500 -1.980000
v 0.995000 5.472500 -1.980000
v 0.955000 5.472500 -2.020000
v 0.694400 5.380000 -1.980000
v 0.694400 5.500000 -1.980000
v 0.694400 5.380000 -2.100000
v 0.694400 5.500000 -2.100000
v 0.814400 5.380000 -1.980000
v 0.814400 5.500000 -1.980000
v 0.814400 5.380000 -2.100000
v 0.814400 5.500000 -2.100000
v -1.330000 4.450000 -1.800000
v -1.330000 4.490000 -1.760000
v -1.370000 4.490000 -1.800000
v -1.330000 4.810000 -1.760000
v -1.330000 4.850000 -1.800000
v -1.370000 4.810000 -1.800000
v -1.330000 4.450000 -1.860000
v -1.370000 4.490000 -1.860000
v -1.330000 4.490000 -1.900000
v -1.330000 4.850000 -1.860000
v -1.330000 4.810000 -1.900000
v -1.370000 4.810000 -1.860000
v -0.910000 4.450000 -1.800000
v -0.870000 4.490000 -1.800000
v -0.910000 4.490000 -1.760000
v -0.910000 4.850000 -1.800000
v -0.910000 4.810000 -1.760000
v -0.870000 4.810000 -1.800000
v -0.910000 4.450000 -1.860000
v -0.910000 4.490000 -1.900000
v -0.870000 4.490000 -1.860000
v -0.910000 4.850000 -1.860000
v -0.870000 4.810000 -1.860000
v -0.910000 4.810000 -1.900000
v -1.275000 5.850000 -0.075000
v -1.275000 5.950000 0.025000
v -1.375000 5.950000 -0.075000
v -1.275000 7.050000 0.025000
v -1.275000 7.150000 -0.075000
v -1.375000 7.050000 -0.075000
v -1.275000 5.850000 -0.525000
v -1.375000 5.950000 -0.525000
v -1.275000 5.950000 -0.625000
v -1.275000 7.150000 -0.525000
v -1.275000 7.050000 -0.625000
v -1.375000 7.050000 -0.525000
v -0.625000 5.850000 -0.075000
v -0.525000 5.950000 -0.075000
v -0.625000 5.950000 0.025000
v -0.625000 7.150000 -0.075000
v -0.625000 7.050000 0.025000
v -0.525000 7.050000 -0.075000
v -0.625000 5.850000 -0.525000
v -0.625000 5.950000 -0.625000
v -0.525000 5.950000 -0.525000
v -0.625000 7.150000 -0.525000
v -0.525000 7.050000 -0.525000
v -0.625000 7.050000 -0.625000
v -1.160000 6.850000 -0.140000
v -1.151901 6.889557 -0.105934
v -1.192629 6.889315 -0.146330
v -1.016735 7.610443 -0.214066
v -1.010000 7.650000 -0.260000
v -1.057371 7.610685 -0.254535
v -1.160000 6.850000 -0.460000
v -1.192629 6.889315 -0.453670
v -1.151901 6.889557 -0.494066
v -1.010000 7.650000 -0.340000
v -1.016735 7.610443 -0.385934
v -1.057371 7.610685 -0.345465
v -0.740000 6.850000 -0.140000
v -0.707372 6.889315 -0.146330
v -0.748099 6.889557 -0.105934
v -0.890000 7.650000 -0.260000
v -0.883265 7.610443 -0.214066
v -0.842628 7.610685 -0.254535
v -0.740000 6.850000 -0.460000
v -0.748099 6.889557 -0.494066
v -0.707372 6.889315 -0.453670
v -0.890000 7.650000 -0.340000
v -0.842628 7.610685 -0.345465
v -0.883265 7.610443 -0.385934
v -1.575000 2.334570 -0.978926
v -1.575000 2.394337 -0.850754
v -1.675000 2.428539 -0.944724
v -1.575000 3.897845 -0.303522
v -1.575000 4.026016 -0.363290
v -1.675000 3.932047 -0.397492
v -1.575000 2.573984 -1.636711
v -1.675000 2.667953 -1.602508
v -1.575000 2.702155 -1.696478
v -1.575000 4.265430 -1.021074
v -1.575000 4.205663 -1.149246
v -1.675000 4.171461 -1.055276
v -1.025000 2.334570 -0.978926
v -0.925000 2.428539 -0.944724
v -1.025000 2.394337 -0.850754
v -1.025000 4.026016 -0.363290
v -1.025000 3.897845 -0.303522
v -0.925000 3.932047 -0.397492
v -1.025000 2.573984 -1.636711
v -1.025000 2.702155 -1.696478
v -0.925000 2.667953 -1.602508
v -1.025000 4.265430 -1.021074
v -0.925000 4.171461 -1.055276
v -1.025000 4.205663 -1.149246
v -1.015000 2.725000 -1.435000
v -1.015000 2.785000 -1.375000
v -1.075000 2.785000 -1.435000
v -1.015000 3.215000 -1.375000
v -1.015000 3.275000 -1.435000
v -1.075000 3.215000 -1.435000
v -1.015000 2.725000 -2.065000
v -1.075000 2.785000 -2.065000
v -1.015000 2.785000 -2.125000
v -1.015000 3.275000 -2.065000
v -1.015000 3.215000 -2.125000
v -1.075000 3.215000 -2.065000
v -0.485000 2.725000 -1.435000
v -0.425000 2.785000 -1.435000
v -0.485000 2.785000 -1.375000
v -0.485000 3.275000 -1.435000
v -0.485000 3.215000 -1.375000
v -0.425000 3.215000 -1.435000
v -0.485000 2.725000 -2.065000
v -0.485000 2.785000 -2.125000
v -0.425000 2.785000 -2.065000
v -0.485000 3.275000 -2.065000
v -0.425000 3.215000 -2.065000
v -0.485000 3.215000 -2.125000
v -1.975000 0.350000 1.200000
v -1.975000 0.500000 1.350000
v -2.125000 0.500000 1.200000
v -1.975000 2.100000 1.350000
v -1.975000 2.250000 1.200000
v -2.125000 2.100000 1.200000
v -1.975000 0.350000 -0.600000
v -2.125000 0.500000 -0.600000
v -1.975000 0.500000 -0.750000
v -1.975000 2.250000 -0.600000
v -1.975000 2.100000 -0.750000
v -2.125000 2.100000 -0.600000
v -1.225000 0.350000 1.200000
v -1.075000 0.500000 1.200000
v -1.225000 0.500000 1.350000
v -1.225000 2.250000 1.200000
v -1.225000 2.100000 1.350000
v -1.075000 2.100000 1.200000
v -1.225000 0.350000 -0.600000
v -1.225000 0.500000 -0.750000
v -1.075000 0.500000 -0.600000
v -1.225000 2.250000 -0.600000
v -1.075000 2.100000 -0.600000
v -1.225000 2.100000 -0.750000
v -1.795000 0.000000 0.070000
v -1.795000 0.080000 0.150000
v -1.875000 0.080000 0.070000
v -1.795000 0.420000 0.150000
v -1.795000 0.500000 0.070000
v -1.875000 0.420000 0.070000
v -1.795000 0.000000 -1.870000
v -1.875000 0.080000 -1.870000
v -1.795000 0.080000 -1.950000
v -1.795000 0.500000 -1.870000
v -1.795000 0.420000 -1.950000
v -1.875000 0.420000 -1.870000
v -1.005000 0.000000 0.070000
v -0.925000 0.080000 0.070000
v -1.005000 0.080000 0.150000
v -1.005000 0.500000 0.070000
v -1.005000 0.420000 0.150000
v -0.925000 0.420000 0.070000
v -1.005000 0.000000 -1.870000
v -1.005000 0.080000 -1.950000
v -0.925000 0.080000 -1.870000
v -1.005000 0.500000 -1.870000
v -0.925000 0.420000 -1.870000
v -1.005000 0.420000 -1.950000
v -1.750000 0.050000 -1.900000
v -1.750000 0.250000 -1.900000
v -1.750000 0.050000 -2.200000
v -1.750000 0.250000 -2.200000
v -1.550000 0.050000 -1.900000
v -1.550000 0.250000 -1.900000
v -1.550000 0.050000 -2.200000
v -1.550000 0.250000 -2.200000
v -1.250000 0.050000 -1.900000
v -1.250000 0.250000 -1.900000
v -1.250000 0.050000 -2.200000
v -1.250000 0.250000 -2.200000
v -1.050000 0.050000 -1.900000
v -1.050000 0.250000 -1.900000
v -1.050000 0.050000 -2.200000
v -1.050000 0.250000 -2.200000
v 0.910000 4.450000 -1.800000
v 0.910000 4.490000 -1.760000
v 0.870000 4.490000 -1.800000
v 0.910000 4.810000 -1.760000
v 0.910000 4.850000 -1.800000
v 0.870000 4.810000 -1.800000
v 0.910000 4.450000 -1.860000
v 0.870000 4.490000 -1.860000
v 0.910000 4.490000 -1.900000
v 0.910000 4.850000 -1.860000
v 0.910000 4.810000 -1.900000
v 0.870000 4.810000 -1.860000
v 1.330000 4.450000 -1.800000
v 1.370000 4.490000 -1.800000
v 1.330000 4.490000 -1.760000
v 1.330000 4.850000 -1.800000
v 1.330000 4.810000 -1.760000
v 1.370000 4.810000 -1.800000
v 1.330000 4.450000 -1.860000
v 1.330000 4.490000 -1.900000
v 1.370000 4.490000 -1.860000
v 1.330000 4.850000 -1.860000
v 1.370000 4.810000 -1.860000
v 1.330000 4.810000 -1.900000
v 0.625000 5.850000 -0.075000
v 0.625000 5.950000 0.025000
v 0.525000 5.950000 -0.075000
v 0.625000 7.050000 0.025000
v 0.625000 7.150000 -0.075000
v 0.525000 7.050000 -0.075000
v 0.625000 5.850000 -0.525000
v 0.525000 5.950000 -0.525000
v 0.625000 5.950000 -0.625000
v 0.625000 7.150000 -0.525000
v 0.625000 7.050000 -0.625000
v 0.525000 7.050000 -0.525000
v 1.275000 5.850000 -0.075000
v 1.375000 5.950000 -0.075000
v 1.275000 5.950000 0.025000
v 1.275000 7.150000 -0.075000
v 1.275000 7.050000 0.025000
v 1.375000 7.050000 -0.075000
v 1.275000 5.850000 -0.525000
v 1.275000 5.950000 -0.625000
v 1.375000 5.950000 -0.525000
v 1.275000 7.150000 -0.525000
v 1.375000 7.050000 -0.525000
v 1.275000 7.050000 -0.625000
v 0.740000 6.850000 -0.140000
v 0.748099 6.889557 -0.105934
v 0.707372 6.889315 -0.146330
v 0.883265 7.610443 -0.214066
v 0.890000 7.650000 -0.260000
v 0.842628 7.610685 -0.254535
v 0.740000 6.850000 -0.460000
v 0.707372 6.889315 -0.453670
v 0.748099 6.889557 -0.494066
v 0.890000 7.650000 -0.340000
v 0.883265 7.610443 -0.385934
v 0.842628 7.610685 -0.345465
v 1.160000 6.850000 -0.140000
v 1.192629 6.889315 -0.146330
v 1.151901 6.889557 -0.105934
v 1.010000 7.650000 -0.260000
v 1.016735 7.610443 -0.214066
v 1.057371 7.610685 -0.254535
v 1.160000 6.850000 -0.460000
v 1.151901 6.889557 -0.494066
v 1.192629 6.889315 -0.453670
v 1.010000 7.650000 -0.340000
v 1.057371 7.610685 -0.345465
v 1.016735 7.610443 -0.385934
v 1.025000 2.334570 -0.978926
v 1.025000 2.394337 -0.850754
v 0.925000 2.428539 -0.944724
v 1.025000 3.897845 -0.303522
v 1.025000 4.026016 -0.363290
v 0.925000 3.932047 -0.397492
v 1.025000 2.573984 -1.636711
v 0.925000 2.667953 -1.602508
v 1.025000 2.702155 -1.696478
v 1.025000 4.265430 -1.021074
v 1.025000 4.205663 -1.149246
v 0.925000 4.171461 -1.055276
v 1.575000 2.334570 -0.978926
v 1.675000 2.428539 -0.944724
v 1.575000 2.394337 -0.850754
v 1.575000 4.026016 -0.363290
v 1.575000 3.897845 -0.303522
v 1.675000 3.932047 -0.397492
v 1.575000 2.573984 -1.636711
v 1.575000 2.702155 -1.696478
v 1.675000 2.667953 -1.602508
v 1.575000 4.265430 -1.021074
v 1.675000 4.171461 -1.055276
v 1.575000 4.205663 -1.149246
v 0.485000 2.725000 -1.435000
v 0.485000 2.785000 -1.375000
v 0.425000 2.785000 -1.435000
v 0.485000 3.215000 -1.375000
v 0.485000 3.275000 -1.435000
v 0.425000 3.215000 -1.435000
v 0.485000 2.725000 -2.065000
v 0.425000 2.785000 -2.065000
v 0.485000 2.785000 -2.125000
v 0.485000 3.275000 -2.065000
v 0.485000 3.215000 -2.125000
v 0.425000 3.215000 -2.065000
v 1.015000 2.725000 -1.435000
v 1.075000 2.785000 -1.435000
v 1.015000 2.785000 -1.375000
v 1.015000 3.275000 -1.435000
v 1.015000 3.215000 -1.375000
v 1.075000 3.215000 -1.435000
v 1.015000 2.725000 -2.065000
v 1.015000 2.785000 -2.125000
v 1.075000 2.785000 -2.065000
v 1.015000 3.275000 -2.065000
v 1.075000 3.215000 -2.065000
v 1.015000 3.215000 -2.125000
v 1.225000 0.350000 1.200000
v 1.225000 0.500000 1.350000
v 1.075000 0.500000 1.200000
v 1.225000 2.100000 1.350000
v 1.225000 2.250000 1.200000
v 1.075000 2.100000 1.200000
v 1.225000 0.350000 -0.600000
v 1.075000 0.500000 -0.600000
v 1.225000 0.500000 -0.750000
v 1.225000 2.250000 -0.600000
v 1.225000 2.100000 -0.750000
v 1.075000 2.100000 -0.600000
v 1.975000 0.350000 1.200000
v 2.125000 0.500000 1.200000
v 1.975000 0.500000 1.350000
v 1.975000 2.250000 1.200000
v 1.975000 2.100000 1.350000
v 2.125000 2.100000 1.200000
v 1.975000 0.350000 -0.600000
v 1.975000 0.500000 -0.750000
v 2.125000 0.500000 -0.600000
v 1.975000 2.250000 -0.600000
v 2.125000 2.100000 -0.600000
v 1.975000 2.100000 -0.750000
v 1.005000 0.000000 0.070000
v 1.005000 0.080000 0.150000
v 0.925000 0.080000 0.070000
v 1.005000 0.420000 0.150000
v 1.005000 0.500000 0.070000
v 0.925000 0.420000 0.070000
v 1.005000 0.000000 -1.870000
v 0.925000 0.080000 -1.870000
v 1.005000 0.080000 -1.950000
v 1.005000 0.500000 -1.870000
v 1.005000 0.420000 -1.950000
v 0.925000 0.420000 -1.870000
v 1.795000 0.000000 0.070000
v 1.875000 0.080000 0.070000
v 1.795000 0.080000 0.150000
v 1.795000 0.500000 0.070000
v 1.795000 0.420000 0.150000
v 1.875000 0.420000 0.070000
v 1.795000 0.000000 -1.870000
v 1.795000 0.080000 -1.950000
v 1.875000 0.080000 -1.870000
v 1.795000 0.500000 -1.870000
v 1.875000 0.420000 -1.870000
v 1.795000 0.420000 -1.950000
v 1.050000 0.050000 -1.900000
v 1.050000 0.250000 -1.900000
v 1.050000 0.050000 -2.200000
v 1.050000 0.250000 -2.200000
v 1.250000 0.050000 -1.900000
v 1.250000 0.250000 -1.900000
v 1.250000 0.050000 -2.200000
v 1.250000 0.250000 -2.200000
v 1.550000 0.050000 -1.900000
v 1.550000 0.250000 -1.900000
v 1.550000 0.050000 -2.200000
v 1.550000 0.250000 -2.200000
v 1.750000 0.050000 -1.900000
v 1.750000 0.250000 -1.900000
v 1.750000 0.050000 -2.200000
v 1.750000 0.250000 -2.200000
v -0.375000 2.575000 -1.425000
v -0.365584 2.674593 -1.334011
v -0.465989 2.674593 -1.434416
v -0.288606 3.525407 -1.410989
v -0.280000 3.625000 -1.520000
v -0.389011 3.525407 -1.511394
v -0.375000 2.575000 -2.175000
v -0.465989 2.674593 -2.165584
v -0.365584 2.674593 -2.265989
v -0.280000 3.625000 -2.080000
v -0.288606 3.525407 -2.189011
v -0.389011 3.525407 -2.088605
v 0.375000 2.575000 -1.425000
v 0.465989 2.674593 -1.434416
v 0.365584 2.674593 -1.334011
v 0.280000 3.625000 -1.520000
v 0.288606 3.525407 -1.410989
v 0.389011 3.525407 -1.511394
v 0.375000 2.575000 -2.175000
v 0.365584 2.674593 -2.265989
v 0.465989 2.674593 -2.165584
v 0.280000 3.625000 -2.080000
v 0.389011 3.525407 -2.088605
v 0.288606 3.525407 -2.189011
v -0.490000 3.520000 -1.310000
v -0.490000 3.580000 -1.250000
v -0.550000 3.580000 -1.310000
v -0.490000 3.860000 -1.250000
v -0.490000 3.920000 -1.310000
v -0.550000 3.860000 -1.310000
v -0.490000 3.520000 -2.290000
v -0.550000 3.580000 -2.290000
v -0.490000 3.580000 -2.350000
v -0.490000 3.920000 -2.290000
v -0.490000 3.860000 -2.350000
v -0.550000 3.860000 -2.290000
v 0.490000 3.520000 -1.310000
v 0.550000 3.580000 -1.310000
v 0.490000 3.580000 -1.250000
v 0.490000 3.920000 -1.310000
v 0.490000 3.860000 -1.250000
v 0.550000 3.860000 -1.310000
v 0.490000 3.520000 -2.290000
v 0.490000 3.580000 -2.350000
v 0.550000 3.580000 -2.290000
v 0.490000 3.920000 -2.290000
v 0.550000 3.860000 -2.290000
v 0.490000 3.860000 -2.350000
v -0.100000 3.875000 -1.700000
v -0.100000 4.125000 -1.700000
v -0.100000 3.875000 -1.900000
v -0.100000 4.125000 -1.900000
v 0.100000 3.875000 -1.700000
v 0.100000 4.125000 -1.700000
v 0.100000 3.875000 -1.900000
v 0.100000 4.125000 -1.900000
v -0.630000 0.800000 2.480000
v -0.630000 1.020000 2.700000
v -0.850000 1.020000 2.480000
v -0.630000 2.180000 2.700000
v -0.630000 2.400000 2.480000
v -0.850000 2.180000 2.480000
v -0.630000 0.800000 1.320000
v -0.850000 1.020000 1.320000
v -0.630000 1.020000 1.100000
v -0.630000 2.400000 1.320000
v -0.630000 2.180000 1.100000
v -0.850000 2.180000 1.320000
v 0.630000 0.800000 2.480000
v 0.850000 1.020000 2.480000
v 0.630000 1.020000 2.700000
v 0.630000 2.400000 2.480000
v 0.630000 2.180000 2.700000
v 0.850000 2.180000 2.480000
v 0.630000 0.800000 1.320000
v 0.630000 1.020000 1.100000
v 0.850000 1.020000 1.320000
v 0.630000 2.400000 1.320000
v 0.850000 2.180000 1.320000
v 0.630000 2.180000 1.100000
v -0.730000 1.798631 3.378656
v -0.730000 1.977086 3.633517
v -0.950000 2.015288 3.416859
v -0.730000 3.710348 3.939137
v -0.730000 3.965208 3.760682
v -0.950000 3.748550 3.722480
v -0.730000 2.034792 2.039318
v -0.950000 2.251450 2.077520
v -0.730000 2.289652 1.860863
v -0.730000 4.201369 2.421344
v -0.730000 4.022914 2.166484
v -0.950000 3.984712 2.383141
v 0.730000 1.798631 3.378656
v 0.950000 2.015288 3.416859
v 0.730000 1.977086 3.633517
v 0.730000 3.965208 3.760682
v 0.730000 3.710348 3.939137
v 0.950000 3.748550 3.722480
v 0.730000 2.034792 2.039318
v 0.730000 2.289652 1.860863
v 0.950000 2.251450 2.077520
v 0.730000 4.201369 2.421344
v 0.950000 3.984712 2.383141
v 0.730000 4.022914 2.166484
v -0.830000 3.536585 3.972445
v -0.830000 3.736574 4.210782
v -1.050000 3.755748 3.991619
v -0.830000 5.689116 4.381608
v -0.830000 5.927453 4.181619
v -1.050000 5.708290 4.162445
v -0.830000 3.672548 2.418381
v -1.050000 3.891711 2.437556
v -0.830000 3.910885 2.218393
v -0.830000 6.063416 2.627555
v -0.830000 5.863427 2.389218
v -1.050000 5.844253 2.608381
v 0.830000 3.536585 3.972445
v 1.050000 3.755748 3.991619
v 0.830000 3.736574 4.210782
v 0.830000 5.927453 4.181619
v 0.830000 5.689116 4.381608
v 1.050000 5.708290 4.162445
v 0.830000 3.672548 2.418381
v 0.830000 3.910885 2.218393
v 1.050000 3.891711 2.437556
v 0.830000 6.063416 2.627555
v 1.050000 5.844253 2.608381
v 0.830000 5.863427 2.389218
v -0.780000 5.691064 3.851064
v -0.780000 5.960508 4.006628
v -1.000000 5.903568 3.794124
v -0.780000 7.757130 3.525224
v -0.780000 7.912694 3.255780
v -1.000000 7.700190 3.312721
v -0.780000 5.287306 2.344220
v -1.000000 5.499810 2.287279
v -0.780000 5.442870 2.074776
v -0.780000 7.508935 1.748936
v -0.780000 7.239491 1.593372
v -1.000000 7.296432 1.805876
v 0.780000 5.691064 3.851064
v 1.000000 5.903568 3.794124
v 0.780000 5.960508 4.006628
v 0.780000 7.912694 3.255780
v 0.780000 7.757130 3.525224
v 1.000000 7.700190 3.312721
v 0.780000 5.287306 2.344220
v 0.780000 5.442870 2.074776
v 1.000000 5.499810 2.287279
v 0.780000 7.508935 1.748936
v 1.000000 7.296432 1.805876
v 0.780000 7.239491 1.593372
v -0.680000 7.542276 2.907198
v -0.680000 7.842802 2.987724
v -0.900000 7.732801 2.797198
v -0.680000 9.107198 2.257724
v -0.680000 9.187724 1.957199
v -0.900000 8.997198 2.067199
v -0.680000 6.812276 1.642801
v -0.900000 7.002801 1.532802
v -0.680000 6.892801 1.342276
v -0.680000 8.457724 0.692801
v -0.680000 8.157198 0.612276
v -0.900000 8.267198 0.802801
v 0.680000 7.542276 2.907198
v 0.900000 7.732801 2.797198
v 0.680000 7.842802 2.987724
v 0.680000 9.187724 1.957199
v 0.680000 9.107198 2.257724
v 0.900000 8.997198 2.067199
v 0.680000 6.812276 1.642801
v 0.680000 6.892801 1.342276
v 0.900000 7.002801 1.532802
v 0.680000 8.457724 0.692801
v 0.900000 8.267198 0.802801
v 0.680000 8.157198 0.612276
v -0.480000 8.523913 1.615211
v -0.480000 8.833857 1.588094
v -0.700000 8.665327 1.446681
v -0.480000 9.515211 0.776087
v -0.480000 9.488095 0.466144
v -0.700000 9.346682 0.634674
v -0.480000 7.711906 0.933856
v -0.700000 7.853320 0.765326
v -0.480000 7.684790 0.623913
v -0.480000 8.676087 -0.215211
v -0.480000 8.366144 -0.188094
v -0.700000 8.534674 -0.046681
v 0.480000 8.523913 1.615211
v 0.700000 8.665327 1.446681
v 0.480000 8.833857 1.588094
v 0.480000 9.488095 0.466144
v 0.480000 9.515211 0.776087
v 0.700000 9.346682 0.634674
v 0.480000 7.711906 0.933856
v 0.480000 7.684790 0.623913
v 0.700000 7.853320 0.765326
v 0.480000 8.676087 -0.215211
v 0.700000 8.534674 -0.046681
v 0.480000 8.366144 -0.188094
v -1.050000 3.810000 4.250000
v -1.050000 3.860000 4.300000
v -1.100000 3.860000 4.250000
v -1.050000 4.040000 4.300000
v -1.050000 4.090000 4.250000
v -1.100000 4.040000 4.250000
v -1.050000 3.810000 2.250000
v -1.100000 3.860000 2.250000
v -1.050000 3.860000 2.200000
v -1.050000 4.090000 2.250000
v -1.050000 4.040000 2.200000
v -1.100000 4.040000 2.250000
v 1.050000 3.810000 4.250000
v 1.100000 3.860000 4.250000
v 1.050000 3.860000 4.300000
v 1.050000 4.090000 4.250000
v 1.050000 4.040000 4.300000
v 1.100000 4.040000 4.250000
v 1.050000 3.810000 2.250000
v 1.050000 3.860000 2.200000
v 1.100000 3.860000 2.250000
v 1.050000 4.090000 2.250000
v 1.100000 4.040000 2.250000
v 1.050000 4.040000 2.200000
v -1.050000 5.560000 4.250000
v -1.050000 5.610000 4.300000
v -1.100000 5.610000 4.250000
v -1.050000 5.789999 4.300000
v -1.050000 5.840000 4.250000
v -1.100000 5.789999 4.250000
v -1.050000 5.560000 2.250000
v -1.100000 5.610000 2.250000
v -1.050000 5.610000 2.200000
v -1.050000 5.840000 2.250000
v -1.050000 5.789999 2.200000
v -1.100000 5.789999 2.250000
v 1.050000 5.560000 4.250000
v 1.100000 5.610000 4.250000
v 1.050000 5.610000 4.300000
v 1.050000 5.840000 4.250000
v 1.050000 5.789999 4.300000
v 1.100000 5.789999 4.250000
v 1.050000 5.560000 2.250000
v 1.050000 5.610000 2.200000
v 1.100000 5.610000 2.250000
v 1.050000 5.840000 2.250000
v 1.100000 5.789999 2.250000
v 1.050000 5.789999 2.200000
v -1.050000 7.210000 3.900000
v -1.050000 7.260000 3.950000
v -1.100000 7.260000 3.900000
v -1.050000 7.440000 3.950000
v -1.050000 7.490000 3.900000
v -1.100000 7.440000 3.900000
v -1.050000 7.210000 1.900000
v -1.100000 7.260000 1.900000
v -1.050000 7.260000 1.850000
v -1.050000 7.490000 1.900000
v -1.050000 7.440000 1.850000
v -1.100000 7.440000 1.900000
v 1.050000 7.210000 3.900000
v 1.100000 7.260000 3.900000
v 1.050000 7.260000 3.950000
v 1.050000 7.490000 3.900000
v 1.050000 7.440000 3.950000
v 1.100000 7.440000 3.900000
v 1.050000 7.210000 1.900000
v 1.050000 7.260000 1.850000
v 1.100000 7.260000 1.900000
v 1.050000 7.490000 1.900000
v 1.100000 7.440000 1.900000
v 1.050000 7.440000 1.850000
vn -0.5774 -0.5774 0.5773
vn -0.5774 0.5774 0.5773
vn -0.5774 -0.5774 -0.5773
vn -0.5774 0.5774 -0.5773
vn 0.5774 -0.5774 0.5773
vn 0.5774 0.5774 0.5773
vn 0.5774 -0.5774 -0.5773
vn 0.5774 0.5774 -0.5773
vn -0.7071 -0.7071 -0.0000
vn -0.7071 -0.0000 0.7071
vn -0.7071 0.7071 -0.0000
vn -0.7071 -0.0000 -0.7071
vn -0.0000 -0.7071 -0.7071
vn -0.0000 0.7071 -0.7071
vn 0.7071 -0.0000 -0.7071
vn 0.7071 -0.7071 -0.0000
vn 0.7071 0.7071 -0.0000
vn 0.7071 -0.0000 0.7071
vn -0.0000 -0.7071 0.7071
vn -0.0000 0.7071 0.7071
vn -0.0000 -1.0000 -0.0000
vn -1.0000 -0.0000 -0.0000
vn -0.0000 -0.0000 1.0000
vn -0.0000 1.0000 -0.0000
vn -0.0000 -0.0000 -1.0000
vn 1.0000 -0.0000 -0.0000
vn -0.5774 0.5774 -0.5774
vn 0.5773 0.5774 0.5773
vn 0.5773 0.5774 -0.5774
vn -0.5774 0.5773 0.5773
vn -0.5774 -0.5773 -0.5774
vn -0.5774 0.5773 -0.5773
vn 0.5774 0.5773 0.5773
vn 0.5774 -0.5773 -0.5774
vn 0.5774 0.5773 -0.5773
vn -0.6163 -0.4852 0.6203
vn -0.5345 0.6518 0.5380
vn -0.6163 -0.4852 -0.6203
vn -0.5345 0.6518 -0.5380
vn 0.6163 -0.4852 0.6203
vn 0.5345 0.6518 0.5380
vn 0.6163 -0.4852 -0.6203
vn 0.5345 0.6518 -0.5380
vn -0.7491 -0.6625 -0.0000
vn -0.6979 0.1505 0.7002
vn -0.6625 0.7491 -0.0000
vn -0.6979 0.1505 -0.7002
vn -0.0000 -0.6738 -0.7389
vn -0.0000 0.7389 -0.6738
vn 0.6979 0.1505 -0.7002
vn 0.7491 -0.6625 -0.0000
vn 0.6625 0.7491 -0.0000
vn 0.6979 0.1505 0.7002
vn -0.0000 -0.6738 0.7389
vn -0.0000 0.7389 0.6738
vn -0.9925 0.1222 -0.0000
vn -0.0000 0.0919 0.9958
vn -0.0000 0.0919 -0.9958
vn 0.9925 0.1222 -0.0000
vn -0.5774 -0.5773 0.5774
vn -0.5774 0.5773 0.5774
vn -0.5773 -0.5773 -0.5774
vn -0.5773 0.5773 -0.5774
vn 0.5774 -0.5773 0.5774
vn 0.5774 0.5773 0.5774
vn 0.5773 -0.5773 -0.5774
vn 0.5773 0.5773 -0.5774
vn -0.5773 -0.5773 0.5774
vn -0.5773 0.5773 0.5774
vn 0.5773 -0.5773 0.5774
vn 0.5773 0.5773 0.5774
vn -0.5774 -0.5774 0.5774
vn -0.5774 0.5774 0.5774
vn -0.5774 -0.5774 -0.5774
vn -0.5773 0.5774 0.5774
vn -0.5774 -0.5773 -0.5773
vn 0.5774 -0.5773 0.5773
vn 0.5774 -0.5773 -0.5773
vn -0.6364 -0.4244 0.6441
vn -0.5106 0.6871 0.5169
vn -0.6364 -0.4244 -0.6441
vn -0.5106 0.6871 -0.5169
vn 0.6364 -0.4244 0.6441
vn 0.5106 0.6871 0.5169
vn 0.6364 -0.4244 -0.6441
vn 0.5106 0.6871 -0.5169
vn -0.7695 -0.6386 -0.0000
vn -0.6857 0.2321 0.6899
vn -0.6386 0.7695 -0.0000
vn -0.6857 0.2321 -0.6899
vn -0.0000 -0.6526 -0.7577
vn -0.0000 0.7577 -0.6526
vn 0.6857 0.2321 -0.6899
vn 0.7695 -0.6387 -0.0000
vn 0.6386 0.7695 -0.0000
vn 0.6857 0.2321 0.6899
vn -0.0000 -0.6526 0.7577
vn -0.0000 0.7577 0.6526
vn -0.9829 0.1843 -0.0000
vn -0.0000 0.1483 0.9889
vn -0.0000 0.1483 -0.9889
vn 0.9829 0.1843 -0.0000
vn -0.5774 -0.7400 0.3451
vn -0.5773 0.3451 0.7400
vn -0.5773 -0.3451 -0.7400
vn -0.5774 0.7400 -0.3451
vn 0.5774 -0.7400 0.3451
vn 0.5773 0.3451 0.7400
vn 0.5774 -0.3451 -0.7400
vn 0.5773 0.7400 -0.3451
vn -0.7071 -0.6645 -0.2418
vn -0.7071 -0.2418 0.6645
vn -0.7071 0.6645 0.2418
vn -0.7071 0.2418 -0.6645
vn -0.0000 -0.4226 -0.9063
vn -0.0000 0.9063 -0.4226
vn 0.7071 0.2418 -0.6645
vn 0.7071 -0.6645 -0.2418
vn 0.7071 0.6645 0.2418
vn 0.7071 -0.2418 0.6645
vn -0.0000 -0.9063 0.4226
vn -0.0000 0.4226 0.9063
vn -0.0000 -0.9397 -0.3420
vn -0.0000 -0.3420 0.9397
vn -0.0000 0.9397 0.3420
vn -0.0000 0.3420 -0.9397
vn -0.5774 0.5773 -0.5774
vn 0.5774 -0.5774 0.5774
vn 0.5774 0.5773 -0.5774
vn 0.5773 -0.5774 0.5774
vn 0.5774 0.5774 0.5774
vn 0.5774 -0.5774 -0.5774
vn 0.5774 0.5774 -0.5774
vn -0.5774 0.3451 0.7400
vn -0.6119 -0.5012 0.6119
vn -0.5427 0.6410 0.5428
vn -0.6119 -0.5012 -0.6119
vn -0.5427 0.6410 -0.5428
vn 0.6119 -0.5012 0.6119
vn 0.5427 0.6410 0.5428
vn 0.6119 -0.5012 -0.6119
vn 0.5427 0.6410 -0.5428
vn -0.7383 -0.6745 -0.0000
vn -0.7014 0.1269 0.7014
vn -0.6745 0.7383 -0.0000
vn -0.7014 0.1269 -0.7014
vn -0.0000 -0.6745 -0.7383
vn -0.0000 0.7383 -0.6745
vn 0.7014 0.1269 -0.7014
vn 0.7383 -0.6745 -0.0000
vn 0.6745 0.7383 -0.0000
vn 0.7014 0.1269 0.7014
vn -0.0000 -0.6745 0.7383
vn -0.0000 0.7383 0.6745
vn -0.9959 0.0901 -0.0000
vn -0.0000 0.0901 0.9959
vn -0.0000 0.0901 -0.9959
vn 0.9959 0.0901 -0.0000
vn -0.5773 0.5774 -0.5774
vn 0.5773 0.5774 0.5774
vn -0.5774 -0.6688 0.4683
vn -0.5774 0.4683 0.6688
vn -0.5774 -0.4683 -0.6688
vn -0.5773 0.6688 -0.4683
vn 0.5774 -0.6688 0.4683
vn 0.5773 0.4683 0.6688
vn 0.5773 -0.4683 -0.6688
vn 0.5773 0.6688 -0.4683
vn -0.7071 -0.6964 -0.1228
vn -0.7071 -0.1228 0.6964
vn -0.7071 0.6964 0.1228
vn -0.7071 0.1228 -0.6964
vn -0.0000 -0.5736 -0.8192
vn -0.0000 0.8192 -0.5736
vn 0.7071 0.1228 -0.6964
vn 0.7071 -0.6964 -0.1228
vn 0.7071 0.6964 0.1228
vn 0.7071 -0.1228 0.6964
vn -0.0000 -0.8192 0.5736
vn -0.0000 0.5736 0.8192
vn -0.0000 -0.9848 -0.1736
vn -0.0000 -0.1736 0.9848
vn -0.0000 0.9848 0.1736
vn -0.0000 0.1736 -0.9848
vn -0.5774 -0.6255 0.5248
vn -0.5773 0.5248 0.6255
vn -0.5773 -0.5248 -0.6255
vn -0.5773 0.6255 -0.5248
vn 0.5774 -0.6255 0.5248
vn 0.5773 0.5248 0.6255
vn 0.5773 -0.5248 -0.6255
vn 0.5773 0.6255 -0.5248
vn -0.7071 -0.7044 -0.0616
vn -0.7071 -0.0616 0.7044
vn -0.7071 0.7044 0.0616
vn -0.7071 0.0616 -0.7044
vn -0.0000 -0.6428 -0.7660
vn -0.0000 0.7660 -0.6428
vn 0.7071 0.0616 -0.7044
vn 0.7071 -0.7044 -0.0616
vn 0.7071 0.7044 0.0616
vn 0.7071 -0.0616 0.7044
vn -0.0000 -0.7660 0.6428
vn -0.0000 0.6428 0.7660
vn -0.0000 -0.9962 -0.0872
vn -0.0000 -0.0872 0.9962
vn -0.0000 0.9962 0.0872
vn -0.0000 0.0872 -0.9962
vn -0.5774 -0.4082 0.7071
vn -0.5773 0.7071 0.4082
vn -0.5773 -0.7071 -0.4082
vn -0.5773 0.4082 -0.7071
vn 0.5774 -0.4082 0.7071
vn 0.5774 0.7071 0.4082
vn 0.5773 -0.7071 -0.4082
vn 0.5773 0.4082 -0.7071
vn -0.7071 -0.6830 0.1830
vn -0.7071 0.1830 0.6830
vn -0.7071 0.6830 -0.1830
vn -0.7071 -0.1830 -0.6830
vn -0.0000 -0.8660 -0.5000
vn -0.0000 0.5000 -0.8660
vn 0.7071 -0.1830 -0.6830
vn 0.7071 -0.6830 0.1830
vn 0.7071 0.6830 -0.1830
vn 0.7071 0.1830 0.6830
vn -0.0000 -0.5000 0.8660
vn -0.0000 0.8660 0.5000
vn -0.0000 -0.9659 0.2588
vn -0.0000 0.2588 0.9659
vn -0.0000 0.9659 -0.2588
vn -0.0000 -0.2588 -0.9659
vn -0.5773 -0.2113 0.7887
vn -0.5773 0.7887 0.2113
vn -0.5774 -0.7887 -0.2113
vn -0.5773 0.2113 -0.7887
vn 0.5773 -0.2113 0.7887
vn 0.5773 0.7887 0.2113
vn 0.5774 -0.7887 -0.2113
vn 0.5773 0.2113 -0.7887
vn -0.7071 -0.6124 0.3536
vn -0.7071 0.3536 0.6124
vn -0.7071 0.6124 -0.3536
vn -0.7071 -0.3536 -0.6124
vn -0.0000 -0.9659 -0.2588
vn -0.0000 0.2588 -0.9659
vn 0.7071 -0.3536 -0.6124
vn 0.7071 -0.6124 0.3536
vn 0.7071 0.6124 -0.3536
vn 0.7071 0.3536 0.6124
vn -0.0000 -0.2588 0.9659
vn -0.0000 0.9659 0.2588
vn -0.0000 -0.8660 0.5000
vn -0.0000 0.5000 0.8660
vn -0.0000 0.8660 -0.5000
vn -0.0000 -0.5000 -0.8660
vn -0.5774 0.0712 0.8134
vn -0.5774 0.8134 -0.0712
vn -0.5773 -0.8134 0.0712
vn -0.5774 -0.0712 -0.8134
vn 0.5773 0.0712 0.8134
vn 0.5774 0.8134 -0.0712
vn 0.5773 -0.8134 0.0712
vn 0.5774 -0.0712 -0.8134
vn -0.7071 -0.4545 0.5417
vn -0.7071 0.5417 0.4545
vn -0.7071 0.4545 -0.5417
vn -0.7071 -0.5417 -0.4545
vn -0.0000 -0.9962 0.0872
vn -0.0000 -0.0872 -0.9962
vn 0.7071 -0.5417 -0.4545
vn 0.7071 -0.4545 0.5417
vn 0.7071 0.4545 -0.5417
vn 0.7071 0.5417 0.4545
vn -0.0000 0.0872 0.9962
vn -0.0000 0.9962 -0.0872
vn -0.0000 -0.6428 0.7660
vn -0.0000 0.7660 0.6428
vn -0.0000 0.6428 -0.7660
vn -0.0000 -0.7660 -0.6428
vn -0.5773 -0.5774 -0.5774
vn 0.5773 -0.5774 -0.5774
vn -0.5774 -0.5773 0.5773
vn -0.5773 0.5774 0.5773
vn -0.6625 0.7490 -0.0000
vn 0.6625 0.7490 -0.0000
vn -0.7695 -0.6387 -0.0000
vn 0.7695 -0.6386 -0.0000
s 0
usemtl Squirrel_black
f 97//60 98//60 99//60
f 100//61 101//61 102//61
f 103//62 104//62 105//62
f 106//63 107//63 108//63
f 109//64 110//64 111//64
f 112//65 113//65 114//65
f 115//66 116//66 117//66
f 118//67 119//67 120//67
f 97//9 104//9 103//9
f 100//10 99//10 98//10
f 106//11 102//11 101//11
f 105//12 108//12 107//12
f 103//13 116//13 115//13
f 118//14 107//14 106//14
f 117//15 120//15 119//15
f 115//16 110//16 109//16
f 112//17 119//17 118//17
f 111//18 114//18 113//18
f 109//19 98//19 97//19
f 101//20 113//20 112//20
f 115//21 97//21 103//21
f 102//22 104//22 99//22
f 113//23 98//23 111//23
f 106//24 112//24 118//24
f 107//25 116//25 105//25
f 119//26 110//26 117//26
f 121//68 122//68 123//68
f 124//69 125//69 126//69
f 127//62 128//62 129//62
f 130//63 131//63 132//63
f 133//70 134//70 135//70
f 136//71 137//71 138//71
f 139//66 140//66 141//66
f 142//67 143//67 144//67
f 121//9 128//9 127//9
f 124//10 123//10 122//10
f 130//11 126//11 125//11
f 129//12 132//12 131//12
f 127//13 140//13 139//13
f 142//14 131//14 130//14
f 141//15 144//15 143//15
f 139//16 134//16 133//16
f 136//17 143//17 142//17
f 135//18 138//18 137//18
f 133//19 122//19 121//19
f 125//20 137//20 136//20
f 139//21 121//21 127//21
f 126//22 128//22 123//22
f 137//23 122//23 135//23
f 130//24 136//24 142//24
f 131//25 140//25 129//25
f 143//26 134//26 141//26
f 153//68 154//68 155//68
f 156//69 157//69 158//69
f 159//62 160//62 161//62
f 162//63 163//63 164//63
f 165//70 166//70 167//70
f 168//71 169//71 170//71
f 171//66 172//66 173//66
f 174//67 175//67 176//67
f 153//9 160//9 159//9
f 156//10 155//10 154//10
f 162//11 158//11 157//11
f 161//12 164//12 163//12
f 159//13 172//13 171//13
f 174//14 163//14 162//14
f 173//15 176//15 175//15
f 171//16 166//16 165//16
f 168//17 175//17 174//17
f 167//18 170//18 169//18
f 165//19 154//19 153//19
f 157//20 169//20 168//20
f 171//21 153//21 159//21
f 158//22 160//22 155//22
f 169//23 154//23 167//23
f 162//24 168//24 174//24
f 163//25 172//25 161//25
f 175//26 166//26 173//26
f 97//9 99//9 104//9
f 100//10 102//10 99//10
f 106//11 108//11 102//11
f 105//12 104//12 108//12
f 103//13 105//13 116//13
f 118//14 120//14 107//14
f 117//15 116//15 120//15
f 115//16 117//16 110//16
f 112//17 114//17 119//17
f 111//18 110//18 114//18
f 109//19 111//19 98//19
f 101//20 100//20 113//20
f 115//21 109//21 97//21
f 102//22 108//22 104//22
f 113//23 100//23 98//23
f 106//24 101//24 112//24
f 107//25 120//25 116//25
f 119//26 114//26 110//26
f 121//9 123//9 128//9
f 124//10 126//10 123//10
f 130//11 132//11 126//11
f 129//12 128//12 132//12
f 127//13 129//13 140//13
f 142//14 144//14 131//14
f 141//15 140//15 144//15
f 139//16 141//16 134//16
f 136//17 138//17 143//17
f 135//18 134//18 138//18
f 133//19 135//19 122//19
f 125//20 124//20 137//20
f 139//21 133//21 121//21
f 126//22 132//22 128//22
f 137//23 124//23 122//23
f 130//24 125//24 136//24
f 131//25 144//25 140//25
f 143//26 138//26 134//26
f 153//9 155//9 160//9
f 156//10 158//10 155//10
f 162//11 164//11 158//11
f 161//12 160//12 164//12
f 159//13 161//13 172//13
f 174//14 176//14 163//14
f 173//15 172//15 176//15
f 171//16 173//16 166//16
f 168//17 170//17 175//17
f 167//18 166//18 170//18
f 165//19 167//19 154//19
f 157//20 156//20 169//20
f 171//21 165//21 153//21
f 158//22 164//22 160//22
f 169//23 156//23 154//23
f 162//24 157//24 168//24
f 163//25 176//25 172//25
f 175//26 170//26 166//26
usemtl Squirrel_white
f 146//22 147//22 145//22
f 148//25 151//25 147//25
f 152//26 149//26 151//26
f 150//23 145//23 149//23
f 151//21 145//21 147//21
f 148//24 150//24 152//24
f 178//22 179//22 177//22
f 180//25 183//25 179//25
f 184//26 181//26 183//26
f 182//23 177//23 181//23
f 183//21 177//21 179//21
f 180//24 182//24 184//24
f 146//22 148//22 147//22
f 148//25 152//25 151//25
f 152//26 150//26 149//26
f 150//23 146//23 145//23
f 151//21 149//21 145//21
f 148//24 146//24 150//24
f 178//22 180//22 179//22
f 180//25 184//25 183//25
f 184//26 182//26 181//26
f 182//23 178//23 177//23
f 183//21 181//21 177//21
f 180//24 178//24 182//24
usemtl Squirrel_pink
f 185//72 186//72 187//72
f 188//73 189//73 190//73
f 191//74 192//74 193//74
f 194//27 195//27 196//27
f 197//70 198//70 199//70
f 200//71 201//71 202//71
f 203//66 204//66 205//66
f 206//67 207//67 208//67
f 185//9 192//9 191//9
f 188//10 187//10 186//10
f 194//11 190//11 189//11
f 193//12 196//12 195//12
f 191//13 204//13 203//13
f 206//14 195//14 194//14
f 205//15 208//15 207//15
f 203//16 198//16 197//16
f 200//17 207//17 206//17
f 199//18 202//18 201//18
f 197//19 186//19 185//19
f 189//20 201//20 200//20
f 203//21 185//21 191//21
f 190//22 192//22 187//22
f 201//23 186//23 199//23
f 194//24 200//24 206//24
f 195//25 204//25 193//25
f 207//26 198//26 205//26
f 369//68 370//68 371//68
f 372//69 373//69 374//69
f 375//62 376//62 377//62
f 378//63 379//63 380//63
f 381//128 382//128 383//128
f 384//131 385//131 386//131
f 387//132 388//132 389//132
f 390//133 391//133 392//133
f 369//9 376//9 375//9
f 372//10 371//10 370//10
f 378//11 374//11 373//11
f 377//12 380//12 379//12
f 375//13 388//13 387//13
f 390//14 379//14 378//14
f 389//15 392//15 391//15
f 387//16 382//16 381//16
f 384//17 391//17 390//17
f 383//18 386//18 385//18
f 381//19 370//19 369//19
f 373//20 385//20 384//20
f 387//21 369//21 375//21
f 374//22 376//22 371//22
f 385//23 370//23 383//23
f 378//24 384//24 390//24
f 379//25 388//25 377//25
f 391//26 382//26 389//26
f 185//9 187//9 192//9
f 188//10 190//10 187//10
f 194//11 196//11 190//11
f 193//12 192//12 196//12
f 191//13 193//13 204//13
f 206//14 208//14 195//14
f 205//15 204//15 208//15
f 203//16 205//16 198//16
f 200//17 202//17 207//17
f 199//18 198//18 202//18
f 197//19 199//19 186//19
f 189//20 188//20 201//20
f 203//21 197//21 185//21
f 190//22 196//22 192//22
f 201//23 188//23 186//23
f 194//24 189//24 200//24
f 195//25 208//25 204//25
f 207//26 202//26 198//26
f 369//9 371//9 376//9
f 372//10 374//10 371//10
f 378//11 380//11 374//11
f 377//12 376//12 380//12
f 375//13 377//13 388//13
f 390//14 392//14 379//14
f 389//15 388//15 392//15
f 387//16 389//16 382//16
f 384//17 386//17 391//17
f 383//18 382//18 386//18
f 381//19 383//19 370//19
f 373//20 372//20 385//20
f 387//21 381//21 369//21
f 374//22 380//22 376//22
f 385//23 372//23 370//23
f 378//24 373//24 384//24
f 379//25 392//25 388//25
f 391//26 386//26 382//26
usemtl Squirrel_fur
f 1//1 2//1 3//1
f 4//2 5//2 6//2
f 7//3 8//3 9//3
f 10//4 11//4 12//4
f 13//5 14//5 15//5
f 16//6 17//6 18//6
f 19//7 20//7 21//7
f 22//8 23//8 24//8
f 1//9 8//9 7//9
f 4//10 3//10 2//10
f 10//11 6//11 5//11
f 9//12 12//12 11//12
f 7//13 20//13 19//13
f 22//14 11//14 10//14
f 21//15 24//15 23//15
f 19//16 14//16 13//16
f 16//17 23//17 22//17
f 15//18 18//18 17//18
f 13//19 2//19 1//19
f 5//20 17//20 16//20
f 19//21 1//21 7//21
f 6//22 8//22 3//22
f 17//23 2//23 15//23
f 10//24 16//24 22//24
f 11//25 20//25 9//25
f 23//26 14//26 21//26
f 49//1 50//1 51//1
f 52//30 53//30 54//30
f 55//31 56//31 57//31
f 58//32 59//32 60//32
f 61//5 62//5 63//5
f 64//33 65//33 66//33
f 67//34 68//34 69//34
f 70//35 71//35 72//35
f 49//9 56//9 55//9
f 52//10 51//10 50//10
f 58//11 54//11 53//11
f 57//12 60//12 59//12
f 55//13 68//13 67//13
f 70//14 59//14 58//14
f 69//15 72//15 71//15
f 67//16 62//16 61//16
f 64//17 71//17 70//17
f 63//18 66//18 65//18
f 61//19 50//19 49//19
f 53//20 65//20 64//20
f 67//21 49//21 55//21
f 54//22 56//22 51//22
f 65//23 50//23 63//23
f 58//24 64//24 70//24
f 59//25 68//25 57//25
f 71//26 62//26 69//26
f 209//1 210//1 211//1
f 212//75 213//75 214//75
f 215//76 216//76 217//76
f 218//32 219//32 220//32
f 221//77 222//77 223//77
f 224//28 225//28 226//28
f 227//78 228//78 229//78
f 230//35 231//35 232//35
f 209//9 216//9 215//9
f 212//10 211//10 210//10
f 218//11 214//11 213//11
f 217//12 220//12 219//12
f 215//13 228//13 227//13
f 230//14 219//14 218//14
f 229//15 232//15 231//15
f 227//16 222//16 221//16
f 224//17 231//17 230//17
f 223//18 226//18 225//18
f 221//19 210//19 209//19
f 213//20 225//20 224//20
f 227//21 209//21 215//21
f 214//22 216//22 211//22
f 225//23 210//23 223//23
f 218//24 224//24 230//24
f 219//25 228//25 217//25
f 231//26 222//26 229//26
f 257//103 258//103 259//103
f 260//104 261//104 262//104
f 263//105 264//105 265//105
f 266//106 267//106 268//106
f 269//107 270//107 271//107
f 272//108 273//108 274//108
f 275//109 276//109 277//109
f 278//110 279//110 280//110
f 257//111 264//111 263//111
f 260//112 259//112 258//112
f 266//113 262//113 261//113
f 267//114 264//114 268//114
f 275//115 265//115 276//115
f 278//116 267//116 266//116
f 279//117 276//117 280//117
f 269//118 277//118 270//118
f 278//119 274//119 279//119
f 273//120 270//120 274//120
f 269//121 258//121 257//121
f 261//122 273//122 272//122
f 275//123 257//123 263//123
f 262//22 264//22 259//22
f 273//124 258//124 271//124
f 266//125 272//125 278//125
f 267//126 276//126 265//126
f 279//26 270//26 277//26
f 393//1 394//1 395//1
f 396//75 397//75 398//75
f 399//76 400//76 401//76
f 402//32 403//32 404//32
f 405//77 406//77 407//77
f 408//28 409//28 410//28
f 411//78 412//78 413//78
f 414//35 415//35 416//35
f 393//9 400//9 399//9
f 396//10 395//10 394//10
f 402//11 398//11 397//11
f 401//12 404//12 403//12
f 399//13 412//13 411//13
f 414//14 403//14 402//14
f 413//15 416//15 415//15
f 411//16 406//16 405//16
f 408//17 415//17 414//17
f 407//18 410//18 409//18
f 405//19 394//19 393//19
f 397//20 409//20 408//20
f 411//21 393//21 399//21
f 398//22 400//22 395//22
f 409//23 394//23 407//23
f 402//24 408//24 414//24
f 403//25 412//25 401//25
f 415//26 406//26 413//26
f 441//103 442//103 443//103
f 444//134 445//134 446//134
f 447//105 448//105 449//105
f 450//106 451//106 452//106
f 453//107 454//107 455//107
f 456//108 457//108 458//108
f 459//109 460//109 461//109
f 462//110 463//110 464//110
f 441//111 448//111 447//111
f 444//112 443//112 442//112
f 450//113 446//113 445//113
f 449//114 452//114 451//114
f 459//115 449//115 460//115
f 462//116 451//116 450//116
f 463//117 460//117 464//117
f 453//118 461//118 454//118
f 462//119 458//119 463//119
f 457//120 454//120 458//120
f 453//121 442//121 441//121
f 445//122 457//122 456//122
f 459//123 441//123 447//123
f 446//22 448//22 443//22
f 457//124 442//124 455//124
f 450//125 456//125 462//125
f 451//126 460//126 449//126
f 463//26 454//26 461//26
f 609//72 610//72 611//72
f 612//75 613//75 614//75
f 615//74 616//74 617//74
f 618//159 619//159 620//159
f 621//128 622//128 623//128
f 624//160 625//160 626//160
f 627//132 628//132 629//132
f 630//29 631//29 632//29
f 609//9 616//9 615//9
f 612//10 611//10 610//10
f 618//11 614//11 613//11
f 617//12 620//12 619//12
f 615//13 628//13 627//13
f 630//14 619//14 618//14
f 629//15 632//15 631//15
f 627//16 622//16 621//16
f 624//17 631//17 630//17
f 623//18 626//18 625//18
f 621//19 610//19 609//19
f 613//20 625//20 624//20
f 627//21 609//21 615//21
f 614//22 616//22 611//22
f 625//23 610//23 623//23
f 618//24 624//24 630//24
f 619//25 628//25 617//25
f 631//26 622//26 629//26
f 633//161 634//161 635//161
f 636//162 637//162 638//162
f 639//163 640//163 641//163
f 642//164 643//164 644//164
f 645//165 646//165 647//165
f 648//166 649//166 650//166
f 651//167 652//167 653//167
f 654//168 655//168 656//168
f 633//169 640//169 639//169
f 636//170 635//170 634//170
f 642//171 638//171 637//171
f 641//172 644//172 643//172
f 639//173 652//173 651//173
f 654//174 643//174 642//174
f 655//175 652//175 656//175
f 651//176 646//176 645//176
f 648//177 655//177 654//177
f 649//178 646//178 650//178
f 645//179 634//179 633//179
f 637//180 649//180 648//180
f 651//181 633//181 639//181
f 638//22 640//22 635//22
f 649//182 634//182 647//182
f 642//183 648//183 654//183
f 643//184 652//184 641//184
f 655//26 646//26 653//26
f 657//185 658//185 659//185
f 660//186 661//186 662//186
f 663//187 664//187 665//187
f 666//188 667//188 668//188
f 669//189 670//189 671//189
f 672//190 673//190 674//190
f 675//191 676//191 677//191
f 678//192 679//192 680//192
f 657//193 664//193 663//193
f 660//194 659//194 658//194
f 666//195 662//195 661//195
f 667//196 664//196 668//196
f 663//197 676//197 675//197
f 678//198 667//198 666//198
f 677//199 680//199 679//199
f 675//200 670//200 669//200
f 678//201 674//201 679//201
f 673//202 670//202 674//202
f 669//203 658//203 657//203
f 661//204 673//204 672//204
f 675//205 657//205 663//205
f 662//22 664//22 659//22
f 673//206 658//206 671//206
f 666//207 672//207 678//207
f 667//208 676//208 665//208
f 679//26 670//26 677//26
f 681//209 682//209 683//209
f 684//210 685//210 686//210
f 687//211 688//211 689//211
f 690//212 691//212 692//212
f 693//213 694//213 695//213
f 696//214 697//214 698//214
f 699//215 700//215 701//215
f 702//216 703//216 704//216
f 687//217 683//217 688//217
f 684//218 683//218 682//218
f 685//219 692//219 686//219
f 689//220 692//220 691//220
f 687//221 700//221 699//221
f 702//222 691//222 690//222
f 703//223 700//223 704//223
f 699//224 694//224 693//224
f 696//225 703//225 702//225
f 697//226 694//226 698//226
f 693//227 682//227 681//227
f 685//228 697//228 696//228
f 699//229 681//229 687//229
f 686//22 688//22 683//22
f 697//230 682//230 695//230
f 690//231 696//231 702//231
f 691//232 700//232 689//232
f 701//26 698//26 694//26
f 705//233 706//233 707//233
f 708//234 709//234 710//234
f 711//235 712//235 713//235
f 714//236 715//236 716//236
f 717//237 718//237 719//237
f 720//238 721//238 722//238
f 723//239 724//239 725//239
f 726//240 727//240 728//240
f 705//241 712//241 711//241
f 708//242 707//242 706//242
f 709//243 716//243 710//243
f 713//244 716//244 715//244
f 711//245 724//245 723//245
f 726//246 715//246 714//246
f 727//247 724//247 728//247
f 723//248 718//248 717//248
f 720//249 727//249 726//249
f 721//250 718//250 722//250
f 717//251 706//251 705//251
f 709//252 721//252 720//252
f 723//253 705//253 711//253
f 710//22 712//22 707//22
f 721//254 706//254 719//254
f 714//255 720//255 726//255
f 713//256 728//256 724//256
f 727//26 718//26 725//26
f 1//9 3//9 8//9
f 4//10 6//10 3//10
f 10//11 12//11 6//11
f 9//12 8//12 12//12
f 7//13 9//13 20//13
f 22//14 24//14 11//14
f 21//15 20//15 24//15
f 19//16 21//16 14//16
f 16//17 18//17 23//17
f 15//18 14//18 18//18
f 13//19 15//19 2//19
f 5//20 4//20 17//20
f 19//21 13//21 1//21
f 6//22 12//22 8//22
f 17//23 4//23 2//23
f 10//24 5//24 16//24
f 11//25 24//25 20//25
f 23//26 18//26 14//26
f 49//9 51//9 56//9
f 52//10 54//10 51//10
f 58//11 60//11 54//11
f 57//12 56//12 60//12
f 55//13 57//13 68//13
f 70//14 72//14 59//14
f 69//15 68//15 72//15
f 67//16 69//16 62//16
f 64//17 66//17 71//17
f 63//18 62//18 66//18
f 61//19 63//19 50//19
f 53//20 52//20 65//20
f 67//21 61//21 49//21
f 54//22 60//22 56//22
f 65//23 52//23 50//23
f 58//24 53//24 64//24
f 59//25 72//25 68//25
f 71//26 66//26 62//26
f 209//9 211//9 216//9
f 212//10 214//10 211//10
f 218//11 220//11 214//11
f 217//12 216//12 220//12
f 215//13 217//13 228//13
f 230//14 232//14 219//14
f 229//15 228//15 232//15
f 227//16 229//16 222//16
f 224//17 226//17 231//17
f 223//18 222//18 226//18
f 221//19 223//19 210//19
f 213//20 212//20 225//20
f 227//21 221//21 209//21
f 214//22 220//22 216//22
f 225//23 212//23 210//23
f 218//24 213//24 224//24
f 219//25 232//25 228//25
f 231//26 226//26 222//26
f 257//111 259//111 264//111
f 260//112 262//112 259//112
f 266//113 268//113 262//113
f 267//114 265//114 264//114
f 275//115 263//115 265//115
f 278//116 280//116 267//116
f 279//117 277//117 276//117
f 269//118 275//118 277//118
f 278//119 272//119 274//119
f 273//120 271//120 270//120
f 269//121 271//121 258//121
f 261//122 260//122 273//122
f 275//123 269//123 257//123
f 262//22 268//22 264//22
f 273//124 260//124 258//124
f 266//125 261//125 272//125
f 267//126 280//126 276//126
f 279//26 274//26 270//26
f 393//9 395//9 400//9
f 396//10 398//10 395//10
f 402//11 404//11 398//11
f 401//12 400//12 404//12
f 399//13 401//13 412//13
f 414//14 416//14 403//14
f 413//15 412//15 416//15
f 411//16 413//16 406//16
f 408//17 410//17 415//17
f 407//18 406//18 410//18
f 405//19 407//19 394//19
f 397//20 396//20 409//20
f 411//21 405//21 393//21
f 398//22 404//22 400//22
f 409//23 396//23 394//23
f 402//24 397//24 408//24
f 403//25 416//25 412//25
f 415//26 410//26 406//26
f 441//111 443//111 448//111
f 444//112 446//112 443//112
f 450//113 452//113 446//113
f 449//114 448//114 452//114
f 459//115 447//115 449//115
f 462//116 464//116 451//116
f 463//117 461//117 460//117
f 453//118 459//118 461//118
f 462//119 456//119 458//119
f 457//120 455//120 454//120
f 453//121 455//121 442//121
f 445//122 444//122 457//122
f 459//123 453//123 441//123
f 446//22 452//22 448//22
f 457//124 444//124 442//124
f 450//125 445//125 456//125
f 451//126 464//126 460//126
f 463//26 458//26 454//26
f 609//9 611//9 616//9
f 612//10 614//10 611//10
f 618//11 620//11 614//11
f 617//12 616//12 620//12
f 615//13 617//13 628//13
f 630//14 632//14 619//14
f 629//15 628//15 632//15
f 627//16 629//16 622//16
f 624//17 626//17 631//17
f 623//18 622//18 626//18
f 621//19 623//19 610//19
f 613//20 612//20 625//20
f 627//21 621//21 609//21
f 614//22 620//22 616//22
f 625//23 612//23 610//23
f 618//24 613//24 624//24
f 619//25 632//25 628//25
f 631//26 626//26 622//26
f 633//169 635//169 640//169
f 636//170 638//170 635//170
f 642//171 644//171 638//171
f 641//172 640//172 644//172
f 639//173 641//173 652//173
f 654//174 656//174 643//174
f 655//175 653//175 652//175
f 651//176 653//176 646//176
f 648//177 650//177 655//177
f 649//178 647//178 646//178
f 645//179 647//179 634//179
f 637//180 636//180 649//180
f 651//181 645//181 633//181
f 638//22 644//22 640//22
f 649//182 636//182 634//182
f 642//183 637//183 648//183
f 643//184 656//184 652//184
f 655//26 650//26 646//26
f 657//193 659//193 664//193
f 660//194 662//194 659//194
f 666//195 668//195 662//195
f 667//196 665//196 664//196
f 663//197 665//197 676//197
f 678//198 680//198 667//198
f 677//199 676//199 680//199
f 675//200 677//200 670//200
f 678//201 672//201 674//201
f 673//202 671//202 670//202
f 669//203 671//203 658//203
f 661//204 660//204 673//204
f 675//205 669//205 657//205
f 662//22 668//22 664//22
f 673//206 660//206 658//206
f 666//207 661//207 672//207
f 667//208 680//208 676//208
f 679//26 674//26 670//26
f 687//217 681//217 683//217
f 684//218 686//218 683//218
f 685//219 690//219 692//219
f 689//220 688//220 692//220
f 687//221 689//221 700//221
f 702//222 704//222 691//222
f 703//223 701//223 700//223
f 699//224 701//224 694//224
f 696//225 698//225 703//225
f 697//226 695//226 694//226
f 693//227 695//227 682//227
f 685//228 684//228 697//228
f 699//229 693//229 681//229
f 686//22 692//22 688//22
f 697//230 684//230 682//230
f 690//231 685//231 696//231
f 691//232 704//232 700//232
f 701//26 703//26 698//26
f 705//241 707//241 712//241
f 708//242 710//242 707//242
f 709//243 714//243 716//243
f 713//244 712//244 716//244
f 711//245 713//245 724//245
f 726//246 728//246 715//246
f 727//247 725//247 724//247
f 723//248 725//248 718//248
f 720//249 722//249 727//249
f 721//250 719//250 718//250
f 717//251 719//251 706//251
f 709//252 708//252 721//252
f 723//253 717//253 705//253
f 710//22 716//22 712//22
f 721//254 708//254 706//254
f 714//255 709//255 720//255
f 713//256 715//256 728//256
f 727//26 722//26 718//26
usemtl Squirrel_dark
f 233//79 234//79 235//79
f 236//80 237//80 238//80
f 239//81 240//81 241//81
f 242//82 243//82 244//82
f 245//83 246//83 247//83
f 248//84 249//84 250//84
f 251//85 252//85 253//85
f 254//86 255//86 256//86
f 233//87 240//87 239//87
f 234//88 238//88 235//88
f 237//89 244//89 238//89
f 241//90 244//90 243//90
f 239//91 252//91 251//91
f 242//92 256//92 243//92
f 255//93 252//93 256//93
f 245//94 253//94 246//94
f 248//95 255//95 254//95
f 247//96 250//96 249//96
f 245//97 234//97 233//97
f 237//98 249//98 248//98
f 251//21 233//21 239//21
f 238//99 240//99 235//99
f 249//100 234//100 247//100
f 242//24 248//24 254//24
f 243//101 252//101 241//101
f 253//102 250//102 246//102
f 305//72 306//72 307//72
f 308//73 309//73 310//73
f 311//3 312//3 313//3
f 314//4 315//4 316//4
f 317//128 318//128 319//128
f 320//71 321//71 322//71
f 323//7 324//7 325//7
f 326//129 327//129 328//129
f 305//9 312//9 311//9
f 308//10 307//10 306//10
f 314//11 310//11 309//11
f 313//12 316//12 315//12
f 311//13 324//13 323//13
f 326//14 315//14 314//14
f 325//15 328//15 327//15
f 323//16 318//16 317//16
f 320//17 327//17 326//17
f 319//18 322//18 321//18
f 317//19 306//19 305//19
f 309//20 321//20 320//20
f 323//21 305//21 311//21
f 310//22 312//22 307//22
f 321//23 306//23 319//23
f 314//24 320//24 326//24
f 315//25 324//25 313//25
f 327//26 318//26 325//26
f 354//22 355//22 353//22
f 356//25 359//25 355//25
f 360//26 357//26 359//26
f 358//23 353//23 357//23
f 359//21 353//21 355//21
f 356//24 358//24 360//24
f 362//22 363//22 361//22
f 364//25 367//25 363//25
f 368//26 365//26 367//26
f 366//23 361//23 365//23
f 367//21 361//21 363//21
f 364//24 366//24 368//24
f 417//79 418//79 419//79
f 420//80 421//80 422//80
f 423//81 424//81 425//81
f 426//82 427//82 428//82
f 429//83 430//83 431//83
f 432//84 433//84 434//84
f 435//85 436//85 437//85
f 438//86 439//86 440//86
f 417//87 424//87 423//87
f 418//88 422//88 419//88
f 426//89 422//89 421//89
f 425//90 428//90 427//90
f 423//91 436//91 435//91
f 438//92 427//92 426//92
f 439//93 436//93 440//93
f 429//94 437//94 430//94
f 438//95 434//95 439//95
f 431//96 434//96 433//96
f 429//97 418//97 417//97
f 432//98 420//98 433//98
f 435//21 417//21 423//21
f 422//99 424//99 419//99
f 433//100 418//100 431//100
f 426//24 432//24 438//24
f 427//101 436//101 425//101
f 439//102 430//102 437//102
f 489//72 490//72 491//72
f 492//61 493//61 494//61
f 495//3 496//3 497//3
f 498//127 499//127 500//127
f 501//128 502//128 503//128
f 504//131 505//131 506//131
f 507//7 508//7 509//7
f 510//8 511//8 512//8
f 489//9 496//9 495//9
f 492//10 491//10 490//10
f 498//11 494//11 493//11
f 497//12 500//12 499//12
f 495//13 508//13 507//13
f 510//14 499//14 498//14
f 509//15 512//15 511//15
f 507//16 502//16 501//16
f 504//17 511//17 510//17
f 503//18 506//18 505//18
f 501//19 490//19 489//19
f 493//20 505//20 504//20
f 507//21 489//21 495//21
f 494//22 496//22 491//22
f 505//23 490//23 503//23
f 498//24 504//24 510//24
f 499//25 508//25 497//25
f 511//26 502//26 509//26
f 538//22 539//22 537//22
f 540//25 543//25 539//25
f 544//26 541//26 543//26
f 542//23 537//23 541//23
f 543//21 537//21 539//21
f 540//24 542//24 544//24
f 546//22 547//22 545//22
f 548//25 551//25 547//25
f 552//26 549//26 551//26
f 550//23 545//23 549//23
f 551//21 545//21 547//21
f 548//24 550//24 552//24
f 753//72 754//72 755//72
f 756//30 757//30 758//30
f 759//281 760//281 761//281
f 762//32 763//32 764//32
f 765//128 766//128 767//128
f 768//33 769//33 770//33
f 771//282 772//282 773//282
f 774//35 775//35 776//35
f 753//9 760//9 759//9
f 756//10 755//10 754//10
f 762//11 758//11 757//11
f 761//12 764//12 763//12
f 759//13 772//13 771//13
f 774//14 763//14 762//14
f 773//15 776//15 775//15
f 771//16 766//16 765//16
f 768//17 775//17 774//17
f 767//18 770//18 769//18
f 765//19 754//19 753//19
f 757//20 769//20 768//20
f 771//21 753//21 759//21
f 758//22 760//22 755//22
f 769//23 754//23 767//23
f 762//24 768//24 774//24
f 763//25 772//25 761//25
f 775//26 766//26 773//26
f 777//68 778//68 779//68
f 780//30 781//30 782//30
f 783//281 784//281 785//281
f 786//159 787//159 788//159
f 789//70 790//70 791//70
f 792//33 793//33 794//33
f 795//282 796//282 797//282
f 798//29 799//29 800//29
f 777//9 784//9 783//9
f 780//10 779//10 778//10
f 786//11 782//11 781//11
f 785//12 788//12 787//12
f 783//13 796//13 795//13
f 798//14 787//14 786//14
f 797//15 800//15 799//15
f 795//16 790//16 789//16
f 792//17 799//17 798//17
f 791//18 794//18 793//18
f 789//19 778//19 777//19
f 781//20 793//20 792//20
f 795//21 777//21 783//21
f 782//22 784//22 779//22
f 793//23 778//23 791//23
f 786//24 792//24 798//24
f 787//25 796//25 785//25
f 799//26 790//26 797//26
f 801//283 802//283 803//283
f 804//284 805//284 806//284
f 807//76 808//76 809//76
f 810//63 811//63 812//63
f 813//77 814//77 815//77
f 816//28 817//28 818//28
f 819//78 820//78 821//78
f 822//67 823//67 824//67
f 801//9 808//9 807//9
f 804//10 803//10 802//10
f 810//11 806//11 805//11
f 809//12 812//12 811//12
f 807//13 820//13 819//13
f 822//14 811//14 810//14
f 821//15 824//15 823//15
f 819//16 814//16 813//16
f 816//17 823//17 822//17
f 815//18 818//18 817//18
f 813//19 802//19 801//19
f 805//20 817//20 816//20
f 819//21 801//21 807//21
f 806//22 808//22 803//22
f 817//23 802//23 815//23
f 810//24 816//24 822//24
f 811//25 820//25 809//25
f 823//26 814//26 821//26
f 233//287 235//287 240//287
f 234//88 236//88 238//88
f 237//89 242//89 244//89
f 241//90 240//90 244//90
f 239//91 241//91 252//91
f 242//92 254//92 256//92
f 255//93 253//93 252//93
f 245//288 251//288 253//288
f 248//95 250//95 255//95
f 247//96 246//96 250//96
f 245//97 247//97 234//97
f 237//98 236//98 249//98
f 251//21 245//21 233//21
f 238//99 244//99 240//99
f 249//100 236//100 234//100
f 242//24 237//24 248//24
f 243//101 256//101 252//101
f 253//102 255//102 250//102
f 305//9 307//9 312//9
f 308//10 310//10 307//10
f 314//11 316//11 310//11
f 313//12 312//12 316//12
f 311//13 313//13 324//13
f 326//14 328//14 315//14
f 325//15 324//15 328//15
f 323//16 325//16 318//16
f 320//17 322//17 327//17
f 319//18 318//18 322//18
f 317//19 319//19 306//19
f 309//20 308//20 321//20
f 323//21 317//21 305//21
f 310//22 316//22 312//22
f 321//23 308//23 306//23
f 314//24 309//24 320//24
f 315//25 328//25 324//25
f 327//26 322//26 318//26
f 354//22 356//22 355//22
f 356//25 360//25 359//25
f 360//26 358//26 357//26
f 358//23 354//23 353//23
f 359//21 357//21 353//21
f 356//24 354//24 358//24
f 362//22 364//22 363//22
f 364//25 368//25 367//25
f 368//26 366//26 365//26
f 366//23 362//23 361//23
f 367//21 365//21 361//21
f 364//24 362//24 366//24
f 417//287 419//287 424//287
f 418//88 420//88 422//88
f 426//89 428//89 422//89
f 425//90 424//90 428//90
f 423//91 425//91 436//91
f 438//92 440//92 427//92
f 439//93 437//93 436//93
f 429//288 435//288 437//288
f 438//95 432//95 434//95
f 431//96 430//96 434//96
f 429//97 431//97 418//97
f 432//98 421//98 420//98
f 435//21 429//21 417//21
f 422//99 428//99 424//99
f 433//100 420//100 418//100
f 426//24 421//24 432//24
f 427//101 440//101 436//101
f 439//102 434//102 430//102
f 489//9 491//9 496//9
f 492//10 494//10 491//10
f 498//11 500//11 494//11
f 497//12 496//12 500//12
f 495//13 497//13 508//13
f 510//14 512//14 499//14
f 509//15 508//15 512//15
f 507//16 509//16 502//16
f 504//17 506//17 511//17
f 503//18 502//18 506//18
f 501//19 503//19 490//19
f 493//20 492//20 505//20
f 507//21 501//21 489//21
f 494//22 500//22 496//22
f 505//23 492//23 490//23
f 498//24 493//24 504//24
f 499//25 512//25 508//25
f 511//26 506//26 502//26
f 538//22 540//22 539//22
f 540//25 544//25 543//25
f 544//26 542//26 541//26
f 542//23 538//23 537//23
f 543//21 541//21 537//21
f 540//24 538//24 542//24
f 546//22 548//22 547//22
f 548//25 552//25 551//25
f 552//26 550//26 549//26
f 550//23 546//23 545//23
f 551//21 549//21 545//21
f 548//24 546//24 550//24
f 753//9 755//9 760//9
f 756//10 758//10 755//10
f 762//11 764//11 758//11
f 761//12 760//12 764//12
f 759//13 761//13 772//13
f 774//14 776//14 763//14
f 773//15 772//15 776//15
f 771//16 773//16 766//16
f 768//17 770//17 775//17
f 767//18 766//18 770//18
f 765//19 767//19 754//19
f 757//20 756//20 769//20
f 771//21 765//21 753//21
f 758//22 764//22 760//22
f 769//23 756//23 754//23
f 762//24 757//24 768//24
f 763//25 776//25 772//25
f 775//26 770//26 766//26
f 777//9 779//9 784//9
f 780//10 782//10 779//10
f 786//11 788//11 782//11
f 785//12 784//12 788//12
f 783//13 785//13 796//13
f 798//14 800//14 787//14
f 797//15 796//15 800//15
f 795//16 797//16 790//16
f 792//17 794//17 799//17
f 791//18 790//18 794//18
f 789//19 791//19 778//19
f 781//20 780//20 793//20
f 795//21 789//21 777//21
f 782//22 788//22 784//22
f 793//23 780//23 778//23
f 786//24 781//24 792//24
f 787//25 800//25 796//25
f 799//26 794//26 790//26
f 801//9 803//9 808//9
f 804//10 806//10 803//10
f 810//11 812//11 806//11
f 809//12 808//12 812//12
f 807//13 809//13 820//13
f 822//14 824//14 811//14
f 821//15 820//15 824//15
f 819//16 821//16 814//16
f 816//17 818//17 823//17
f 815//18 814//18 818//18
f 813//19 815//19 802//19
f 805//20 804//20 817//20
f 819//21 813//21 801//21
f 806//22 812//22 808//22
f 817//23 804//23 802//23
f 810//24 805//24 816//24
f 811//25 824//25 820//25
f 823//26 818//26 814//26
usemtl Squirrel_cream
f 25//1 26//1 27//1
f 28//2 29//2 30//2
f 31//3 32//3 33//3
f 34//27 35//27 36//27
f 37//5 38//5 39//5
f 40//28 41//28 42//28
f 43//7 44//7 45//7
f 46//29 47//29 48//29
f 25//9 32//9 31//9
f 28//10 27//10 26//10
f 34//11 30//11 29//11
f 33//12 36//12 35//12
f 43//13 33//13 44//13
f 34//14 48//14 35//14
f 45//15 48//15 47//15
f 43//16 38//16 37//16
f 40//17 47//17 46//17
f 39//18 42//18 41//18
f 25//19 39//19 26//19
f 40//20 28//20 41//20
f 43//21 25//21 31//21
f 30//22 32//22 27//22
f 41//23 26//23 39//23
f 34//24 40//24 46//24
f 35//25 44//25 33//25
f 47//26 38//26 45//26
f 73//36 74//36 75//36
f 76//37 77//37 78//37
f 79//38 80//38 81//38
f 82//39 83//39 84//39
f 85//40 86//40 87//40
f 88//41 89//41 90//41
f 91//42 92//42 93//42
f 94//43 95//43 96//43
f 73//44 80//44 79//44
f 74//45 78//45 75//45
f 82//46 78//46 77//46
f 81//47 84//47 83//47
f 91//48 81//48 92//48
f 94//49 83//49 82//49
f 95//50 92//50 96//50
f 91//51 86//51 85//51
f 88//52 95//52 94//52
f 87//53 90//53 89//53
f 85//54 74//54 73//54
f 77//55 89//55 88//55
f 91//21 73//21 79//21
f 78//56 80//56 75//56
f 87//57 76//57 74//57
f 82//24 88//24 94//24
f 81//58 96//58 92//58
f 95//59 86//59 93//59
f 281//1 282//1 283//1
f 284//2 285//2 286//2
f 287//31 288//31 289//31
f 290//127 291//127 292//127
f 293//64 294//64 295//64
f 296//65 297//65 298//65
f 299//7 300//7 301//7
f 302//8 303//8 304//8
f 281//9 288//9 287//9
f 284//10 283//10 282//10
f 290//11 286//11 285//11
f 289//12 292//12 291//12
f 287//13 300//13 299//13
f 302//14 291//14 290//14
f 301//15 304//15 303//15
f 299//16 294//16 293//16
f 296//17 303//17 302//17
f 295//18 298//18 297//18
f 293//19 282//19 281//19
f 285//20 297//20 296//20
f 299//21 281//21 287//21
f 286//22 288//22 283//22
f 297//23 282//23 295//23
f 290//24 296//24 302//24
f 291//25 300//25 289//25
f 303//26 294//26 301//26
f 329//68 330//68 331//68
f 332//2 333//2 334//2
f 335//31 336//31 337//31
f 338//127 339//127 340//127
f 341//130 342//130 343//130
f 344//131 345//131 346//131
f 347//34 348//34 349//34
f 350//129 351//129 352//129
f 329//9 336//9 335//9
f 332//10 331//10 330//10
f 338//11 334//11 333//11
f 337//12 340//12 339//12
f 335//13 348//13 347//13
f 350//14 339//14 338//14
f 349//15 352//15 351//15
f 347//16 342//16 341//16
f 344//17 351//17 350//17
f 343//18 346//18 345//18
f 341//19 330//19 329//19
f 333//20 345//20 344//20
f 347//21 329//21 335//21
f 334//22 336//22 331//22
f 345//23 330//23 343//23
f 338//24 344//24 350//24
f 339//25 348//25 337//25
f 351//26 342//26 349//26
f 465//60 466//60 467//60
f 468//61 469//61 470//61
f 471//3 472//3 473//3
f 474//4 475//4 476//4
f 477//5 478//5 479//5
f 480//6 481//6 482//6
f 483//34 484//34 485//34
f 486//129 487//129 488//129
f 465//9 472//9 471//9
f 468//10 467//10 466//10
f 474//11 470//11 469//11
f 473//12 476//12 475//12
f 471//13 484//13 483//13
f 486//14 475//14 474//14
f 485//15 488//15 487//15
f 483//16 478//16 477//16
f 480//17 487//17 486//17
f 479//18 482//18 481//18
f 477//19 466//19 465//19
f 469//20 481//20 480//20
f 483//21 465//21 471//21
f 470//22 472//22 467//22
f 481//23 466//23 479//23
f 474//24 480//24 486//24
f 475//25 484//25 473//25
f 487//26 478//26 485//26
f 513//72 514//72 515//72
f 516//73 517//73 518//73
f 519//31 520//31 521//31
f 522//127 523//127 524//127
f 525//70 526//70 527//70
f 528//6 529//6 530//6
f 531//34 532//34 533//34
f 534//129 535//129 536//129
f 513//9 520//9 519//9
f 516//10 515//10 514//10
f 522//11 518//11 517//11
f 521//12 524//12 523//12
f 519//13 532//13 531//13
f 534//14 523//14 522//14
f 533//15 536//15 535//15
f 531//16 526//16 525//16
f 528//17 535//17 534//17
f 527//18 530//18 529//18
f 513//19 527//19 514//19
f 517//20 529//20 528//20
f 531//21 513//21 519//21
f 518//22 520//22 515//22
f 529//23 514//23 527//23
f 522//24 528//24 534//24
f 523//25 532//25 521//25
f 535//26 526//26 533//26
f 729//257 730//257 731//257
f 732//258 733//258 734//258
f 735//259 736//259 737//259
f 738//260 739//260 740//260
f 741//261 742//261 743//261
f 744//262 745//262 746//262
f 747//263 748//263 749//263
f 750//264 751//264 752//264
f 729//265 736//265 735//265
f 732//266 731//266 730//266
f 733//267 740//267 734//267
f 737//268 740//268 739//268
f 735//269 748//269 747//269
f 750//270 739//270 738//270
f 749//271 752//271 751//271
f 741//272 749//272 742//272
f 750//273 746//273 751//273
f 743//274 746//274 745//274
f 741//275 730//275 729//275
f 744//276 732//276 745//276
f 747//277 729//277 735//277
f 734//22 736//22 731//22
f 745//278 730//278 743//278
f 750//279 733//279 744//279
f 737//280 752//280 748//280
f 749//26 746//26 742//26
f 25//9 27//9 32//9
f 28//10 30//10 27//10
f 34//11 36//11 30//11
f 33//12 32//12 36//12
f 43//13 31//13 33//13
f 34//14 46//14 48//14
f 45//15 44//15 48//15
f 43//16 45//16 38//16
f 40//17 42//17 47//17
f 39//18 38//18 42//18
f 25//19 37//19 39//19
f 40//20 29//20 28//20
f 43//21 37//21 25//21
f 30//22 36//22 32//22
f 41//23 28//23 26//23
f 34//24 29//24 40//24
f 35//25 48//25 44//25
f 47//26 42//26 38//26
f 73//44 75//44 80//44
f 74//45 76//45 78//45
f 82//285 84//285 78//285
f 81//47 80//47 84//47
f 91//48 79//48 81//48
f 94//49 96//49 83//49
f 95//50 93//50 92//50
f 91//51 93//51 86//51
f 88//286 90//286 95//286
f 87//53 86//53 90//53
f 85//54 87//54 74//54
f 77//55 76//55 89//55
f 91//21 85//21 73//21
f 78//56 84//56 80//56
f 87//57 89//57 76//57
f 82//24 77//24 88//24
f 81//58 83//58 96//58
f 95//59 90//59 86//59
f 281//9 283//9 288//9
f 284//10 286//10 283//10
f 290//11 292//11 286//11
f 289//12 288//12 292//12
f 287//13 289//13 300//13
f 302//14 304//14 291//14
f 301//15 300//15 304//15
f 299//16 301//16 294//16
f 296//17 298//17 303//17
f 295//18 294//18 298//18
f 293//19 295//19 282//19
f 285//20 284//20 297//20
f 299//21 293//21 281//21
f 286//22 292//22 288//22
f 297//23 284//23 282//23
f 290//24 285//24 296//24
f 291//25 304//25 300//25
f 303//26 298//26 294//26
f 329//9 331//9 336//9
f 332//10 334//10 331//10
f 338//11 340//11 334//11
f 337//12 336//12 340//12
f 335//13 337//13 348//13
f 350//14 352//14 339//14
f 349//15 348//15 352//15
f 347//16 349//16 342//16
f 344//17 346//17 351//17
f 343//18 342//18 346//18
f 341//19 343//19 330//19
f 333//20 332//20 345//20
f 347//21 341//21 329//21
f 334//22 340//22 336//22
f 345//23 332//23 330//23
f 338//24 333//24 344//24
f 339//25 352//25 348//25
f 351//26 346//26 342//26
f 465//9 467//9 472//9
f 468//10 470//10 467//10
f 474//11 476//11 470//11
f 473//12 472//12 476//12
f 471//13 473//13 484//13
f 486//14 488//14 475//14
f 485//15 484//15 488//15
f 483//16 485//16 478//16
f 480//17 482//17 487//17
f 479//18 478//18 482//18
f 477//19 479//19 466//19
f 469//20 468//20 481//20
f 483//21 477//21 465//21
f 470//22 476//22 472//22
f 481//23 468//23 466//23
f 474//24 469//24 480//24
f 475//25 488//25 484//25
f 487//26 482//26 478//26
f 513//9 515//9 520//9
f 516//10 518//10 515//10
f 522//11 524//11 518//11
f 521//12 520//12 524//12
f 519//13 521//13 532//13
f 534//14 536//14 523//14
f 533//15 532//15 536//15
f 531//16 533//16 526//16
f 528//17 530//17 535//17
f 527//18 526//18 530//18
f 513//19 525//19 527//19
f 517//20 516//20 529//20
f 531//21 525//21 513//21
f 518//22 524//22 520//22
f 529//23 516//23 514//23
f 522//24 517//24 528//24
f 523//25 536//25 532//25
f 535//26 530//26 526//26
f 729//265 731//265 736//265
f 732//266 734//266 731//266
f 733//267 738//267 740//267
f 737//268 736//268 740//268
f 735//269 737//269 748//269
f 750//270 752//270 739//270
f 749//271 748//271 752//271
f 741//272 747//272 749//272
f 750//273 744//273 746//273
f 743//274 742//274 746//274
f 741//275 743//275 730//275
f 744//276 733//276 732//276
f 747//277 741//277 729//277
f 734//22 740//22 736//22
f 745//278 732//278 730//278
f 750//279 738//279 733//279
f 737//280 739//280 752//280
f 749//26 751//26 746//26
usemtl Squirrel_acorn
f 553//135 554//135 555//135
f 556//136 557//136 558//136
f 559//137 560//137 561//137
f 562//138 563//138 564//138
f 565//139 566//139 567//139
f 568//140 569//140 570//140
f 571//141 572//141 573//141
f 574//142 575//142 576//142
f 553//143 560//143 559//143
f 556//144 555//144 554//144
f 557//145 564//145 558//145
f 561//146 564//146 563//146
f 559//147 572//147 571//147
f 574//148 563//148 562//148
f 573//149 576//149 575//149
f 571//150 566//150 565//150
f 568//151 575//151 574//151
f 567//152 570//152 569//152
f 553//153 567//153 554//153
f 557//154 569//154 568//154
f 571//21 553//21 559//21
f 558//155 560//155 555//155
f 567//156 556//156 554//156
f 562//24 568//24 574//24
f 561//157 576//157 572//157
f 575//158 566//158 573//158
f 553//143 555//143 560//143
f 556//144 558//144 555//144
f 557//145 562//145 564//145
f 561//146 560//146 564//146
f 559//147 561//147 572//147
f 574//148 576//148 563//148
f 573//149 572//149 576//149
f 571//150 573//150 566//150
f 568//151 570//151 575//151
f 567//152 566//152 570//152
f 553//153 565//153 567//153
f 557//154 556//154 569//154
f 571//21 565//21 553//21
f 558//155 564//155 560//155
f 567//156 569//156 556//156
f 562//24 557//24 568//24
f 561//157 563//157 576//157
f 575//158 570//158 566//158
usemtl Squirrel_cap
f 577//60 578//60 579//60
f 580//75 581//75 582//75
f 583//3 584//3 585//3
f 586//159 587//159 588//159
f 589//64 590//64 591//64
f 592//160 593//160 594//160
f 595//7 596//7 597//7
f 598//29 599//29 600//29
f 577//9 584//9 583//9
f 580//10 579//10 578//10
f 586//11 582//11 581//11
f 585//12 588//12 587//12
f 583//13 596//13 595//13
f 598//14 587//14 586//14
f 597//15 600//15 599//15
f 595//16 590//16 589//16
f 592//17 599//17 598//17
f 591//18 594//18 593//18
f 589//19 578//19 577//19
f 581//20 593//20 592//20
f 595//21 577//21 583//21
f 582//22 584//22 579//22
f 593//23 578//23 591//23
f 586//24 592//24 598//24
f 587//25 596//25 585//25
f 599//26 590//26 597//26
f 602//22 603//22 601//22
f 604//25 607//25 603//25
f 608//26 605//26 607//26
f 606//23 601//23 605//23
f 607//21 601//21 603//21
f 604//24 606//24 608//24
f 577//9 579//9 584//9
f 580//10 582//10 579//10
f 586//11 588//11 582//11
f 585//12 584//12 588//12
f 583//13 585//13 596//13
f 598//14 600//14 587//14
f 597//15 596//15 600//15
f 595//16 597//16 590//16
f 592//17 594//17 599//17
f 591//18 590//18 594//18
f 589//19 591//19 578//19
f 581//20 580//20 593//20
f 595//21 589//21 577//21
f 582//22 588//22 584//22
f 593//23 580//23 578//23
f 586//24 581//24 592//24
f 587//25 600//25 596//25
f 599//26 594//26 590//26
f 602//22 604//22 603//22
f 604//25 608//25 607//25
f 608//26 606//26 605//26
f 606//23 602//23 601//23
f 607//21 605//21 601//21
f 604//24 602//24 606//24
